<svg width="67" height="62" viewBox="0 0 67 62" fill="none" xmlns="http://www.w3.org/2000/svg">
<path d="M30.1892 1.22609L1.2707 30.1446C0.522646 30.8902 0.0735568 31.884 0.00826897 32.9381C-0.0570189 33.9923 0.266016 35.0339 0.916347 35.8661C1.28931 36.3189 1.7528 36.6887 2.27708 36.9519C2.80137 37.215 3.37487 37.3657 3.9608 37.3941C4.54672 37.4226 5.13213 37.3283 5.67947 37.1173C6.22681 36.9062 6.72398 36.5831 7.1391 36.1686L33.0672 10.2404C33.085 10.2216 33.1065 10.2066 33.1302 10.1963C33.154 10.1861 33.1796 10.1808 33.2055 10.1808C33.2314 10.1808 33.257 10.1861 33.2808 10.1963C33.3046 10.2066 33.326 10.2216 33.3438 10.2404L59.1855 36.1686C59.9757 36.9539 61.0446 37.3947 62.1586 37.3947C63.2727 37.3947 64.3415 36.9539 65.1317 36.1686C65.9171 35.3784 66.3578 34.3096 66.3578 33.1955C66.3578 32.0814 65.9171 31.0126 65.1317 30.2224L36.1354 1.22609C35.3452 0.440761 34.2764 -2.51895e-05 33.1623 -2.51408e-05C32.0482 -2.50921e-05 30.9794 0.440762 30.1892 1.22609Z" fill="#6B3E91"/>
<path d="M33.1623 23.7663C32.6096 23.7652 32.0622 23.8739 31.5518 24.086C31.0414 24.2982 30.5783 24.6096 30.1892 25.0022L1.27069 53.9207C0.524967 54.6658 0.0773415 55.6579 0.0120781 56.71C-0.0531853 57.7622 0.268416 58.802 0.91634 59.6335C1.28944 60.0858 1.75272 60.4552 2.27663 60.7184C2.80053 60.9815 3.37354 61.1326 3.95908 61.1619C4.54462 61.1911 5.12984 61.098 5.67738 60.8884C6.22492 60.6789 6.72275 60.3574 7.13909 59.9447L33.0672 34.0165C33.105 33.9821 33.1545 33.9635 33.2055 33.9647C33.2563 33.9652 33.3052 33.9835 33.3438 34.0165L59.2287 59.9447C60.0341 60.6359 61.0714 60.9967 62.1319 60.9544C63.1924 60.9121 64.1976 60.4698 64.9454 59.7166C65.6931 58.9634 66.128 57.955 66.1626 56.8942C66.1971 55.8334 65.8288 54.7988 65.1317 53.9985L36.1354 25.0022C35.7463 24.6096 35.2832 24.2982 34.7728 24.086C34.2624 23.8739 33.715 23.7652 33.1623 23.7663Z" fill="#F59F42"/>
</svg>
