<svg width="72" height="77" viewBox="0 0 72 77" fill="none" xmlns="http://www.w3.org/2000/svg">
<path d="M70.1401 34.9303L36.6801 1.47025C35.8174 0.604725 34.6676 0.0851088 33.4479 0.00956779C32.2282 -0.0659732 31.0231 0.307792 30.0601 1.06025C29.5362 1.49178 29.1083 2.02806 28.8039 2.63468C28.4994 3.2413 28.3251 3.90487 28.2921 4.58282C28.2592 5.26076 28.3683 5.9381 28.6125 6.5714C28.8567 7.20469 29.2306 7.77994 29.7101 8.26025L59.7101 38.2603C59.7319 38.2808 59.7493 38.3056 59.7612 38.3331C59.773 38.3606 59.7791 38.3903 59.7791 38.4203C59.7791 38.4502 59.773 38.4799 59.7612 38.5074C59.7493 38.5349 59.7319 38.5597 59.7101 38.5803L29.7101 68.4803C28.8015 69.3945 28.2915 70.6312 28.2915 71.9203C28.2915 73.2093 28.8015 74.446 29.7101 75.3603C30.6244 76.2689 31.8611 76.7789 33.1501 76.7789C34.4392 76.7789 35.6758 76.2689 36.5901 75.3603L70.1401 41.8103C71.0488 40.896 71.5588 39.6593 71.5588 38.3703C71.5588 37.0812 71.0488 35.8445 70.1401 34.9303Z" fill="#6B3E91"/>
<path d="M44.0601 38.3703C44.0613 37.7308 43.9355 37.0974 43.6901 36.5068C43.4446 35.9163 43.0843 35.3804 42.6301 34.9303L9.17007 1.47026C8.30791 0.607427 7.16009 0.0895038 5.94268 0.0139912C4.72527 -0.0615215 3.52224 0.310585 2.56007 1.06026C2.03681 1.49195 1.60931 2.02799 1.30483 2.63417C1.00036 3.24035 0.825608 3.90334 0.791733 4.58084C0.757858 5.25835 0.865603 5.93547 1.10809 6.56899C1.35058 7.20252 1.72248 7.77853 2.20007 8.26026L32.2001 38.2603C32.2399 38.3039 32.2614 38.3612 32.2601 38.4203C32.2595 38.479 32.2382 38.5356 32.2001 38.5803L2.20007 68.5303C1.40024 69.4621 0.98284 70.6622 1.03179 71.8893C1.08075 73.1164 1.59242 74.2794 2.46395 75.1446C3.33547 76.0098 4.50222 76.513 5.72962 76.553C6.95702 76.593 8.15406 76.1669 9.08007 75.3603L42.6301 41.8103C43.0843 41.3601 43.4446 40.8242 43.6901 40.2337C43.9355 39.6432 44.0613 39.0098 44.0601 38.3703Z" fill="#F59F42"/>
</svg>
