<svg width="71" height="77" viewBox="0 0 71 77" fill="none" xmlns="http://www.w3.org/2000/svg">
<path d="M1.4187 42.0697L34.8787 75.5297C35.7414 76.3953 36.8912 76.9149 38.1109 76.9904C39.3306 77.066 40.5358 76.6922 41.4987 75.9397C42.0226 75.5082 42.4505 74.9719 42.755 74.3653C43.0595 73.7587 43.2338 73.0951 43.2667 72.4172C43.2997 71.7392 43.1906 71.0619 42.9464 70.4286C42.7022 69.7953 42.3283 69.2201 41.8487 68.7397L11.8487 38.7397C11.8269 38.7192 11.8095 38.6944 11.7977 38.6669C11.7858 38.6394 11.7797 38.6097 11.7797 38.5797C11.7797 38.5498 11.7858 38.5201 11.7977 38.4926C11.8095 38.4651 11.8269 38.4403 11.8487 38.4197L41.8487 8.51974C42.7574 7.60545 43.2674 6.36877 43.2674 5.07974C43.2674 3.79071 42.7574 2.55403 41.8487 1.63974C40.9344 0.731079 39.6977 0.221069 38.4087 0.221069C37.1197 0.221069 35.883 0.731079 34.9687 1.63974L1.4187 35.1897C0.510041 36.104 3.13081e-05 37.3407 3.11584e-05 38.6297C3.10087e-05 39.9188 0.510041 41.1554 1.4187 42.0697Z" fill="#6B3E91"/>
<path d="M27.4987 38.6297C27.4974 39.2692 27.6232 39.9026 27.8686 40.4932C28.1141 41.0837 28.4744 41.6196 28.9287 42.0697L62.3886 75.5297C63.2508 76.3926 64.3986 76.9105 65.616 76.986C66.8334 77.0615 68.0365 76.6894 68.9986 75.9397C69.5219 75.508 69.9494 74.972 70.2539 74.3658C70.5584 73.7597 70.7331 73.0967 70.767 72.4192C70.8009 71.7417 70.6931 71.0645 70.4506 70.431C70.2081 69.7975 69.8362 69.2215 69.3586 68.7397L39.3587 38.7397C39.3188 38.6961 39.2974 38.6388 39.2987 38.5797C39.2992 38.521 39.3205 38.4644 39.3587 38.4197L69.3587 8.46973C70.1585 7.53786 70.5759 6.33775 70.5269 5.11068C70.478 3.88361 69.9663 2.72055 69.0948 1.85536C68.2233 0.990173 67.0565 0.486992 65.8291 0.446991C64.6017 0.40699 63.4047 0.833129 62.4787 1.63973L28.9287 35.1897C28.4744 35.6399 28.1141 36.1758 27.8686 36.7663C27.6232 37.3568 27.4974 37.9902 27.4987 38.6297Z" fill="#F59F42"/>
</svg>
