<svg width="786" height="228" viewBox="0 0 786 228" fill="none" xmlns="http://www.w3.org/2000/svg">
<g clip-path="url(#clip0_42_921)">
<path d="M40.8694 50.5198L49.3013 50.5198C53.6991 50.5198 57.2646 46.9505 57.2646 42.5481L57.2646 34.1073C57.2647 29.7049 53.6991 26.1357 49.3013 26.1357L48.4671 26.1357C47.7677 26.1357 47.1126 25.7902 46.7158 25.212C46.3209 24.6338 46.2341 23.8976 46.487 23.2444L51.2429 10.9066C51.4957 10.2527 51.409 9.51649 51.014 8.93917C50.6173 8.36098 49.9621 8.01543 49.2627 8.01543L43.6636 8.01543C42.8738 8.01543 42.1484 8.45521 41.783 9.15525L35.0231 22.0835C33.6316 24.7447 32.9045 27.7043 32.9045 30.7081L32.9045 42.5482C32.9043 46.9505 36.4716 50.5198 40.8694 50.5198Z" fill="#F59F42"/>
<path d="M8.72683 50.5198L17.159 50.5198C21.5568 50.5198 25.1221 46.9505 25.1221 42.5481L25.1221 34.1073C25.1221 29.7049 21.5567 26.1357 17.159 26.1357L16.3266 26.1357C15.6271 26.1357 14.9702 25.7902 14.5752 25.212C14.1784 24.6338 14.0935 23.8976 14.3445 23.2444L19.1022 10.9065C19.355 10.2525 19.2683 9.51638 18.8715 8.93906C18.4766 8.36087 17.8214 8.01532 17.1201 8.01532L11.5228 8.01531C10.733 8.01531 10.0076 8.4551 9.64034 9.15514L2.88228 22.0834C1.49083 24.7447 0.76371 27.7042 0.76371 30.7081L0.763709 42.5482C0.763708 46.9505 4.32912 50.5198 8.72683 50.5198Z" fill="#F59F42"/>
</g>
<g clip-path="url(#clip1_42_921)">
<path d="M745.725 177.697H737.293C732.896 177.697 729.33 181.266 729.33 185.668V194.109C729.33 198.512 732.896 202.081 737.293 202.081H738.128C738.827 202.081 739.482 202.426 739.879 203.005C740.274 203.583 740.361 204.319 740.108 204.972L735.352 217.31C735.099 217.964 735.186 218.7 735.581 219.277C735.977 219.856 736.633 220.201 737.332 220.201H742.931C743.721 220.201 744.446 219.761 744.812 219.061L751.572 206.133C752.963 203.472 753.69 200.512 753.69 197.508V185.668C753.69 181.266 750.123 177.697 745.725 177.697Z" fill="#F59F42"/>
<path d="M777.868 177.697H769.436C765.038 177.697 761.473 181.266 761.473 185.668V194.109C761.473 198.512 765.038 202.081 769.436 202.081H770.268C770.968 202.081 771.625 202.426 772.019 203.005C772.416 203.583 772.501 204.319 772.25 204.972L767.493 217.31C767.24 217.964 767.326 218.7 767.723 219.278C768.118 219.856 768.773 220.201 769.475 220.201H775.072C775.862 220.201 776.587 219.761 776.954 219.061L783.712 206.133C785.104 203.472 785.831 200.512 785.831 197.508V185.668C785.831 181.266 782.266 177.697 777.868 177.697Z" fill="#F59F42"/>
</g>
<defs>
<clipPath id="clip0_42_921">
<rect width="56.5011" height="56.5604" fill="white" transform="translate(57.2646 57.5479) rotate(-180)"/>
</clipPath>
<clipPath id="clip1_42_921">
<rect width="56.5011" height="56.5604" fill="white" transform="translate(729.33 170.669)"/>
</clipPath>
</defs>
</svg>
