<svg width="26" height="42" viewBox="0 0 26 42" fill="none" xmlns="http://www.w3.org/2000/svg">
<path d="M25.0202 33.7125L20.261 31.2286C20.0401 31.1144 19.786 31.0945 19.5515 31.1729C19.317 31.2514 19.1202 31.4221 19.0023 31.6496C18.9217 31.7982 18.8803 31.9668 18.8824 32.138C18.8833 32.3247 18.9335 32.5074 19.0274 32.6658C19.1212 32.8242 19.2551 32.9519 19.4139 33.0347L21.1801 33.9525C21.2754 34.0017 21.3557 34.0781 21.4118 34.173C21.468 34.2679 21.4977 34.3775 21.4977 34.4893C21.4977 34.6011 21.468 34.7107 21.4118 34.8055C21.3557 34.9004 21.2754 34.9768 21.1801 35.0261L13.5238 38.9161C13.2792 39.0388 13.0116 39.1025 12.7406 39.1025C12.4696 39.1025 12.2021 39.0388 11.9574 38.9161L4.28916 35.0261C4.19508 34.9757 4.11607 34.8989 4.06088 34.8042C4.00569 34.7094 3.97648 34.6004 3.97648 34.4893C3.97648 34.3781 4.00569 34.2691 4.06088 34.1744C4.11607 34.0796 4.19508 34.0028 4.28916 33.9525L8.68472 31.658C8.8453 31.5756 9.02965 31.5606 9.20034 31.6161C9.37103 31.6716 9.51528 31.7935 9.60379 31.9569C10.435 33.4768 11.2022 34.7987 11.7456 35.7881C11.8605 35.9867 12.0219 36.1508 12.2143 36.2648C12.4068 36.3787 12.6238 36.4385 12.8445 36.4385C13.0653 36.4385 13.2823 36.3787 13.4747 36.2648C13.6672 36.1508 13.8286 35.9867 13.9434 35.7881C14.2911 35.1818 14.7066 34.4535 15.1702 33.6325L19.0503 26.3239L19.1062 26.2313C21.6756 21.0698 24.0652 15.4578 24.0652 12.4308C24.0652 9.29993 22.8847 6.2973 20.7834 4.08344C18.6821 1.86959 15.8322 0.625854 12.8605 0.625854C9.88883 0.625854 7.03888 1.86959 4.93759 4.08344C2.83631 6.2973 1.65582 9.29993 1.65582 12.4308C1.65582 15.9167 4.85259 22.8843 7.84157 28.6184C7.90616 28.7433 7.94615 28.8806 7.95914 29.0222C7.97214 29.1638 7.95787 29.3067 7.9172 29.4423C7.87653 29.5779 7.81029 29.7035 7.72245 29.8115C7.63461 29.9195 7.52698 30.0077 7.40601 30.0708L0.457025 33.7125C0.31977 33.7843 0.204268 33.8951 0.123524 34.0323C0.0427803 34.1696 0 34.3278 0 34.4893C0 34.6507 0.0427803 34.809 0.123524 34.9462C0.204268 35.0835 0.31977 35.1942 0.457025 35.266L12.389 41.5095C12.5031 41.5699 12.629 41.6013 12.7566 41.6013C12.8843 41.6013 13.0102 41.5699 13.1242 41.5095L25.0202 35.266C25.1575 35.1942 25.273 35.0835 25.3537 34.9462C25.4345 34.809 25.4773 34.6507 25.4773 34.4893C25.4773 34.3278 25.4345 34.1696 25.3537 34.0323C25.273 33.8951 25.1575 33.7843 25.0202 33.7125ZM5.93949 12.4603C5.93949 11.0447 6.3379 9.66099 7.08434 8.48401C7.83078 7.30704 8.89173 6.3897 10.133 5.848C11.3743 5.3063 12.7402 5.16457 14.0579 5.44072C15.3756 5.71688 16.5861 6.39853 17.5361 7.39946C18.4861 8.40039 19.1331 9.67566 19.3952 11.064C19.6574 12.4523 19.5228 13.8914 19.0087 15.1992C18.4945 16.5069 17.6238 17.6247 16.5067 18.4111C15.3896 19.1976 14.0762 19.6173 12.7326 19.6173C10.931 19.6173 9.20312 18.8633 7.92916 17.5211C6.65519 16.1789 5.93949 14.3584 5.93949 12.4603Z" fill="white"/>
<path d="M12.7366 17.3986C15.3253 17.3986 17.4239 15.1876 17.4239 12.4602C17.4239 9.73283 15.3253 7.52185 12.7366 7.52185C10.1479 7.52185 8.04932 9.73283 8.04932 12.4602C8.04932 15.1876 10.1479 17.3986 12.7366 17.3986Z" fill="white"/>
</svg>
