<svg width="27" height="27" viewBox="0 0 27 27" fill="none" xmlns="http://www.w3.org/2000/svg">
<path d="M12.1119 14.9796C11.1228 13.9749 10.1834 12.9217 9.20851 11.902C9.00193 11.6941 8.84415 11.4384 8.74766 11.155C8.63543 10.7722 8.63296 10.3629 8.74057 9.97853C8.80547 9.67323 8.92585 9.38406 9.09507 9.12697L10.6513 7.60685C10.8025 7.51216 10.933 7.38488 11.0342 7.23335C11.2523 6.88026 11.3347 6.45294 11.2646 6.03817C11.2115 5.45925 10.9917 5.026 10.4599 4.1707C9.97686 3.35725 9.4365 2.58319 8.84338 1.85504C8.37747 1.24527 7.81204 0.727965 7.17367 0.327445C6.94976 0.179809 6.70235 0.0760507 6.44339 0.0211796C5.91115 -0.0625591 5.36778 0.0495622 4.90485 0.33865L4.57871 0.60383C3.752 1.26544 3.02011 2.04912 2.4056 2.9307C1.98828 3.50214 1.64605 4.1303 1.38818 4.79817C1.17313 5.34742 1.03232 5.92575 0.969866 6.51624C0.898493 7.32691 0.974289 8.14448 1.1932 8.92528C1.54723 10.2187 2.1214 11.4337 2.88773 12.5108C3.69954 13.7321 4.79141 14.9273 6.94324 17.2056C7.81886 18.1469 7.65225 17.9526 9.38222 19.779C10.1728 20.6156 10.9739 21.4373 11.7645 22.2702C12.2821 22.8118 12.6791 23.2301 13.2853 23.7642C13.7371 24.1765 14.2106 24.5618 14.7033 24.9183C15.5254 25.5533 16.4321 26.0567 17.394 26.4123C18.0181 26.653 18.6729 26.794 19.3367 26.8306C20.1048 26.8639 20.8724 26.75 21.6019 26.4944C22.3255 26.2315 23.0015 25.8413 23.6013 25.3403C23.9346 25.0752 24.2004 24.8137 24.3919 24.6307C24.7647 24.2652 25.1197 23.88 25.4554 23.4766C25.7515 23.1564 26.0022 22.7928 26.1998 22.3972C26.3771 21.999 26.4482 21.5574 26.4055 21.1199C26.3208 20.6083 26.0952 20.1342 25.7567 19.7566C25.1818 19.0144 24.5167 18.3551 23.7786 17.7958C23.0481 17.2163 22.2883 16.6789 21.5027 16.186C21.3133 16.1037 21.116 16.0436 20.9142 16.0067C20.6718 15.9441 20.4199 15.9326 20.1733 15.9731C19.8586 16.0481 19.5694 16.2121 19.3367 16.4475C19.1524 16.6403 18.9851 16.8503 18.8368 17.0749C18.5779 17.4379 18.2832 17.7709 17.9576 18.0684C17.7942 18.2117 17.6172 18.3368 17.4294 18.4419C17.1818 18.595 16.9065 18.6917 16.6212 18.7258C16.3178 18.7492 16.0138 18.6901 15.7385 18.554C15.5459 18.4763 15.3645 18.3707 15.1996 18.2402C15.0685 18.1301 14.9496 18.0048 14.8451 17.8667C14.3701 17.2766 12.3352 15.2075 12.1119 14.9796Z" fill="white"/>
</svg>
