<svg width="26" height="30" viewBox="0 0 26 30" fill="none" xmlns="http://www.w3.org/2000/svg">
<path d="M13.4845 18.8209L22.866 28.6719C22.9089 28.7201 22.9387 28.7798 22.9521 28.8444C22.9655 28.9091 22.9621 28.9763 22.9421 29.0391C22.9221 29.1018 22.8864 29.1577 22.8387 29.2008C22.791 29.2438 22.7331 29.2725 22.6712 29.2837C22.5495 29.3059 22.4262 29.3169 22.3027 29.3167H3.02175C2.8864 29.3165 2.75136 29.303 2.6184 29.2764C2.56037 29.26 2.50737 29.228 2.46456 29.1836C2.42175 29.1391 2.3906 29.0838 2.37414 29.0229C2.35768 28.962 2.35648 28.8977 2.37064 28.8362C2.38481 28.7747 2.41386 28.7181 2.45497 28.6719L11.8225 18.8209C11.9306 18.7041 12.0599 18.6114 12.2026 18.548C12.3453 18.4847 12.4986 18.452 12.6535 18.452C12.8084 18.452 12.9617 18.4847 13.1044 18.548C13.2471 18.6114 13.3764 18.7041 13.4845 18.8209Z" fill="white"/>
<path d="M1.01534 13.1757L7.9975 19.4072C8.05581 19.4594 8.1032 19.5238 8.13665 19.5964C8.1701 19.6689 8.18889 19.748 8.19184 19.8286C8.19478 19.9091 8.1818 19.9895 8.15374 20.0645C8.12567 20.1395 8.08313 20.2076 8.02879 20.2644L1.12313 27.5071C1.06373 27.571 0.99106 27.6195 0.910843 27.6489C0.830626 27.6783 0.745041 27.6876 0.660808 27.6763C0.576576 27.6649 0.49599 27.6331 0.425378 27.5834C0.354766 27.5337 0.29605 27.4675 0.253841 27.3898C0.0862752 27.0583 -0.000921821 26.6883 7.34875e-06 26.3128V13.6702C-0.00029164 13.5461 0.0332019 13.4246 0.096513 13.32C0.159824 13.2154 0.250294 13.1321 0.357187 13.08C0.46408 13.0279 0.582907 13.0093 0.699567 13.0262C0.816226 13.0432 0.92582 13.095 1.01534 13.1757Z" fill="white"/>
<path d="M25.4774 13.5932V26.3164C25.4793 26.7171 25.3809 27.1113 25.1923 27.4594C25.1536 27.5289 25.1003 27.5881 25.0364 27.6326C24.9726 27.677 24.9 27.7054 24.8241 27.7157C24.7482 27.7259 24.6711 27.7178 24.5987 27.6917C24.5263 27.6657 24.4606 27.6226 24.4064 27.5656L17.4069 20.2387C17.3583 20.1868 17.3204 20.1249 17.2955 20.0568C17.2706 19.9888 17.2592 19.9161 17.2622 19.8432C17.2651 19.7703 17.2823 19.6989 17.3125 19.6333C17.3428 19.5677 17.3856 19.5094 17.4382 19.462L24.5212 13.1243C24.6058 13.0487 24.7093 13.0002 24.8193 12.9846C24.9292 12.969 25.0412 12.9869 25.1418 13.0363C25.2424 13.0856 25.3275 13.1643 25.3869 13.263C25.4464 13.3617 25.4778 13.4763 25.4774 13.5932Z" fill="white"/>
<path d="M23.9232 10.2521C23.86 10.1771 23.7914 10.1073 23.7181 10.0433L14.0828 1.38294C13.6863 1.02635 13.182 0.830444 12.6607 0.830444C12.1393 0.830444 11.635 1.02635 11.2385 1.38294L1.59978 10.0433C1.52803 10.1092 1.45955 10.1789 1.39463 10.2521C1.33311 10.3256 1.2862 10.4113 1.25668 10.5043C1.22716 10.5972 1.21562 10.6954 1.22275 10.793C1.22988 10.8907 1.25554 10.9859 1.2982 11.073C1.34086 11.16 1.39966 11.2372 1.47113 11.2999L9.32605 18.3081C9.44113 18.4121 9.58924 18.4665 9.74075 18.4604C9.89226 18.4542 10.036 18.3881 10.1432 18.2751L11.3845 16.9709C11.7237 16.6172 12.1817 16.4188 12.6589 16.4188C13.1362 16.4188 13.5941 16.6172 13.9333 16.9709L15.1746 18.2751C15.2818 18.3881 15.4256 18.4542 15.5771 18.4604C15.7286 18.4665 15.8767 18.4121 15.9918 18.3081L23.8537 11.2999C23.9246 11.2367 23.9829 11.1591 24.0249 11.0718C24.0669 10.9845 24.0919 10.8892 24.0984 10.7915C24.1049 10.6938 24.0927 10.5958 24.0626 10.5031C24.0325 10.4105 23.9851 10.3252 23.9232 10.2521Z" fill="white"/>
</svg>
