<svg width="25" height="25" viewBox="0 0 25 25" fill="none" xmlns="http://www.w3.org/2000/svg">
<path d="M10.9604 13.959C9.9897 13.0231 9.06774 12.042 8.11098 11.0922C7.90824 10.8986 7.75339 10.6603 7.6587 10.3964C7.54856 10.0398 7.54614 9.65852 7.65174 9.30049C7.71543 9.0161 7.83358 8.74674 7.99965 8.50725L9.52698 7.09126C9.67535 7.00306 9.80339 6.8845 9.90272 6.74335C10.1168 6.41444 10.1976 6.01639 10.1289 5.63003C10.0767 5.09077 9.86097 4.68719 9.33911 3.89048C8.86504 3.13275 8.33473 2.41171 7.75264 1.73343C7.29539 1.16543 6.74048 0.683559 6.11397 0.310474C5.89423 0.17295 5.65142 0.0762995 5.39728 0.0251869C4.87494 -0.052816 4.34167 0.0516253 3.88735 0.320911L3.56727 0.567928C2.75594 1.18422 2.03766 1.91422 1.43457 2.73541C1.02501 3.26771 0.689148 3.85284 0.43607 4.47497C0.225021 4.98659 0.0868276 5.52531 0.025535 6.07536C-0.0445112 6.8305 0.0298749 7.59207 0.244719 8.31938C0.592161 9.52424 1.15565 10.6559 1.90773 11.6593C2.70445 12.797 3.77601 13.9103 5.88783 16.0326C6.74717 16.9093 6.58365 16.7284 8.28146 18.4297C9.0573 19.209 9.84358 19.9744 10.6194 20.7502C11.1274 21.2547 11.517 21.6444 12.112 22.1419C12.5554 22.5259 13.02 22.8848 13.5036 23.2169C14.3104 23.8084 15.2003 24.2774 16.1442 24.6086C16.7568 24.8328 17.3994 24.9641 18.0508 24.9982C18.8047 25.0292 19.5579 24.9231 20.2739 24.6851C20.9841 24.4402 21.6475 24.0767 22.2362 23.6101C22.5632 23.363 22.8241 23.1195 23.012 22.949C23.3779 22.6086 23.7263 22.2498 24.0557 21.874C24.3463 21.5757 24.5924 21.237 24.7863 20.8685C24.9603 20.4976 25.0301 20.0863 24.9881 19.6787C24.905 19.2021 24.6836 18.7605 24.3515 18.4088C23.7873 17.7174 23.1345 17.1033 22.4101 16.5823C21.6932 16.0425 20.9476 15.5419 20.1765 15.0828C19.9907 15.0061 19.797 14.9501 19.599 14.9158C19.3611 14.8574 19.1139 14.8468 18.8719 14.8845C18.5631 14.9543 18.2792 15.1071 18.0508 15.3263C17.87 15.5059 17.7058 15.7016 17.5602 15.9108C17.3061 16.2489 17.0169 16.5591 16.6974 16.8362C16.537 16.9697 16.3633 17.0863 16.179 17.1842C15.936 17.3268 15.6658 17.4169 15.3858 17.4486C15.0881 17.4704 14.7898 17.4153 14.5195 17.2885C14.3305 17.2162 14.1525 17.1178 13.9907 16.9963C13.862 16.8937 13.7453 16.777 13.6428 16.6484C13.1766 16.0987 11.1796 14.1712 10.9604 13.959Z" fill="#F59F42"/>
</svg>
