<svg width="24" height="26" viewBox="0 0 24 26" fill="none" xmlns="http://www.w3.org/2000/svg">
<path d="M12.7026 16.0857L21.54 24.8936C21.5805 24.9368 21.6086 24.9901 21.6212 25.0479C21.6338 25.1057 21.6306 25.1658 21.6118 25.2219C21.593 25.278 21.5593 25.328 21.5144 25.3665C21.4694 25.405 21.4149 25.4306 21.3566 25.4406C21.2419 25.4605 21.1258 25.4703 21.0094 25.4701H2.84645C2.71895 25.47 2.59174 25.4579 2.46648 25.4341C2.41182 25.4194 2.36189 25.3908 2.32157 25.3511C2.28124 25.3114 2.2519 25.2619 2.23639 25.2075C2.22089 25.153 2.21975 25.0955 2.2331 25.0405C2.24644 24.9855 2.27381 24.9349 2.31253 24.8936L11.1369 16.0857C11.2388 15.9813 11.3605 15.8983 11.495 15.8417C11.6294 15.785 11.7738 15.7559 11.9197 15.7559C12.0656 15.7559 12.21 15.785 12.3445 15.8417C12.4789 15.8983 12.6007 15.9813 12.7026 16.0857Z" fill="#F59F42"/>
<path d="M0.956468 11.038L7.53378 16.6097C7.58871 16.6564 7.63335 16.714 7.66486 16.7789C7.69637 16.8437 7.71407 16.9144 7.71685 16.9864C7.71962 17.0585 7.7074 17.1303 7.68096 17.1974C7.65452 17.2645 7.61444 17.3254 7.56326 17.3762L1.05801 23.8519C1.00205 23.9091 0.933595 23.9525 0.858029 23.9788C0.782463 24.005 0.701841 24.0134 0.622493 24.0032C0.543145 23.9931 0.467231 23.9647 0.400713 23.9202C0.334195 23.8758 0.278884 23.8165 0.239122 23.7471C0.0812727 23.4507 -0.000868371 23.1199 6.92265e-06 22.7841V11.4802C-0.00027473 11.3692 0.0312767 11.2605 0.0909168 11.167C0.150557 11.0735 0.235782 10.999 0.336476 10.9524C0.437171 10.9059 0.549109 10.8892 0.659004 10.9044C0.768899 10.9195 0.872138 10.9659 0.956468 11.038Z" fill="#F59F42"/>
<path d="M24 11.4116V22.7876C24.0017 23.1459 23.9091 23.4984 23.7314 23.8096C23.6949 23.8717 23.6447 23.9247 23.5846 23.9644C23.5245 24.0042 23.456 24.0296 23.3846 24.0388C23.3131 24.0479 23.2404 24.0406 23.1722 24.0174C23.104 23.9941 23.0421 23.9555 22.9911 23.9046L16.3974 17.3535C16.3516 17.307 16.3159 17.2517 16.2924 17.1908C16.269 17.13 16.2583 17.065 16.2611 16.9998C16.2638 16.9347 16.28 16.8708 16.3085 16.8122C16.337 16.7536 16.3773 16.7014 16.4269 16.659L23.0992 10.9923C23.1789 10.9247 23.2764 10.8814 23.38 10.8674C23.4836 10.8535 23.589 10.8695 23.6838 10.9136C23.7786 10.9578 23.8587 11.0281 23.9147 11.1164C23.9708 11.2046 24.0004 11.3071 24 11.4116Z" fill="#F59F42"/>
<path d="M22.5358 8.42411C22.4763 8.357 22.4116 8.29458 22.3425 8.2374L13.266 0.494C12.8924 0.175159 12.4174 0 11.9263 0C11.4351 0 10.9601 0.175159 10.5866 0.494L1.50674 8.2374C1.43915 8.29627 1.37464 8.35859 1.31348 8.42411C1.25553 8.4898 1.21134 8.56645 1.18353 8.64952C1.15572 8.73259 1.14485 8.8204 1.15157 8.90774C1.15829 8.99508 1.18246 9.08019 1.22265 9.15803C1.26284 9.23587 1.31823 9.30486 1.38555 9.36092L8.78502 15.627C8.89342 15.72 9.03295 15.7687 9.17567 15.7632C9.3184 15.7577 9.4538 15.6986 9.55477 15.5976L10.7241 14.4315C11.0437 14.1152 11.4751 13.9378 11.9246 13.9378C12.3742 13.9378 12.8056 14.1152 13.1251 14.4315L14.2945 15.5976C14.3955 15.6986 14.5309 15.7577 14.6736 15.7632C14.8163 15.7687 14.9558 15.72 15.0643 15.627L22.4703 9.36092C22.5371 9.3044 22.592 9.23505 22.6316 9.15697C22.6712 9.0789 22.6947 8.99368 22.7008 8.90635C22.7069 8.81902 22.6955 8.73135 22.6671 8.64852C22.6388 8.56569 22.5941 8.48939 22.5358 8.42411Z" fill="#F59F42"/>
</svg>
