<svg width="29" height="27" viewBox="0 0 29 27" fill="none" xmlns="http://www.w3.org/2000/svg">
<path d="M27.5552 0.113768L0.523478 13.6813C0.354082 13.7626 0.21357 13.8934 0.120689 14.0563C0.0278081 14.2191 -0.0130247 14.4064 0.0036388 14.593C0.0203023 14.7796 0.0936696 14.9568 0.213952 15.1008C0.334234 15.2447 0.495711 15.3488 0.676838 15.3989L9.28114 18.106C9.43324 18.1527 9.57158 18.2357 9.68412 18.3479C9.79666 18.4601 9.87999 18.598 9.92687 18.7496L11.973 25.9135C12.0313 26.088 12.1365 26.2433 12.2773 26.3624C12.418 26.4816 12.5888 26.5599 12.7711 26.5889C12.9534 26.618 13.1402 26.5966 13.3112 26.5271C13.4821 26.4577 13.6307 26.3428 13.7407 26.195L16.9491 21.7503C17.1013 21.544 17.3265 21.4031 17.579 21.3561C17.8315 21.309 18.0925 21.3594 18.3092 21.4969C21.1396 23.2748 23.9647 25.0553 26.7844 26.8386C26.929 26.9329 27.0958 26.9879 27.2684 26.9982C27.4409 27.0085 27.6131 26.9738 27.768 26.8974C27.9229 26.821 28.0551 26.7056 28.1516 26.5627C28.248 26.4198 28.3054 26.2542 28.318 26.0824L29 0.966518C28.9974 0.798625 28.9517 0.634197 28.8672 0.488957C28.7826 0.343717 28.6621 0.222523 28.5171 0.136966C28.3722 0.0514085 28.2076 0.00434872 28.0392 0.000287215C27.8708 -0.00377429 27.7041 0.0352983 27.5552 0.113768ZM20.8921 9.7072L13.9949 21.1831C13.9595 21.2411 13.9081 21.2877 13.8469 21.3174C13.7856 21.3471 13.7171 21.3586 13.6494 21.3505C13.5818 21.3425 13.5179 21.3152 13.4654 21.272C13.4129 21.2287 13.374 21.1714 13.3532 21.1067C12.9497 19.6425 12.5905 18.291 12.195 16.8309C12.1429 16.6374 12.1488 16.4331 12.2119 16.2429C12.275 16.0528 12.3926 15.8852 12.5501 15.7609L20.4361 9.3492C20.4877 9.30301 20.554 9.27647 20.6234 9.27425C20.6927 9.27203 20.7606 9.29427 20.8151 9.33705C20.8696 9.37984 20.9072 9.44043 20.9213 9.50814C20.9354 9.57585 20.9251 9.64634 20.8921 9.7072Z" fill="#F59F42"/>
</svg>
