<svg width="194" height="74" viewBox="0 0 194 74" fill="none" xmlns="http://www.w3.org/2000/svg">
<g clip-path="url(#clip0_42_1110)">
<path d="M183.77 29.39C183.004 29.3426 182.235 29.4469 181.509 29.6967C180.783 29.9466 180.113 30.3372 179.538 30.8463C178.964 31.3553 178.495 31.9727 178.159 32.6631C177.822 33.3536 177.626 34.1035 177.58 34.87C177.542 35.3993 177.579 35.9313 177.69 36.45L177.76 36.75L178.02 36.61C179.668 35.7293 181.53 35.328 183.395 35.4517C185.26 35.5754 187.053 36.2192 188.57 37.31L188.81 37.48L188.92 37.2C189.1 36.68 189.211 36.1388 189.25 35.59C189.343 34.0418 188.819 32.5197 187.791 31.3575C186.764 30.1954 185.318 29.4878 183.77 29.39Z" fill="white"/>
<path d="M31.35 29.2601L32.06 59.8501C31.8 60.5701 30.32 61.1301 29.2 61.1301C27.67 61.1301 25.78 60.8201 25.32 58.0101C25.12 55.8101 25.42 34.8301 25.63 30.0801C22.81 30.3301 19.55 30.4801 16.48 30.5401L16.84 59.8501C16.58 60.5701 15.21 61.1301 14.08 61.1301C12.55 61.1301 10.97 60.8201 10.56 58.0101C10.41 55.8701 10.71 35.6901 10.92 30.3801C8.87002 30.0801 7.49002 29.4601 7.09002 28.7001C7.09002 28.7001 6.62002 28.4901 6.62002 27.3201C6.59363 26.8653 6.72816 26.4157 7.00002 26.0501C7.14247 25.8992 7.31467 25.7796 7.50573 25.6987C7.69679 25.6178 7.90255 25.5774 8.11002 25.5801C13.6081 25.5864 19.096 25.1079 24.51 24.1501C25.22 24.0201 25.9 23.8901 26.56 23.7501C29.6379 23.1654 32.6744 22.3804 35.65 21.4001L35.8 21.3401C35.9293 21.5584 36.0429 21.7857 36.14 22.0201C36.4874 22.8415 36.6839 23.7189 36.72 24.6101C36.66 26.7601 35.69 28.2901 31.35 29.2601Z" fill="white"/>
<path d="M56.12 54.64C56.12 56.73 54.54 57.5 52.95 57.5C49.95 57.5 48.41 55.05 47.95 51.57C46.62 56 43.3 60.1 39.52 60.1C38.14 60.1 36.61 59.29 35.89 56.43C39.4215 55.4976 42.5251 53.3792 44.68 50.43C43.5334 51.1609 42.2093 51.5654 40.85 51.6C37.43 51.6 35.85 48.69 35.85 45.68C35.85 40.83 39.79 36.03 44.54 36.03C45.5255 36.035 46.4951 36.2787 47.3659 36.7402C48.2367 37.2017 48.9826 37.8673 49.54 38.68C49.7621 38.4301 50.0398 38.2356 50.3506 38.1123C50.6615 37.989 50.9969 37.9403 51.33 37.97C52.3741 38.0218 53.3677 38.4355 54.14 39.14C53.3233 42.3145 52.877 45.5729 52.81 48.85C52.81 52.42 53.42 53.55 55.93 53.65C56.0362 53.9703 56.1001 54.3032 56.12 54.64ZM42.94 46.93C45.19 46.93 46.87 44.22 48.25 41.05C47.9 39.93 47.25 39.16 46.25 39.16C44.05 39.16 41.71 42.08 41.71 45.29C41.6637 45.6693 41.7658 46.0518 41.9951 46.3575C42.2243 46.6631 42.5629 46.8683 42.94 46.93Z" fill="white"/>
<path d="M92.38 57.4001C92.13 58.2201 90.54 58.8801 89.27 58.8801C86.2 58.8801 84.67 56.6801 84.67 50.8801C84.67 48.3801 85.13 46.8801 85.13 44.2901C85.13 43.9301 84.98 43.7301 84.82 43.7301C83.75 43.7301 82.82 46.7301 81.5 49.9101C80.12 53.4901 78.44 57.2101 76.09 57.2101C75.4125 57.1854 74.7523 56.9889 74.1716 56.6391C73.5908 56.2892 73.1086 55.7975 72.77 55.2101C73.3644 52.2449 73.699 49.2335 73.77 46.2101C73.77 45.4001 73.82 42.8401 73.26 42.8401C71.47 42.8401 68.1 58.1601 62.18 58.1601C61.4732 58.1537 60.7747 58.0062 60.1256 57.7263C59.4765 57.4464 58.8899 57.0397 58.4 56.5301C58.93 50.0001 59.64 44.2701 57.86 39.0001C58.7541 38.1394 59.9393 37.6468 61.18 37.6201C64.18 37.6201 65.01 40.9401 65.01 44.9201C65.01 46.8101 64.96 48.8101 64.85 50.4901C67.41 44.5701 69.4 38.1801 74.51 38.1801C77.42 38.1801 78.95 40.6901 78.95 44.2601C78.95 44.8201 78.95 45.4401 78.95 46.0501C80.84 41.7101 82.95 38.6401 86.86 38.6401C89.42 38.6401 91 40.4301 91 43.2401C91 45.6401 90.59 48.6501 90.59 51.0001C90.54 54.7401 91.21 55.8701 92.38 57.4001Z" fill="white"/>
<path d="M115.16 56.2202C115.058 56.9555 114.679 57.6243 114.102 58.0906C113.524 58.5568 112.79 58.7855 112.05 58.7302C110.21 58.7302 107.05 57.7302 107.05 50.8602V49.9402C105.37 49.9902 103.12 50.0402 100.98 50.2502V51.3202C100.98 53.2602 100.98 56.6802 101.84 58.4202C100.632 58.7836 99.3812 58.9887 98.12 59.0302C95.12 59.0302 94.59 56.7802 94.59 52.5002C94.59 50.7102 94.95 47.0802 94.95 43.3502C94.9992 41.5873 94.8618 39.8241 94.54 38.0902C95.6803 37.8599 96.8375 37.7227 98 37.6802C100.76 37.6802 101.42 39.1102 101.42 41.6802C101.42 43.3602 101.32 45.0002 101.22 46.7902C103.11 46.6302 105.22 46.5302 107.3 46.4802C107.4 45.0002 107.5 43.4802 107.5 42.1902C107.538 40.8149 107.4 39.4405 107.09 38.1002C107.852 37.9865 108.62 37.9197 109.39 37.9002C112.3 37.9002 113.94 39.0702 113.94 43.6702C113.94 45.0502 113.43 48.0602 113.43 50.6202C113.38 53.7202 113.73 55.2002 115.16 56.2202Z" fill="white"/>
<path d="M139.32 56.3801C139.257 57.1422 138.904 57.8512 138.336 58.3623C137.767 58.8734 137.024 59.1481 136.26 59.1301C134.62 59.1301 131.35 58.2201 130.54 53.5201C128.54 56.3801 125.74 59.1301 122.37 59.1301C119.3 59.1301 117.51 57.3001 117.51 52.7501C117.51 51.0101 117.67 47.4901 117.67 43.9101C117.72 42.2003 117.583 40.49 117.26 38.8101C118.494 38.5747 119.744 38.4376 121 38.4001C123.65 38.4001 124.27 39.7301 124.27 42.2801C124.27 44.0201 123.96 48.1501 123.96 51.0101C123.96 52.7501 124.21 54.0101 125.54 54.0101C126.21 54.0101 127.64 53.3401 130.39 49.1001C130.55 46.9601 130.8 44.7101 130.8 42.8201C130.839 41.4977 130.701 40.176 130.39 38.8901C131.118 38.7758 131.853 38.7057 132.59 38.6801C135.45 38.6801 137.09 39.7601 137.09 44.2501C137.09 45.5801 136.68 48.6901 136.68 51.0901C136.72 54.0801 137.48 55.3001 139.32 56.3801Z" fill="white"/>
<path d="M169.15 52.9C169.15 60.51 169.05 73.69 158.27 73.69C157.602 73.7131 156.936 73.6003 156.313 73.3587C155.69 73.117 155.122 72.7513 154.645 72.2839C154.167 71.8164 153.789 71.2569 153.534 70.6392C153.279 70.0214 153.152 69.3584 153.16 68.69C153.16 65.17 158.16 61.69 163.84 57.69C163.84 57.23 163.84 56.77 163.84 56.26C163.429 56.7669 162.917 57.1831 162.337 57.4826C161.757 57.782 161.121 57.9582 160.47 58C156.69 58 155.26 55.7 154.85 52.64C152.75 55.4 149.69 58.05 146.27 58.05C143.15 58.05 141.27 56.21 141.27 51.87C141.27 50.24 141.63 46.82 141.63 43.34C141.68 41.6964 141.542 40.0525 141.22 38.44C142.502 38.2129 143.799 38.0759 145.1 38.03C147.86 38.03 148.53 39.41 148.53 41.81C148.53 43.44 148.01 47.43 148.01 50.24C148.01 51.87 148.27 53.1 149.6 53.1C150.26 53.1 152 52.43 154.86 48.3C154.96 46.25 155.22 44.11 155.22 42.3C155.255 41.0108 155.117 39.7227 154.81 38.47C155.572 38.3555 156.34 38.2887 157.11 38.27C160.02 38.27 161.75 39.39 161.75 43.68C161.75 44.96 161.14 48.38 161.14 50.78C161.14 53.95 161.86 54.46 162.57 54.46C163.28 54.46 164.1 53.38 163.85 50.57C166.39 49.63 169.15 50.35 169.15 52.9ZM163.43 61.9C163.43 61.8 163.43 61.65 163.43 61.44C159.43 64.44 156.33 66.6 156.33 68.75C156.33 69.56 156.79 70.75 157.71 70.75C159.29 70.68 162.61 68.63 163.43 61.89V61.9Z" fill="white"/>
<path d="M193.16 56.68C192.425 57.1933 191.547 57.4626 190.65 57.45C187.44 57.45 186.31 53.98 186.06 51.88C184.63 55.81 180.59 58.62 177.32 58.62C173.54 58.62 170.79 55.56 170.79 51.37C170.79 44.37 176.2 37.48 183.25 37.48C187.13 37.48 190.35 40.48 190.91 42.69C190.582 44.8 190.445 46.9353 190.5 49.07C190.5 51.32 191.88 55.35 193.16 56.68ZM185.24 42.08C185.144 41.6942 184.93 41.3484 184.626 41.0916C184.323 40.8349 183.946 40.6804 183.55 40.65C180.8 40.65 177.32 47.65 177.32 51.12C177.32 52.12 177.68 53.36 178.45 53.36C181.36 53.36 184.68 45.34 185.24 42.08Z" fill="white"/>
<path d="M184.38 27.9301C184.607 26.543 184.535 25.1235 184.169 23.7663C183.804 22.4092 183.153 21.1456 182.26 20.0601C181.29 18.9372 180.071 18.057 178.7 17.4901C177.701 17.092 176.65 16.8362 175.58 16.7301C175.05 16.6801 173.97 16.6501 174.03 17.4601C174.047 17.6201 174.123 17.768 174.243 17.8751C174.364 17.9823 174.519 18.0411 174.68 18.0401C175.24 18.1001 175.79 18.0901 176.35 18.1801C177.86 18.452 179.285 19.0755 180.51 20.0001C181.756 20.9269 182.756 22.146 183.42 23.5501C183.931 24.6397 184.246 25.811 184.35 27.0101C184.392 27.3149 184.402 27.6232 184.38 27.9301Z" fill="white"/>
<path d="M10.29 72.79C10.253 72.7906 10.2163 72.7838 10.182 72.77C10.1477 72.7563 10.1164 72.7359 10.09 72.71C10.0446 72.6572 10.0198 72.5897 10.02 72.52V71C10.0182 70.9271 10.0431 70.856 10.09 70.8C10.1169 70.7755 10.1485 70.7566 10.1829 70.7446C10.2172 70.7326 10.2537 70.7276 10.29 70.73C10.4128 70.7186 10.531 70.677 10.6339 70.6089C10.7368 70.5409 10.8213 70.4485 10.88 70.34C11.0934 69.9677 11.2294 69.5562 11.28 69.13C11.3795 68.3944 11.4229 67.6522 11.41 66.91V65.46C11.4095 65.4231 11.4163 65.3863 11.43 65.352C11.4437 65.3177 11.4641 65.2864 11.49 65.26C11.5147 65.2352 11.5445 65.2161 11.5773 65.204C11.6101 65.1919 11.6452 65.1871 11.68 65.19H15.15C15.1849 65.1871 15.2199 65.1919 15.2528 65.204C15.2856 65.2161 15.3154 65.2352 15.34 65.26C15.3659 65.2864 15.3863 65.3177 15.4 65.352C15.4137 65.3863 15.4205 65.4231 15.42 65.46V70.74H16C16.0349 70.737 16.0701 70.7416 16.103 70.7536C16.1359 70.7656 16.1659 70.7846 16.1906 70.8094C16.2154 70.8342 16.2345 70.8641 16.2465 70.897C16.2584 70.93 16.2631 70.9651 16.26 71V72.52C16.2622 72.5548 16.2572 72.5897 16.2451 72.6224C16.2331 72.6552 16.2143 72.685 16.19 72.71C16.1655 72.7356 16.136 72.7559 16.1033 72.7697C16.0706 72.7834 16.0355 72.7903 16 72.79H15.79C15.7546 72.7903 15.7194 72.7834 15.6867 72.7697C15.6541 72.7559 15.6246 72.7356 15.6 72.71C15.5757 72.685 15.557 72.6552 15.5449 72.6224C15.5329 72.5897 15.5278 72.5548 15.53 72.52V71.46H10.76V72.52C10.7603 72.5555 10.7534 72.5906 10.7397 72.6233C10.7259 72.656 10.7056 72.6855 10.68 72.71C10.6563 72.7366 10.6269 72.7576 10.594 72.7715C10.5612 72.7853 10.5256 72.7916 10.49 72.79H10.29ZM11.38 70.79H14.71V65.89H12.18V67C12.2086 67.7943 12.1482 68.5892 12 69.37C11.9056 69.8757 11.6931 70.3519 11.38 70.76V70.79Z" fill="white"/>
<path d="M20.09 71.5801C19.5793 71.5981 19.0738 71.4734 18.63 71.2201C18.2434 70.9792 17.9344 70.632 17.74 70.2201C17.5345 69.7812 17.4222 69.3045 17.41 68.8201C17.41 68.7001 17.41 68.5301 17.41 68.3101C17.41 68.0901 17.41 67.9301 17.41 67.8101C17.4222 67.3224 17.5346 66.8425 17.74 66.4001C17.9363 65.9894 18.2449 65.6427 18.63 65.4001C19.0738 65.1468 19.5793 65.0221 20.09 65.0401C20.5975 65.0218 21.1 65.1466 21.54 65.4001C21.9277 65.6396 22.2371 65.9872 22.43 66.4001C22.6446 66.8393 22.7574 67.3212 22.76 67.8101C22.76 67.9301 22.76 68.1001 22.76 68.3101C22.76 68.5201 22.76 68.7001 22.76 68.8201C22.7573 69.3057 22.6445 69.7844 22.43 70.2201C22.2385 70.634 21.9289 70.9819 21.54 71.2201C21.1 71.4736 20.5975 71.5983 20.09 71.5801ZM20.09 70.8801C20.3433 70.8899 20.5959 70.8469 20.8317 70.754C21.0676 70.661 21.2815 70.5201 21.46 70.3401C21.8267 69.9008 22.0189 69.342 22 68.7701C22 68.6501 22 68.5001 22 68.3201C22 68.1401 22 68.0001 22 67.8801C22.0144 67.3036 21.8109 66.743 21.43 66.3101C21.2515 66.1301 21.0376 65.9892 20.8017 65.8962C20.5659 65.8032 20.3133 65.7603 20.06 65.7701C19.8052 65.7601 19.5511 65.8029 19.3136 65.8959C19.0761 65.9888 18.8604 66.1298 18.68 66.3101C18.2983 66.7419 18.0978 67.3042 18.12 67.8801C18.12 68.0001 18.12 68.1501 18.12 68.3201C18.12 68.4901 18.12 68.6501 18.12 68.7701C18.1018 69.3453 18.3019 69.9062 18.68 70.3401C18.8638 70.5242 19.0844 70.6674 19.3274 70.7605C19.5704 70.8535 19.8302 70.8943 20.09 70.8801Z" fill="white"/>
<path d="M24.69 71.46C24.6203 71.4602 24.5529 71.4354 24.5 71.39C24.4755 71.3631 24.4566 71.3315 24.4446 71.2971C24.4325 71.2628 24.4276 71.2263 24.43 71.19V65.42C24.4282 65.3886 24.4347 65.3574 24.4487 65.3293C24.4628 65.3013 24.4839 65.2774 24.51 65.26C24.5301 65.2375 24.5548 65.2196 24.5824 65.2075C24.61 65.1955 24.6399 65.1895 24.67 65.19H25C25.0578 65.1896 25.1144 65.2066 25.1625 65.2387C25.2107 65.2707 25.2481 65.3165 25.27 65.37L27.5 69.59L29.73 65.37C29.7547 65.3164 29.7942 65.2711 29.8438 65.2392C29.8934 65.2073 29.9511 65.1902 30.01 65.19H30.29C30.352 65.1899 30.4115 65.2138 30.4563 65.2567C30.501 65.2996 30.5274 65.3581 30.53 65.42V71.19C30.535 71.2266 30.5314 71.2639 30.5196 71.2989C30.5078 71.3339 30.488 71.3657 30.4619 71.3918C30.4357 71.418 30.4039 71.4377 30.3689 71.4495C30.3339 71.4613 30.2966 71.4649 30.26 71.46H30C29.93 71.4622 29.8619 71.4371 29.81 71.39C29.7841 71.3636 29.7637 71.3323 29.75 71.298C29.7363 71.2636 29.7295 71.2269 29.73 71.19V66H30.08L28 70.1C28 70.18 27.91 70.25 27.86 70.33C27.8255 70.366 27.7833 70.3937 27.7365 70.411C27.6897 70.4283 27.6396 70.4348 27.59 70.43H27.35C27.3018 70.4356 27.253 70.4294 27.2077 70.412C27.1624 70.3946 27.122 70.3664 27.09 70.33C27.0331 70.258 26.9829 70.1811 26.94 70.1L24.89 66.24H25.18V71.24C25.1824 71.2763 25.1775 71.3127 25.1655 71.3471C25.1534 71.3815 25.1346 71.4131 25.11 71.44C25.0571 71.4854 24.9897 71.5102 24.92 71.51L24.69 71.46Z" fill="white"/>
<path d="M34.12 71.5801C33.7496 71.5838 33.3834 71.5016 33.05 71.3401C32.739 71.1889 32.4683 70.9661 32.26 70.6901C32.0619 70.4285 31.9563 70.1083 31.96 69.7801C31.9542 69.5244 32.0113 69.2712 32.1264 69.0427C32.2415 68.8143 32.411 68.6176 32.62 68.4701C33.1344 68.1161 33.729 67.8961 34.35 67.8301L36.25 67.5701V67.1401C36.2599 66.9553 36.2303 66.7705 36.163 66.598C36.0958 66.4255 35.9925 66.2694 35.86 66.1401C35.5061 65.8613 35.0587 65.7289 34.61 65.7701C34.2594 65.7542 33.9118 65.8411 33.61 66.0201C33.3666 66.168 33.1799 66.3934 33.08 66.6601C33.0684 66.7121 33.0392 66.7585 32.9972 66.7913C32.9553 66.8242 32.9032 66.8414 32.85 66.8401H32.66C32.6211 66.8459 32.5813 66.8415 32.5446 66.8275C32.5078 66.8135 32.4752 66.7903 32.45 66.7601C32.4097 66.7089 32.3884 66.6453 32.39 66.5801C32.3979 66.4284 32.4426 66.2809 32.52 66.1501C32.6203 65.9623 32.7522 65.7931 32.91 65.6501C33.1141 65.4739 33.3477 65.3351 33.6 65.2401C33.9201 65.1228 34.2591 65.0652 34.6 65.0701C35.002 65.0556 35.4029 65.1201 35.78 65.2601C36.056 65.3677 36.3028 65.5391 36.5 65.7601C36.6664 65.9605 36.7921 66.1915 36.87 66.4401C36.9401 66.6807 36.9771 66.9296 36.98 67.1801V71.1801C36.985 71.2168 36.9814 71.254 36.9696 71.289C36.9577 71.3241 36.938 71.3559 36.9119 71.382C36.8857 71.4081 36.8539 71.4279 36.8189 71.4397C36.7839 71.4515 36.7466 71.4551 36.71 71.4501H36.51C36.4734 71.4551 36.4361 71.4515 36.4011 71.4397C36.3661 71.4279 36.3343 71.4081 36.3081 71.382C36.282 71.3559 36.2623 71.3241 36.2504 71.289C36.2386 71.254 36.235 71.2168 36.24 71.1801V70.6201C36.128 70.7851 35.9894 70.9304 35.83 71.0501C35.6285 71.2149 35.3978 71.3404 35.15 71.4201C34.8182 71.5314 34.4699 71.5855 34.12 71.5801ZM34.24 70.8801C34.588 70.8834 34.9314 70.801 35.24 70.6401C35.5642 70.4786 35.8299 70.2199 36 69.9001C36.1915 69.5085 36.2842 69.0759 36.27 68.6401V68.2301L34.72 68.4501C34.194 68.4932 33.6829 68.6465 33.22 68.9001C33.0745 68.9839 32.9525 69.1029 32.8651 69.2462C32.7777 69.3895 32.7278 69.5525 32.72 69.7201C32.7126 69.8384 32.7292 69.9569 32.7687 70.0686C32.8082 70.1803 32.8699 70.2829 32.95 70.3701C33.1057 70.5466 33.306 70.6779 33.53 70.7501C33.7568 70.8362 33.9974 70.8802 34.24 70.8801Z" fill="white"/>
<path d="M39.16 71.4601C39.09 71.4623 39.0219 71.4372 38.97 71.3902C38.9441 71.3637 38.9237 71.3325 38.91 71.2982C38.8963 71.2638 38.8895 71.2271 38.89 71.1902V65.4601C38.8895 65.4232 38.8963 65.3865 38.91 65.3521C38.9237 65.3178 38.9441 65.2866 38.97 65.2602C38.9947 65.2353 39.0244 65.2162 39.0573 65.2041C39.0901 65.192 39.1252 65.1873 39.16 65.1902H39.36C39.3963 65.1877 39.4328 65.1927 39.4672 65.2047C39.5015 65.2167 39.5331 65.2356 39.56 65.2602C39.6054 65.3169 39.6301 65.3875 39.63 65.4601V70.7602H42.18V65.4601C42.1795 65.4232 42.1863 65.3865 42.2 65.3521C42.2137 65.3178 42.2341 65.2866 42.26 65.2602C42.2847 65.2353 42.3144 65.2162 42.3473 65.2041C42.3801 65.192 42.4152 65.1873 42.45 65.1902H42.65C42.6863 65.1877 42.7228 65.1927 42.7572 65.2047C42.7915 65.2167 42.8231 65.2356 42.85 65.2602C42.8954 65.3169 42.9201 65.3875 42.92 65.4601V70.7602H45.47V65.4601C45.4695 65.4232 45.4763 65.3865 45.49 65.3521C45.5037 65.3178 45.5241 65.2866 45.55 65.2602C45.575 65.2359 45.6049 65.2171 45.6376 65.2051C45.6703 65.193 45.7052 65.1879 45.74 65.1902H45.94C45.9766 65.1852 46.0139 65.1888 46.0489 65.2006C46.0839 65.2124 46.1158 65.2322 46.1419 65.2583C46.168 65.2844 46.1878 65.3162 46.1996 65.3512C46.2114 65.3863 46.215 65.4235 46.21 65.4601V71.1902C46.2124 71.2265 46.2075 71.2629 46.1955 71.2973C46.1834 71.3317 46.1646 71.3633 46.14 71.3902C46.0832 71.4355 46.0127 71.4602 45.94 71.4601H39.16Z" fill="white"/>
<path d="M48.43 71.46C48.36 71.4622 48.2919 71.4371 48.24 71.39C48.2141 71.3636 48.1937 71.3324 48.18 71.298C48.1663 71.2637 48.1595 71.227 48.16 71.19V65.46C48.1595 65.4231 48.1663 65.3863 48.18 65.352C48.1937 65.3177 48.2141 65.2864 48.24 65.26C48.2647 65.2352 48.2944 65.2161 48.3273 65.204C48.3601 65.1919 48.3951 65.1871 48.43 65.19H48.63C48.6663 65.1876 48.7028 65.1926 48.7372 65.2046C48.7715 65.2166 48.8031 65.2355 48.83 65.26C48.8754 65.3168 48.9001 65.3873 48.9 65.46V67.9H52.66V65.46C52.6576 65.4237 52.6625 65.3872 52.6746 65.3529C52.6866 65.3185 52.7054 65.2869 52.73 65.26C52.755 65.2358 52.7849 65.217 52.8176 65.2049C52.8503 65.1929 52.8852 65.1878 52.92 65.19H53.13C53.1648 65.1878 53.1997 65.1929 53.2324 65.2049C53.2651 65.217 53.295 65.2358 53.32 65.26C53.3446 65.2869 53.3634 65.3185 53.3754 65.3529C53.3875 65.3872 53.3924 65.4237 53.39 65.46V71.19C53.3924 71.2264 53.3875 71.2628 53.3754 71.2972C53.3634 71.3316 53.3446 71.3631 53.32 71.39C53.2671 71.4354 53.1997 71.4603 53.13 71.46H52.92C52.8503 71.4603 52.7829 71.4354 52.73 71.39C52.7054 71.3631 52.6866 71.3316 52.6746 71.2972C52.6625 71.2628 52.6576 71.2264 52.66 71.19V68.6H48.9V71.19C48.905 71.2266 48.9014 71.2639 48.8896 71.2989C48.8777 71.334 48.858 71.3658 48.8319 71.3919C48.8057 71.418 48.7739 71.4378 48.7389 71.4496C48.7039 71.4614 48.6666 71.465 48.63 71.46H48.43Z" fill="white"/>
<path d="M55.4 71.46C55.3685 71.4601 55.3372 71.4539 55.308 71.4419C55.2789 71.4299 55.2524 71.4123 55.23 71.39C55.1823 71.3459 55.1536 71.2849 55.15 71.22C55.1461 71.1834 55.1461 71.1466 55.15 71.11C55.1676 71.0617 55.1948 71.0175 55.23 70.98L56.71 68.86H57.62L55.92 71.28C55.88 71.3272 55.8328 71.3677 55.78 71.4C55.7244 71.4391 55.658 71.4601 55.59 71.46H55.4ZM59.18 71.46C59.1103 71.4603 59.0429 71.4354 58.99 71.39C58.9655 71.3631 58.9466 71.3315 58.9346 71.2972C58.9225 71.2628 58.9176 71.2263 58.92 71.19V69.12H57.37V69.06C57.0851 69.0836 56.7984 69.0458 56.5293 68.9492C56.2602 68.8526 56.0149 68.6994 55.81 68.5C55.4721 68.1174 55.2932 67.6202 55.31 67.11C55.285 66.8391 55.3235 66.5661 55.4224 66.3126C55.5214 66.0592 55.678 65.8323 55.88 65.65C56.4012 65.3014 57.025 65.1393 57.65 65.19H59.39C59.4248 65.1878 59.4597 65.1928 59.4924 65.2049C59.5251 65.217 59.555 65.2357 59.58 65.26C59.6046 65.2869 59.6234 65.3185 59.6355 65.3528C59.6475 65.3872 59.6524 65.4237 59.65 65.46V71.19C59.6524 71.2263 59.6475 71.2628 59.6355 71.2972C59.6234 71.3315 59.6046 71.3631 59.58 71.39C59.5271 71.4354 59.4597 71.4603 59.39 71.46H59.18ZM57.42 68.46H58.92V65.89H57.54C57.1459 65.8632 56.7527 65.9537 56.41 66.15C56.2726 66.2744 56.1679 66.4306 56.1051 66.605C56.0423 66.7794 56.0234 66.9666 56.05 67.15C56.0381 67.4936 56.1559 67.8292 56.38 68.09C56.5198 68.216 56.6849 68.3106 56.8643 68.3675C57.0437 68.4244 57.2332 68.4423 57.42 68.42V68.46Z" fill="white"/>
<path d="M61.65 71.4602C61.5871 71.4567 61.5272 71.432 61.48 71.3902C61.4573 71.3682 61.4393 71.3417 61.4273 71.3125C61.4153 71.2832 61.4094 71.2518 61.41 71.2202C61.4061 71.1836 61.4061 71.1468 61.41 71.1102C61.4276 71.0619 61.4548 71.0177 61.49 70.9802L63 68.8602H63.9L62.2 71.2802C62.164 71.3275 62.12 71.3681 62.07 71.4002C62.0138 71.4382 61.9478 71.459 61.88 71.4602H61.65ZM65.44 71.4602C65.4034 71.4651 65.3661 71.4616 65.3311 71.4498C65.2961 71.4379 65.2643 71.4182 65.2382 71.3921C65.212 71.3659 65.1923 71.3341 65.1805 71.2991C65.1686 71.2641 65.1651 71.2268 65.17 71.1902V69.1202H63.63V69.0602C63.3562 69.0963 63.0777 69.07 62.8154 68.9832C62.5532 68.8964 62.314 68.7513 62.1158 68.5589C61.9176 68.3665 61.7656 68.1317 61.6711 67.8721C61.5765 67.6126 61.542 67.335 61.57 67.0602C61.5461 66.7903 61.5841 66.5184 61.6811 66.2654C61.7782 66.0124 61.9317 65.7849 62.13 65.6002C62.6543 65.2502 63.2818 65.088 63.91 65.1402H65.64C65.6764 65.1378 65.7128 65.1427 65.7472 65.1548C65.7815 65.1668 65.8131 65.1856 65.84 65.2102C65.8854 65.267 65.9101 65.3375 65.91 65.4102V71.1402C65.915 71.1768 65.9114 71.2141 65.8996 71.2491C65.8878 71.2841 65.868 71.3159 65.8419 71.3421C65.8158 71.3682 65.7839 71.3879 65.7489 71.3998C65.7139 71.4116 65.6766 71.4151 65.64 71.4102L65.44 71.4602ZM63.68 68.4602H65.17V65.8902H63.8C63.4026 65.8614 63.0056 65.9519 62.66 66.1502C62.5226 66.2746 62.4179 66.4308 62.3551 66.6052C62.2923 66.7796 62.2734 66.9668 62.3 67.1502C62.2882 67.4938 62.406 67.8294 62.63 68.0902C62.7717 68.2164 62.9386 68.3111 63.1196 68.368C63.3006 68.4249 63.4916 68.4427 63.68 68.4202V68.4602Z" fill="white"/>
<path d="M71.24 71.4601C71.1673 71.4602 71.0968 71.4355 71.04 71.3902C71.0154 71.3633 70.9966 71.3317 70.9846 71.2973C70.9725 71.2629 70.9676 71.2265 70.97 71.1902V65.4601C70.965 65.4235 70.9686 65.3863 70.9804 65.3512C70.9923 65.3162 71.012 65.2844 71.0381 65.2583C71.0643 65.2322 71.0961 65.2124 71.1311 65.2006C71.1661 65.1888 71.2034 65.1852 71.24 65.1902H71.44C71.4749 65.1873 71.5099 65.192 71.5427 65.2041C71.5756 65.2162 71.6053 65.2353 71.63 65.2602C71.6559 65.2866 71.6763 65.3178 71.69 65.3521C71.7037 65.3865 71.7105 65.4232 71.71 65.4601V67.9002H73L74.77 65.3702C74.8026 65.3145 74.8469 65.2667 74.9 65.2302C74.9589 65.214 75.0211 65.214 75.08 65.2302H75.32C75.3788 65.2129 75.4412 65.2129 75.5 65.2302C75.52 65.2451 75.536 65.2648 75.5465 65.2875C75.557 65.3102 75.5616 65.3352 75.56 65.3602C75.5647 65.3799 75.5647 65.4004 75.56 65.4201C75.5581 65.4468 75.5581 65.4735 75.56 65.5002L73.69 68.1802L75.79 71.1301C75.8282 71.1748 75.8494 71.2314 75.85 71.2902C75.8516 71.3151 75.847 71.3401 75.8365 71.3628C75.826 71.3855 75.81 71.4052 75.79 71.4201C75.7342 71.4341 75.6758 71.4341 75.62 71.4201H75.31C75.2505 71.4315 75.1895 71.4315 75.13 71.4201C75.0772 71.3875 75.0327 71.343 75 71.2902L73 68.6301H71.71V71.1902C71.7105 71.2271 71.7037 71.2638 71.69 71.2982C71.6763 71.3325 71.6559 71.3637 71.63 71.3902C71.5781 71.4372 71.51 71.4623 71.44 71.4601H71.24Z" fill="white"/>
<path d="M79.16 71.5801C78.6494 71.598 78.1438 71.4734 77.7 71.2201C77.3134 70.9792 77.0044 70.632 76.81 70.2201C76.6045 69.7812 76.4922 69.3045 76.48 68.8201C76.48 68.7001 76.48 68.5301 76.48 68.3101C76.48 68.0901 76.48 67.9301 76.48 67.8101C76.4922 67.3224 76.6046 66.8425 76.81 66.4001C77.0063 65.9894 77.3149 65.6427 77.7 65.4001C78.1485 65.1636 78.648 65.04 79.155 65.04C79.6621 65.04 80.1615 65.1636 80.61 65.4001C80.9977 65.6396 81.3071 65.9872 81.5 66.4001C81.7146 66.8393 81.8275 67.3212 81.83 67.8101C81.83 67.9301 81.83 68.1001 81.83 68.3101C81.83 68.5201 81.83 68.7001 81.83 68.8201C81.8273 69.3057 81.7145 69.7844 81.5 70.2201C81.3085 70.634 80.9989 70.9819 80.61 71.2201C80.1694 71.4721 79.6674 71.5967 79.16 71.5801ZM79.16 70.8801C79.4133 70.8899 79.6659 70.8469 79.9017 70.754C80.1376 70.661 80.3515 70.5201 80.53 70.3401C80.9075 69.9052 81.1106 69.3459 81.1 68.7701C81.1 68.6501 81.1 68.5001 81.1 68.3201C81.1 68.1401 81.1 68.0001 81.1 67.8801C81.1144 67.3036 80.9109 66.743 80.53 66.3101C80.3515 66.1301 80.1376 65.9892 79.9017 65.8962C79.6659 65.8032 79.4133 65.7603 79.16 65.7701C78.9052 65.7601 78.6511 65.8029 78.4136 65.8959C78.1761 65.9888 77.9604 66.1298 77.78 66.3101C77.3983 66.7419 77.1978 67.3042 77.22 67.8801C77.22 68.0001 77.22 68.1501 77.22 68.3201C77.22 68.4901 77.22 68.6501 77.22 68.7701C77.2018 69.3453 77.4019 69.9062 77.78 70.3401C77.9604 70.5203 78.1761 70.6614 78.4136 70.7543C78.6511 70.8472 78.9052 70.89 79.16 70.8801Z" fill="white"/>
<path d="M83.76 71.46C83.6903 71.4603 83.6229 71.4355 83.57 71.39C83.5455 71.3632 83.5266 71.3316 83.5146 71.2972C83.5025 71.2628 83.4976 71.2264 83.5 71.1901V65.46C83.4976 65.4237 83.5025 65.3873 83.5146 65.3529C83.5266 65.3185 83.5455 65.2869 83.57 65.2601C83.5951 65.2358 83.6249 65.217 83.6576 65.205C83.6903 65.1929 83.7252 65.1878 83.76 65.1901H84C84.0348 65.1878 84.0697 65.1929 84.1024 65.205C84.1351 65.217 84.165 65.2358 84.19 65.2601C84.2146 65.2869 84.2334 65.3185 84.2455 65.3529C84.2575 65.3873 84.2624 65.4237 84.26 65.46V67.9001H88V65.46C88 65.3874 88.0246 65.3168 88.07 65.2601C88.0969 65.2355 88.1285 65.2166 88.1629 65.2046C88.1972 65.1926 88.2337 65.1876 88.27 65.1901H88.47C88.5064 65.1876 88.5428 65.1926 88.5772 65.2046C88.6115 65.2166 88.6431 65.2355 88.67 65.2601C88.7154 65.3168 88.7401 65.3874 88.74 65.46V71.1901C88.745 71.2267 88.7414 71.2639 88.7296 71.299C88.7178 71.334 88.698 71.3658 88.6719 71.3919C88.6458 71.418 88.6139 71.4378 88.5789 71.4496C88.5439 71.4614 88.5066 71.465 88.47 71.46H88.27C88.2334 71.465 88.1961 71.4614 88.1611 71.4496C88.1261 71.4378 88.0943 71.418 88.0681 71.3919C88.042 71.3658 88.0223 71.334 88.0105 71.299C87.9986 71.2639 87.9951 71.2267 88 71.1901V68.6H84.23V71.1901C84.2324 71.2264 84.2275 71.2628 84.2155 71.2972C84.2034 71.3316 84.1846 71.3632 84.16 71.39C84.1072 71.4355 84.0397 71.4603 83.97 71.46H83.76Z" fill="white"/>
<path d="M90.21 72.7902C90.1745 72.7905 90.1394 72.7835 90.1067 72.7698C90.0741 72.756 90.0445 72.7357 90.02 72.7101C89.9957 72.6851 89.977 72.6553 89.9649 72.6226C89.9528 72.5898 89.9478 72.5549 89.95 72.5201V71.0002C89.947 70.9638 89.9516 70.9272 89.9637 70.8927C89.9758 70.8582 89.9949 70.8267 90.02 70.8002C90.045 70.7759 90.0749 70.7571 90.1076 70.7451C90.1403 70.733 90.1752 70.7279 90.21 70.7302C90.3323 70.717 90.4498 70.6747 90.5524 70.6069C90.6551 70.539 90.74 70.4476 90.8 70.3401C91.0149 69.9693 91.1479 69.5567 91.19 69.1301C91.2935 68.3948 91.3403 67.6526 91.33 66.9102V65.4601C91.3276 65.4238 91.3325 65.3874 91.3446 65.353C91.3566 65.3186 91.3754 65.287 91.4 65.2602C91.425 65.2359 91.4549 65.2171 91.4876 65.2051C91.5203 65.193 91.5552 65.1879 91.59 65.1902H95.1C95.1366 65.1852 95.1739 65.1888 95.2089 65.2006C95.2439 65.2124 95.2757 65.2322 95.3019 65.2583C95.328 65.2844 95.3477 65.3162 95.3596 65.3512C95.3714 65.3863 95.375 65.4235 95.37 65.4601V70.7401H96C96.0348 70.7379 96.0697 70.743 96.1024 70.7551C96.1351 70.7671 96.165 70.7859 96.19 70.8101C96.2156 70.8347 96.2359 70.8642 96.2496 70.8969C96.2634 70.9296 96.2703 70.9647 96.27 71.0002V72.5201C96.27 72.5918 96.2415 72.6604 96.1909 72.7111C96.1403 72.7617 96.0716 72.7902 96 72.7902H95.8C95.763 72.7907 95.7263 72.7839 95.692 72.7702C95.6577 72.7564 95.6264 72.736 95.6 72.7101C95.5757 72.6851 95.557 72.6553 95.5449 72.6226C95.5328 72.5898 95.5278 72.5549 95.53 72.5201V71.4601H90.68V72.5201C90.6822 72.5549 90.6772 72.5898 90.6651 72.6226C90.653 72.6553 90.6343 72.6851 90.61 72.7101C90.5843 72.737 90.5532 72.758 90.5187 72.7718C90.4842 72.7856 90.4471 72.7919 90.41 72.7902H90.21ZM91.31 70.7902H94.63V65.8902H92.1V67.0002C92.1147 67.7883 92.0477 68.5758 91.9 69.3501C91.8084 69.8575 91.607 70.3387 91.31 70.7602V70.7902Z" fill="white"/>
<path d="M97.87 71.4601C97.8385 71.4602 97.8072 71.4541 97.7781 71.4421C97.7489 71.4301 97.7224 71.4124 97.7 71.3902C97.6523 71.346 97.6236 71.2851 97.62 71.2202V65.4601C97.6195 65.4232 97.6263 65.3865 97.64 65.3521C97.6538 65.3178 97.6741 65.2866 97.7 65.2602C97.7247 65.2353 97.7545 65.2162 97.7873 65.2041C97.8201 65.192 97.8552 65.1873 97.89 65.1902H98.09C98.1266 65.1852 98.1639 65.1888 98.1989 65.2006C98.234 65.2124 98.2658 65.2322 98.2919 65.2583C98.318 65.2844 98.3378 65.3162 98.3496 65.3512C98.3614 65.3863 98.365 65.4235 98.36 65.4601V70.8702L98.14 70.5201L102.07 65.3702C102.108 65.322 102.152 65.2783 102.2 65.2401C102.262 65.2215 102.328 65.2215 102.39 65.2401H102.62C102.65 65.239 102.68 65.2446 102.708 65.2568C102.736 65.2689 102.76 65.2871 102.78 65.3101C102.804 65.3293 102.824 65.3536 102.838 65.3812C102.852 65.4089 102.859 65.4392 102.86 65.4702V71.2401C102.861 71.2771 102.854 71.3138 102.84 71.3482C102.826 71.3825 102.806 71.4137 102.78 71.4402C102.728 71.4873 102.66 71.5124 102.59 71.5102H102.39C102.317 71.5102 102.247 71.4855 102.19 71.4402C102.165 71.4133 102.147 71.3817 102.135 71.3473C102.123 71.3129 102.118 71.2765 102.12 71.2401V66.2401L102.37 66.1802L98.37 71.3801L98.25 71.5002C98.1919 71.542 98.1215 71.5631 98.05 71.5601L97.87 71.4601Z" fill="white"/>
<path d="M106.73 71.46C106.657 71.4601 106.587 71.4354 106.53 71.39C106.505 71.3631 106.487 71.3316 106.475 71.2972C106.463 71.2628 106.458 71.2264 106.46 71.19V65.89H104.25C104.215 65.8923 104.18 65.8872 104.148 65.8751C104.115 65.8631 104.085 65.8443 104.06 65.82C104.035 65.7931 104.017 65.7616 104.005 65.7272C103.993 65.6928 103.988 65.6564 103.99 65.62V65.46C103.988 65.4237 103.993 65.3872 104.005 65.3529C104.017 65.3185 104.035 65.2869 104.06 65.26C104.085 65.2358 104.115 65.217 104.148 65.2049C104.18 65.1929 104.215 65.1878 104.25 65.19H109.4C109.435 65.1871 109.47 65.1919 109.503 65.204C109.536 65.2161 109.565 65.2352 109.59 65.26C109.616 65.2864 109.636 65.3177 109.65 65.352C109.664 65.3863 109.671 65.4231 109.67 65.46V65.62C109.671 65.657 109.664 65.6937 109.65 65.728C109.636 65.7624 109.616 65.7936 109.59 65.82C109.565 65.8448 109.536 65.8639 109.503 65.876C109.47 65.8881 109.435 65.8929 109.4 65.89H107.2V71.19C107.201 71.227 107.194 71.2637 107.18 71.298C107.166 71.3324 107.146 71.3636 107.12 71.39C107.067 71.4354 107 71.4603 106.93 71.46H106.73Z" fill="white"/>
<path d="M113.13 71.5802C112.783 71.5955 112.436 71.5345 112.115 71.4015C111.793 71.2685 111.505 71.0666 111.27 70.8102C110.791 70.2511 110.516 69.5459 110.49 68.8102C110.49 68.6902 110.49 68.5302 110.49 68.3202C110.49 68.1102 110.49 67.9602 110.49 67.8402C110.52 67.3397 110.649 66.8501 110.87 66.4002C111.07 65.9891 111.382 65.6426 111.77 65.4002C112.182 65.1595 112.653 65.0383 113.13 65.0502C113.632 65.0327 114.129 65.1612 114.56 65.4202C114.966 65.6793 115.283 66.056 115.47 66.5002C115.694 67.0244 115.803 67.5903 115.79 68.1602V68.3402C115.792 68.3758 115.785 68.4113 115.771 68.4442C115.758 68.4771 115.737 68.5064 115.71 68.5302C115.684 68.556 115.652 68.5764 115.618 68.5902C115.584 68.6039 115.547 68.6107 115.51 68.6102H111.22V68.7302C111.24 69.0773 111.329 69.417 111.48 69.7302C111.622 70.0472 111.846 70.3201 112.13 70.5202C112.419 70.732 112.771 70.8411 113.13 70.8302C113.425 70.8409 113.719 70.7863 113.99 70.6702C114.189 70.5849 114.375 70.4703 114.54 70.3302C114.636 70.246 114.723 70.1522 114.8 70.0502C114.841 69.9744 114.899 69.9093 114.97 69.8602C115.033 69.8472 115.097 69.8472 115.16 69.8602H115.36C115.393 69.8587 115.426 69.8642 115.457 69.8763C115.488 69.8883 115.516 69.9067 115.54 69.9302C115.568 69.9479 115.589 69.9737 115.602 70.0041C115.614 70.0345 115.617 70.0681 115.61 70.1002C115.583 70.2539 115.518 70.3983 115.42 70.5202C115.28 70.7054 115.115 70.8703 114.93 71.0102C114.694 71.1833 114.43 71.3152 114.15 71.4002C113.823 71.5188 113.478 71.5798 113.13 71.5802ZM111.22 68.0002H115.06C115.064 67.6276 114.986 67.2587 114.83 66.9202C114.68 66.608 114.448 66.3421 114.16 66.1502C113.861 65.9622 113.513 65.865 113.16 65.8702C112.806 65.8632 112.459 65.9606 112.16 66.1502C111.872 66.3371 111.646 66.605 111.51 66.9202C111.354 67.2587 111.276 67.6276 111.28 68.0002H111.22Z" fill="white"/>
<path d="M117.66 73.75C117.625 73.7529 117.59 73.7481 117.557 73.7361C117.524 73.724 117.495 73.7048 117.47 73.68C117.444 73.6536 117.424 73.6224 117.41 73.588C117.396 73.5537 117.389 73.517 117.39 73.48V65.48C117.389 65.4431 117.396 65.4064 117.41 65.372C117.424 65.3377 117.444 65.3064 117.47 65.28C117.495 65.2552 117.524 65.2361 117.557 65.224C117.59 65.2119 117.625 65.2072 117.66 65.21H117.86C117.897 65.2051 117.934 65.2087 117.969 65.2205C118.004 65.2323 118.036 65.252 118.062 65.2782C118.088 65.3043 118.108 65.3361 118.12 65.3711C118.131 65.4061 118.135 65.4434 118.13 65.48V66C118.34 65.718 118.61 65.4858 118.92 65.32C119.303 65.1505 119.717 65.063 120.135 65.063C120.554 65.063 120.967 65.1505 121.35 65.32C121.658 65.4717 121.925 65.6945 122.13 65.97C122.332 66.2486 122.484 66.5598 122.58 66.89C122.672 67.2157 122.723 67.5517 122.73 67.89C122.73 68.01 122.73 68.14 122.73 68.28C122.73 68.42 122.73 68.56 122.73 68.68C122.723 69.0184 122.672 69.3544 122.58 69.68C122.484 70.0102 122.332 70.3214 122.13 70.6C121.925 70.8756 121.658 71.0984 121.35 71.25C120.976 71.4301 120.564 71.5159 120.15 71.5C119.722 71.5176 119.298 71.4209 118.92 71.22C118.613 71.0546 118.343 70.8263 118.13 70.55V73.4C118.135 73.4367 118.131 73.4739 118.12 73.5089C118.108 73.544 118.088 73.5758 118.062 73.6019C118.036 73.628 118.004 73.6478 117.969 73.6596C117.934 73.6714 117.897 73.675 117.86 73.67L117.66 73.75ZM120.08 70.88C120.478 70.9049 120.872 70.7958 121.2 70.57C121.473 70.3611 121.679 70.0757 121.79 69.75C121.913 69.3988 121.983 69.0316 122 68.66C122 68.44 122 68.21 122 67.99C121.983 67.6184 121.913 67.2512 121.79 66.9C121.682 66.5729 121.476 66.2868 121.2 66.08C120.872 65.8543 120.478 65.7452 120.08 65.77C119.685 65.7526 119.295 65.865 118.97 66.09C118.695 66.3047 118.482 66.5874 118.35 66.91C118.217 67.2273 118.142 67.5661 118.13 67.91C118.13 68.03 118.13 68.19 118.13 68.38C118.13 68.57 118.13 68.73 118.13 68.85C118.133 69.195 118.208 69.5356 118.35 69.85C118.492 70.1641 118.712 70.4362 118.99 70.64C119.319 70.8335 119.7 70.9175 120.08 70.88Z" fill="white"/>
<path d="M126.76 71.5802C126.263 71.5955 125.77 71.4818 125.33 71.2502C124.928 71.0252 124.612 70.6736 124.43 70.2502C124.21 69.788 124.097 69.2821 124.1 68.7702C124.1 68.6502 124.1 68.4902 124.1 68.2802C124.1 68.0702 124.1 67.9202 124.1 67.8002C124.096 67.285 124.209 66.7755 124.43 66.3102C124.622 65.9065 124.937 65.574 125.33 65.3602C125.77 65.1285 126.263 65.0148 126.76 65.0302C127.134 65.0234 127.506 65.0809 127.86 65.2002C128.144 65.302 128.406 65.4582 128.63 65.6602C128.818 65.8384 128.974 66.0482 129.09 66.2802C129.187 66.4912 129.245 66.7183 129.26 66.9502C129.263 66.986 129.258 67.022 129.244 67.0551C129.23 67.0882 129.208 67.1175 129.18 67.1402C129.155 67.164 129.125 67.1824 129.092 67.1944C129.059 67.2065 129.025 67.2118 128.99 67.2102H128.82C128.765 67.23 128.705 67.23 128.65 67.2102C128.597 67.1523 128.556 67.0843 128.53 67.0102C128.421 66.6077 128.178 66.2546 127.84 66.0102C127.513 65.8198 127.138 65.7262 126.76 65.7402C126.259 65.7239 125.771 65.9032 125.4 66.2402C125.006 66.6889 124.801 67.2734 124.83 67.8702C124.83 68.1502 124.83 68.4402 124.83 68.7202C124.801 69.3169 125.006 69.9015 125.4 70.3502C125.771 70.6872 126.259 70.8665 126.76 70.8502C127.138 70.8642 127.513 70.7706 127.84 70.5802C128.178 70.3357 128.421 69.9827 128.53 69.5802C128.556 69.5061 128.597 69.438 128.65 69.3802C128.705 69.3603 128.765 69.3603 128.82 69.3802H129C129.035 69.3785 129.069 69.3839 129.102 69.3959C129.135 69.4079 129.165 69.4264 129.19 69.4502C129.218 69.4729 129.24 69.5021 129.254 69.5352C129.268 69.5683 129.273 69.6044 129.27 69.6402C129.258 69.8211 129.221 69.9996 129.16 70.1702C129.085 70.3569 128.984 70.532 128.86 70.6902C128.724 70.8674 128.558 71.0197 128.37 71.1402C128.159 71.2794 127.926 71.3809 127.68 71.4402C127.382 71.5317 127.072 71.5789 126.76 71.5802Z" fill="white"/>
<path d="M131.11 71.4602C131.04 71.4605 130.973 71.4356 130.92 71.3902C130.895 71.3633 130.877 71.3317 130.865 71.2974C130.853 71.263 130.848 71.2265 130.85 71.1902V65.4602C130.848 65.4239 130.853 65.3874 130.865 65.3531C130.877 65.3187 130.895 65.2871 130.92 65.2602C130.945 65.2359 130.975 65.2172 131.008 65.2051C131.04 65.1931 131.075 65.188 131.11 65.1902H131.32C131.355 65.188 131.39 65.1931 131.422 65.2051C131.455 65.2172 131.485 65.2359 131.51 65.2602C131.535 65.2871 131.553 65.3187 131.565 65.3531C131.577 65.3874 131.582 65.4239 131.58 65.4602V67.9002H132.87L134.64 65.3702C134.676 65.3141 134.724 65.2664 134.78 65.2302C134.839 65.214 134.901 65.214 134.96 65.2302H135.2C135.255 65.2132 135.315 65.2132 135.37 65.2302C135.393 65.2432 135.411 65.2623 135.424 65.2852C135.436 65.3082 135.442 65.3342 135.44 65.3602C135.444 65.38 135.444 65.4004 135.44 65.4202C135.442 65.4468 135.442 65.4736 135.44 65.5002L133.57 68.1802L135.67 71.1302C135.708 71.1748 135.729 71.2315 135.73 71.2902C135.732 71.3152 135.727 71.3401 135.717 71.3628C135.706 71.3855 135.69 71.4053 135.67 71.4202C135.614 71.4327 135.556 71.4327 135.5 71.4202H135.19C135.131 71.4339 135.069 71.4339 135.01 71.4202C134.954 71.3879 134.906 71.3435 134.87 71.2902L132.97 68.6302H131.64V71.1902C131.642 71.2265 131.637 71.263 131.625 71.2974C131.613 71.3317 131.595 71.3633 131.57 71.3902C131.517 71.4356 131.45 71.4605 131.38 71.4602H131.11Z" fill="white"/>
<path d="M138.63 71.58C138.263 71.5836 137.9 71.5014 137.57 71.34C137.257 71.1914 136.986 70.9682 136.78 70.69C136.582 70.4284 136.476 70.1082 136.48 69.78C136.474 69.5243 136.531 69.2711 136.646 69.0426C136.762 68.8142 136.931 68.6175 137.14 68.47C137.651 68.116 138.242 67.8959 138.86 67.83L140.77 67.57V67.14C140.78 66.9552 140.75 66.7703 140.683 66.5979C140.616 66.4254 140.512 66.2693 140.38 66.14C140.048 65.9212 139.663 65.7947 139.266 65.7736C138.869 65.7525 138.473 65.8376 138.12 66.02C137.874 66.1648 137.686 66.3912 137.59 66.66C137.578 66.712 137.549 66.7584 137.507 66.7912C137.465 66.824 137.413 66.8413 137.36 66.84H137.16C137.123 66.8449 137.085 66.8402 137.05 66.8262C137.015 66.8122 136.984 66.7894 136.96 66.76C136.92 66.7088 136.898 66.6452 136.9 66.58C136.908 66.4283 136.953 66.2807 137.03 66.15C137.13 65.9622 137.262 65.793 137.42 65.65C137.619 65.4718 137.85 65.3326 138.1 65.24C138.421 65.1246 138.759 65.0671 139.1 65.07C139.499 65.0549 139.897 65.1195 140.27 65.26C140.548 65.3701 140.797 65.5409 141 65.76C141.163 65.9613 141.285 66.1922 141.36 66.44C141.435 66.6795 141.472 66.9291 141.47 67.18V71.18C141.472 71.2164 141.467 71.2528 141.455 71.2872C141.443 71.3215 141.425 71.3531 141.4 71.38C141.347 71.4254 141.28 71.4503 141.21 71.45H141C140.93 71.4503 140.863 71.4254 140.81 71.38C140.785 71.3531 140.767 71.3215 140.755 71.2872C140.743 71.2528 140.738 71.2164 140.74 71.18V70.62C140.469 70.994 140.088 71.2738 139.65 71.42C139.321 71.5291 138.977 71.5832 138.63 71.58ZM138.76 70.88C139.108 70.8809 139.451 70.7986 139.76 70.64C140.071 70.4705 140.325 70.2131 140.49 69.9C140.682 69.5084 140.774 69.0758 140.76 68.64V68.23L139.2 68.45C138.677 68.4927 138.169 68.6461 137.71 68.9C137.563 68.9825 137.439 69.101 137.349 69.2444C137.26 69.3878 137.209 69.5514 137.2 69.72C137.19 69.9583 137.272 70.1914 137.43 70.37C137.589 70.5469 137.793 70.678 138.02 70.75C138.256 70.8397 138.507 70.8838 138.76 70.88Z" fill="white"/>
<path d="M143.46 71.46C143.397 71.4581 143.336 71.4333 143.29 71.39C143.267 71.368 143.249 71.3416 143.237 71.3123C143.225 71.2831 143.219 71.2516 143.22 71.22C143.216 71.1835 143.216 71.1465 143.22 71.11C143.242 71.0637 143.268 71.0201 143.3 70.98L144.79 68.86H145.69L144 71.28C143.96 71.3272 143.913 71.3677 143.86 71.4C143.804 71.4391 143.738 71.4601 143.67 71.46H143.46ZM147.24 71.46C147.17 71.4603 147.103 71.4354 147.05 71.39C147.025 71.3631 147.007 71.3315 146.995 71.2972C146.983 71.2628 146.978 71.2263 146.98 71.19V69.12H145.43V69.06C145.145 69.0836 144.858 69.0458 144.589 68.9492C144.32 68.8526 144.075 68.6994 143.87 68.5C143.532 68.1174 143.353 67.6202 143.37 67.11C143.345 66.8391 143.383 66.5661 143.482 66.3126C143.581 66.0592 143.738 65.8323 143.94 65.65C144.461 65.3014 145.085 65.1393 145.71 65.19H147.45C147.485 65.1878 147.52 65.1928 147.552 65.2049C147.585 65.217 147.615 65.2357 147.64 65.26C147.665 65.2869 147.683 65.3185 147.695 65.3528C147.707 65.3872 147.712 65.4237 147.71 65.46V71.19C147.712 71.2263 147.707 71.2628 147.695 71.2972C147.683 71.3315 147.665 71.3631 147.64 71.39C147.587 71.4354 147.52 71.4603 147.45 71.46H147.24ZM145.48 68.46H147V65.89H145.6C145.206 65.8632 144.813 65.9537 144.47 66.15C144.333 66.2744 144.228 66.4306 144.165 66.605C144.102 66.7794 144.083 66.9666 144.11 67.15C144.098 67.4936 144.216 67.8292 144.44 68.09C144.58 68.216 144.745 68.3106 144.924 68.3675C145.104 68.4244 145.293 68.4423 145.48 68.42V68.46Z" fill="white"/>
<path d="M28.38 10.26C28.422 10.3995 28.4975 10.5265 28.6 10.63C28.6883 10.7069 28.8031 10.7464 28.92 10.74C29.0146 10.7173 29.1027 10.673 29.1773 10.6105C29.2519 10.548 29.311 10.4692 29.35 10.38C29.6193 9.79444 29.648 9.12656 29.43 8.52002L29.36 8.27002L29.23 8.37002C28.81 8.73002 28.13 9.47002 28.38 10.26Z" fill="white"/>
<path d="M13 10.74C13.0564 10.7435 13.1129 10.7355 13.1662 10.7166C13.2195 10.6977 13.2684 10.6683 13.31 10.63C13.4158 10.5274 13.4948 10.4003 13.54 10.26C13.78 9.47002 13.11 8.74002 12.68 8.37002L12.56 8.27002C12.532 8.35199 12.5087 8.43545 12.49 8.52002C12.3771 8.8194 12.326 9.13854 12.3397 9.4582C12.3535 9.77787 12.4318 10.0914 12.57 10.38C12.609 10.4692 12.6681 10.548 12.7427 10.6105C12.8173 10.673 12.9054 10.7173 13 10.74Z" fill="white"/>
<path d="M41.85 12.0001C41.7151 10.8407 41.2733 9.73829 40.5701 8.80662C39.867 7.87495 38.928 7.14777 37.85 6.70009C36.6954 6.12733 35.4239 5.82931 34.135 5.82931C32.8461 5.82931 31.5747 6.12733 30.42 6.70009C30.5 6.94009 30.58 7.18009 30.64 7.41009C30.8378 7.98224 30.9202 8.58792 30.8824 9.19212C30.8447 9.79631 30.6875 10.387 30.42 10.9301C30.2819 11.2059 30.0818 11.4459 29.8355 11.6316C29.5891 11.8172 29.3032 11.9433 29 12.0001C28.7672 12.0181 28.5331 11.9894 28.3115 11.9155C28.09 11.8417 27.8855 11.7242 27.71 11.5701C27.4183 11.2977 27.2043 10.9525 27.09 10.5701C26.69 9.28009 27.25 7.91009 28.66 6.69009C28.8232 6.55145 28.9935 6.42128 29.17 6.30009C28 3.40009 25.23 0.170091 21.22 9.08235e-05C16.93 -0.169909 14 3.19009 12.7 6.28009L13.21 6.67009C14.63 7.89009 15.21 9.26009 14.79 10.5501C14.671 10.9351 14.4498 11.2807 14.15 11.5501C13.9773 11.7054 13.7747 11.8237 13.5545 11.8976C13.3344 11.9716 13.1014 11.9996 12.87 11.9801C12.5597 11.9291 12.2657 11.8056 12.012 11.6197C11.7584 11.4338 11.5521 11.1907 11.41 10.9101C11.142 10.3672 10.9845 9.77644 10.9468 9.17217C10.909 8.56789 10.9917 7.96214 11.19 7.39009C11.25 7.16009 11.33 6.92009 11.41 6.68009C10.2546 6.11681 8.98455 5.82825 7.69915 5.83692C6.41375 5.84559 5.14775 6.15127 4.00001 6.73009C2.92962 7.18049 1.99654 7.90454 1.29444 8.82956C0.592344 9.75457 0.145929 10.848 1.04262e-05 12.0001C-0.17999 14.5601 1.63001 17.3601 4.39001 18.7901L4.72001 18.9101C5.44001 19.1701 6.18001 19.4501 6.23001 20.0401V21.1501C6.2514 21.9647 6.0171 22.7655 5.56001 23.4401C4.23259 24.9295 3.31585 26.7388 2.90001 28.6901C2.83001 29.2101 2.50001 31.6901 3.83001 32.6301C4.05362 32.7937 4.3078 32.9108 4.57749 32.9743C4.84717 33.0379 5.12687 33.0466 5.40001 33.0001C5.77807 32.9458 6.11946 32.7446 6.35001 32.4401C6.46518 32.2194 6.53108 31.9764 6.54317 31.7278C6.55525 31.4792 6.51323 31.2309 6.42001 31.0001C6.31067 30.7184 6.16978 30.45 6.00001 30.2001C5.68001 29.6001 5.43001 29.0501 5.33001 28.8201C5.03942 28.108 4.9428 27.3317 5.05001 26.5701C5.21278 25.7367 5.63656 24.9766 6.26001 24.4001C6.78097 24.0657 7.3815 23.8759 8.00001 23.8501H9.21001C14.2167 23.8216 19.2117 23.3632 24.14 22.4801L26.14 22.0901C29.1928 21.5338 32.2008 20.7551 35.14 19.7601L36.44 19.2501H36.54C36.73 19.1601 36.93 19.0901 37.13 19.0101L37.45 18.8901C40.24 17.3901 42 14.5901 41.85 12.0001Z" fill="white"/>
</g>
<defs>
<clipPath id="clip0_42_1110">
<rect width="193.16" height="73.75" fill="white"/>
</clipPath>
</defs>
</svg>
