<svg width="27" height="29" viewBox="0 0 27 29" fill="none" xmlns="http://www.w3.org/2000/svg">
<path d="M26.1957 13.1934L13.5576 0.555326C13.2317 0.228409 12.7975 0.0321462 12.3368 0.00361383C11.8761 -0.0249186 11.4209 0.116255 11.0572 0.400466C10.8593 0.563458 10.6977 0.766015 10.5827 0.99514C10.4677 1.22427 10.4018 1.4749 10.3894 1.73097C10.3769 1.98703 10.4181 2.24287 10.5104 2.48207C10.6026 2.72127 10.7438 2.93855 10.925 3.11996L22.2562 14.4512C22.2644 14.459 22.271 14.4683 22.2755 14.4787C22.28 14.4891 22.2823 14.5003 22.2823 14.5116C22.2823 14.5229 22.28 14.5341 22.2755 14.5445C22.271 14.5549 22.2644 14.5643 22.2562 14.5721L10.925 25.8655C10.5818 26.2109 10.3891 26.678 10.3891 27.1648C10.3891 27.6517 10.5818 28.1188 10.925 28.4642C11.2703 28.8074 11.7374 29 12.2243 29C12.7112 29 13.1783 28.8074 13.5236 28.4642L26.1957 15.7921C26.5389 15.4467 26.7315 14.9796 26.7315 14.4927C26.7315 14.0059 26.5389 13.5388 26.1957 13.1934Z" fill="white"/>
<path d="M16.3451 14.4929C16.3456 14.2514 16.2981 14.0121 16.2053 13.7891C16.1126 13.566 15.9765 13.3636 15.805 13.1936L3.16686 0.555501C2.84122 0.229601 2.40768 0.0339775 1.94785 0.00545577C1.48803 -0.023066 1.03363 0.117482 0.670214 0.40064C0.472576 0.563694 0.311103 0.766161 0.196101 0.995118C0.0810995 1.22408 0.0150947 1.47449 0.00229983 1.73039C-0.010495 1.98629 0.0302011 2.24204 0.121791 2.48133C0.21338 2.72062 0.353852 2.93818 0.534239 3.12014L11.8655 14.4514C11.8805 14.4679 11.8886 14.4895 11.8881 14.5118C11.8879 14.534 11.8799 14.5554 11.8655 14.5722L0.534239 25.8846C0.232137 26.2366 0.0744824 26.6899 0.0929728 27.1533C0.111463 27.6168 0.304727 28.0561 0.633908 28.3829C0.96309 28.7097 1.40378 28.8997 1.86738 28.9148C2.33098 28.93 2.78311 28.769 3.13287 28.4643L15.805 15.7922C15.9765 15.6222 16.1126 15.4198 16.2053 15.1967C16.2981 14.9737 16.3456 14.7345 16.3451 14.4929Z" fill="white"/>
</svg>
