<svg width="144" height="165" viewBox="0 0 144 165" fill="none" xmlns="http://www.w3.org/2000/svg">
<path d="M57.8051 53.2995C51.6862 47.7905 47.9676 43.6981 47.1019 41.3567C46.4442 39.6023 46.1825 37.7243 46.3356 35.857C46.4887 33.9896 47.0527 32.1791 47.9873 30.5552C47.9873 30.87 48.1053 31.1848 48.184 31.4996C50.6336 39.0776 53.8575 46.3827 57.8051 53.2995Z" fill="#6B3E91"/>
<path d="M72.2268 63.8845C63.8847 53.2994 55.326 33.9195 54.5194 29.9649C54.0326 28.2008 54.0326 26.338 54.5194 24.5739L54.6177 24.1804C55.159 23.891 55.7176 23.6346 56.2901 23.4131C56.8674 23.1851 57.459 22.9944 58.0609 22.8425L58.3953 23.059C59.964 24.0087 61.2431 25.3694 62.0942 26.994C64.1404 30.4371 71.1054 50.4465 72.2268 63.8845Z" fill="#6B3E91"/>
<path d="M75.552 46.2948C73.7004 38.5506 71.0635 31.0154 67.682 23.8063C67.4984 23.5179 67.3213 23.2424 67.1508 22.98C68.9481 23.5206 70.6025 24.4542 71.9945 25.7132C73.3863 26.9724 74.4805 28.5254 75.1978 30.2597C76.1619 32.601 76.2603 38.11 75.552 46.2948Z" fill="#6B3E91"/>
<path d="M102.31 139.968C100.774 140.575 99.0728 140.617 97.5092 140.086C96.8066 139.847 96.1636 139.46 95.6239 138.951C95.0841 138.441 94.6601 137.822 94.3809 137.134L85.8419 115.492C85.5812 114.795 85.4709 114.051 85.5183 113.308C85.5659 112.565 85.7699 111.841 86.1174 111.183C86.8892 109.725 88.1604 108.594 89.6982 107.996C90.5262 107.673 91.4066 107.507 92.2953 107.504C93.4178 107.458 94.528 107.751 95.4823 108.344C96.4365 108.937 97.1905 109.802 97.6469 110.829L106.186 132.471C106.646 133.98 106.498 135.608 105.774 137.009C105.05 138.409 103.807 139.471 102.31 139.968Z" fill="#6B3E91"/>
<path d="M128.733 -0.000244141H26.817C22.7918 0.0101435 18.9345 1.61375 16.0882 4.46002C13.2419 7.30628 11.6383 11.1636 11.6279 15.1888V149.254C11.6383 153.279 13.2419 157.137 16.0882 159.983C18.9345 162.829 22.7918 164.433 26.817 164.443H128.733C132.759 164.433 136.616 162.829 139.462 159.983C142.309 157.137 143.912 153.279 143.922 149.254V15.1888C143.912 11.1636 142.309 7.30628 139.462 4.46002C136.616 1.61375 132.759 0.0101435 128.733 -0.000244141ZM104.395 145.713C102.754 146.359 101.005 146.692 99.2406 146.696C96.9169 146.777 94.6234 146.15 92.6632 144.9C90.703 143.649 89.1684 141.833 88.2619 139.692L79.723 118.05C78.8722 115.54 78.8909 112.816 79.7759 110.318C80.6611 107.819 82.3612 105.692 84.6024 104.277L72.5416 73.7809C67.5442 70.0427 44.3474 52.3549 41.0616 43.993C37.1266 34.1555 43.0291 22.5473 54.1062 18.1794C59.2939 16.0645 65.0783 15.9314 70.3577 17.8056C72.8135 18.6412 75.06 19.9964 76.9445 21.779C78.8289 23.5615 80.3067 25.7295 81.2773 28.135C84.563 36.4968 79.7033 65.242 78.6015 71.4199L90.6229 101.916C93.2356 101.42 95.9395 101.82 98.2964 103.052C100.653 104.284 102.525 106.275 103.608 108.704L112.128 130.347C114.449 136.229 110.967 143.116 104.395 145.713Z" fill="#6B3E91"/>
<path d="M7.43714 25.8528V35.4148H4.78102C3.51301 35.4148 2.29694 34.9111 1.40033 34.0146C0.503713 33.118 0 31.9019 0 30.6338C0 29.3657 0.503713 28.1498 1.40033 27.2531C2.29694 26.3565 3.51301 25.8528 4.78102 25.8528H7.43714Z" fill="#F59F42"/>
<path d="M7.43714 46.3743V55.956H4.78102C4.15081 55.9585 3.52646 55.8346 2.94513 55.5912C2.36377 55.3478 1.83728 54.9901 1.39692 54.5394C0.507937 53.6365 0.0066881 52.4222 0 51.1553C0.00517966 49.8888 0.510556 48.6758 1.40605 47.7802C2.30154 46.8848 3.5146 46.3794 4.78102 46.3743H7.43714Z" fill="#F59F42"/>
<path d="M7.43718 66.895V76.4767H4.78106C4.15085 76.4795 3.5265 76.3553 2.94517 76.1122C2.36381 75.8688 1.83732 75.5111 1.39697 75.0601C0.512703 74.1622 0.0118331 72.9559 4.04872e-05 71.6957C-0.00255009 71.0661 0.119203 70.4424 0.358311 69.86C0.597421 69.2777 0.949176 68.7484 1.39339 68.3024C1.83761 67.8563 2.36554 67.5024 2.94688 67.2608C3.52824 67.0194 4.15156 66.895 4.78106 66.895H7.43718Z" fill="#F59F42"/>
<path d="M7.43711 87.4351V97.0168H4.78099C3.56344 96.9389 2.42129 96.4002 1.58665 95.5103C0.752 94.6204 0.287476 93.446 0.287476 92.2259C0.287476 91.0059 0.752 89.8317 1.58665 88.9418C2.42129 88.0519 3.56344 87.5132 4.78099 87.4351H7.43711Z" fill="#F59F42"/>
<path d="M7.43711 107.976V117.558H4.78099C3.56344 117.48 2.42129 116.941 1.58665 116.051C0.752 115.161 0.287476 113.987 0.287476 112.767C0.287476 111.547 0.752 110.373 1.58665 109.483C2.42129 108.593 3.56344 108.054 4.78099 107.976H7.43711Z" fill="#F59F42"/>
<path d="M7.43711 128.497V138.079H4.78099C3.56344 138.001 2.42129 137.462 1.58665 136.572C0.752 135.682 0.287476 134.508 0.287476 133.288C0.287476 132.068 0.752 130.894 1.58665 130.004C2.42129 129.114 3.56344 128.575 4.78099 128.497H7.43711Z" fill="#F59F42"/>
</svg>
