<svg width="144" height="157" viewBox="0 0 144 157" fill="none" xmlns="http://www.w3.org/2000/svg">
<path d="M143.923 117.506V132.838C143.923 139.2 141.395 145.301 136.897 149.799C132.398 154.298 126.297 156.825 119.935 156.825H23.9871C17.6253 156.825 11.5241 154.298 7.02566 149.799C2.5272 145.301 0 139.2 0 132.838V117.206C0 116.946 0 116.667 0 116.407C3.44952 118.1 7.34718 118.657 11.1328 117.996C14.9184 117.335 18.397 115.491 21.0687 112.729C22.7637 114.488 24.7959 115.886 27.0436 116.842C29.2916 117.797 31.7091 118.29 34.1516 118.29C36.5941 118.29 39.0116 117.797 41.2596 116.842C43.5074 115.886 45.5395 114.488 47.2346 112.729C48.9297 114.488 50.9618 115.886 53.2096 116.842C55.4575 117.797 57.875 118.29 60.3175 118.29C62.76 118.29 65.1775 117.797 67.4255 116.842C69.6733 115.886 71.7054 114.488 73.4005 112.729C75.0956 114.488 77.1277 115.886 79.3755 116.842C81.6235 117.797 84.041 118.29 86.4834 118.29C88.9259 118.29 91.3434 117.797 93.5914 116.842C95.8392 115.886 97.8713 114.488 99.5664 112.729C101.261 114.488 103.294 115.886 105.541 116.842C107.789 117.797 110.207 118.29 112.649 118.29C115.092 118.29 117.509 117.797 119.757 116.842C122.005 115.886 124.037 114.488 125.732 112.729C127.429 114.488 129.463 115.887 131.712 116.842C133.962 117.797 136.381 118.288 138.825 118.286C140.553 118.274 142.27 118.012 143.923 117.506Z" fill="#6B3E91"/>
<path d="M115.758 58.3383V64.595C115.747 68.9866 113.998 73.1953 110.892 76.3009C107.787 79.4062 103.578 81.1554 99.1866 81.166H44.7159C40.3277 81.1502 36.1239 79.3986 33.0228 76.2937C29.9219 73.1889 28.1752 68.9832 28.1648 64.595V58.3383C28.1486 56.2878 28.5218 54.2529 29.2642 52.3416C30.6627 53.7456 32.3246 54.8596 34.1546 55.6196C35.9846 56.3798 37.9467 56.7712 39.9285 56.7712C41.91 56.7712 43.8722 56.3798 45.7022 55.6196C47.5322 54.8596 49.1943 53.7456 50.5927 52.3416C51.9918 53.7516 53.6563 54.8706 55.4901 55.6344C57.3237 56.398 59.2905 56.7912 61.277 56.7912C63.2633 56.7912 65.2301 56.398 67.0639 55.6344C68.8975 54.8706 70.562 53.7516 71.9612 52.3416C73.3647 53.7474 75.0318 54.8626 76.8668 55.6236C78.7018 56.3846 80.6689 56.7762 82.6555 56.7762C84.642 56.7762 86.6089 56.3846 88.4442 55.6236C90.2792 54.8626 91.9461 53.7474 93.3497 52.3416C96.182 55.1624 100.017 56.7464 104.014 56.7464C108.011 56.7464 111.846 55.1624 114.678 52.3416C115.407 54.2561 115.773 56.2896 115.758 58.3383Z" fill="#6B3E91"/>
<path d="M92.2905 16.7808V21.4583C92.2693 24.189 91.1725 26.8012 89.2379 28.7283C87.3032 30.6557 84.6868 31.7423 81.9561 31.7527H61.9668C59.2203 31.7475 56.5877 30.6555 54.6438 28.7154C52.7 26.7752 51.6028 24.1446 51.5924 21.3983V16.7808C53.5625 18.1675 55.9383 18.8592 58.3448 18.747C60.7515 18.6348 63.0524 17.7251 64.8852 16.1611C66.8546 17.8448 69.3604 18.7699 71.9514 18.7699C74.5422 18.7699 77.0481 17.8448 79.0176 16.1611C80.9766 17.857 83.4828 18.7871 86.0738 18.7797C88.302 18.7673 90.4725 18.0694 92.2905 16.7808Z" fill="#6B3E91"/>
<path d="M143.923 110.61V110.91C142.268 111.402 140.551 111.651 138.825 111.65C136.381 111.651 133.962 111.16 131.712 110.205C129.463 109.251 127.429 107.852 125.732 106.093C124.037 107.851 122.005 109.25 119.757 110.206C117.509 111.161 115.092 111.654 112.649 111.654C110.207 111.654 107.789 111.161 105.541 110.206C103.294 109.25 101.261 107.851 99.5664 106.093C97.8713 107.851 95.8392 109.25 93.5914 110.206C91.3434 111.161 88.9259 111.654 86.4834 111.654C84.041 111.654 81.6235 111.161 79.3755 110.206C77.1277 109.25 75.0956 107.851 73.4005 106.093C71.7054 107.851 69.6733 109.25 67.4255 110.206C65.1775 111.161 62.76 111.654 60.3175 111.654C57.875 111.654 55.4575 111.161 53.2096 110.206C50.9618 109.25 48.9297 107.851 47.2346 106.093C45.5395 107.851 43.5074 109.25 41.2596 110.206C39.0116 111.161 36.5941 111.654 34.1516 111.654C31.7091 111.654 29.2916 111.161 27.0436 110.206C24.7959 109.25 22.7637 107.851 21.0687 106.093C18.4017 108.861 14.9254 110.713 11.1395 111.381C7.35372 112.049 3.45354 111.499 0 109.811C0.20752 103.589 2.82604 97.6907 7.30221 93.3638C11.7784 89.0368 17.7615 86.6197 23.9871 86.6231H119.935C120.603 86.6227 121.271 86.6626 121.934 86.743C124.829 86.9733 127.655 87.7393 130.27 89.0018C134.351 90.9503 137.798 94.0127 140.214 97.836C142.63 101.659 143.915 106.088 143.923 110.61Z" fill="#F59F42"/>
<path d="M114.658 46.8843C111.826 49.7052 107.991 51.2891 103.994 51.2891C99.9966 51.2891 96.162 49.7052 93.3298 46.8843C90.4799 49.7016 86.628 51.2715 82.6207 51.2492C78.6135 51.2266 74.7791 49.6134 71.9613 46.7644C70.5618 48.1774 68.8961 49.299 67.0605 50.0646C65.2249 50.83 63.2557 51.2242 61.267 51.2242C59.2783 51.2242 57.3091 50.83 55.4735 50.0646C53.6379 49.299 51.9722 48.1774 50.5728 46.7644C49.1743 48.1684 47.5124 49.2824 45.6824 50.0426C43.8524 50.8026 41.8903 51.194 39.9085 51.194C37.927 51.194 35.9648 50.8026 34.1346 50.0426C32.3046 49.2824 30.6427 48.1684 29.2443 46.7644C30.4478 43.6393 32.5667 40.9503 35.3236 39.0493C38.0805 37.1483 41.3471 36.1239 44.6959 36.1101H99.1666C102.536 36.1279 105.82 37.1671 108.586 39.0909C111.352 41.0145 113.469 43.732 114.658 46.8843Z" fill="#F59F42"/>
<path d="M92.3103 11.1637V11.9633C90.4979 13.2481 88.335 13.9458 86.1136 13.9622C83.5226 13.9696 81.0164 13.0395 79.0574 11.3436C77.0767 13.0222 74.5573 13.9306 71.9612 13.9023C69.3742 13.9063 66.8714 12.9845 64.905 11.3037C63.0722 12.8676 60.7713 13.7774 58.3646 13.8895C55.9579 14.0017 53.5823 13.31 51.6122 11.9233V11.1637C51.607 8.51961 52.6119 5.97332 54.4211 4.04513C56.2305 2.11693 58.7078 0.952357 61.347 0.789332C61.5531 0.771805 61.7603 0.771805 61.9666 0.789332H81.9559C82.1819 0.769442 82.4092 0.769442 82.6355 0.789332C85.2639 0.966985 87.7264 2.13794 89.523 4.0646C91.3198 5.99127 92.3163 8.52932 92.3103 11.1637Z" fill="#F59F42"/>
</svg>
