<svg width="144" height="165" viewBox="0 0 144 165" fill="none" xmlns="http://www.w3.org/2000/svg">
<path d="M118.257 76.3609H130.242C130.725 76.3609 131.188 76.3609 131.651 76.3609V58.2566C131.65 56.9604 131.521 55.6674 131.265 54.3964H19.7448C19.2577 54.4325 18.7685 54.3675 18.3076 54.2059C17.8467 54.0442 17.4241 53.7892 17.0663 53.4569C16.7084 53.1243 16.423 52.7217 16.2278 52.2741C16.0326 51.8263 15.9318 51.3432 15.9318 50.8547C15.9318 50.3664 16.0326 49.8831 16.2278 49.4355C16.423 48.9877 16.7084 48.5851 17.0663 48.2528C17.4241 47.9202 17.8467 47.6652 18.3076 47.5037C18.7685 47.342 19.2577 47.2771 19.7448 47.313H40.7635L52.5563 37.0063H21.231C15.6002 37.0063 10.2 39.2432 6.21842 43.2248C2.23684 47.2063 0 52.6065 0 58.2373V118.997C0 124.627 2.23684 130.028 6.21842 134.009C10.2 137.991 15.6002 140.228 21.231 140.228H110.401C116.032 140.228 121.432 137.991 125.414 134.009C129.395 130.028 131.632 124.627 131.632 118.997V114.268C131.169 114.268 130.706 114.268 130.223 114.268H118.257C115.718 114.349 113.189 113.919 110.82 113.003C108.451 112.088 106.29 110.705 104.465 108.938C102.641 107.171 101.19 105.056 100.199 102.717C99.2089 100.378 98.6984 97.864 98.6984 95.324C98.6984 92.7842 99.2089 90.2701 100.199 87.9314C101.19 85.5927 102.641 83.4769 104.465 81.7097C106.29 79.9427 108.451 78.5602 110.82 77.6448C113.189 76.7291 115.718 76.2991 118.257 76.3802V76.3609ZM128.583 47.4095C126.71 44.2515 124.051 41.6329 120.864 39.8096C117.678 37.9862 114.073 37.0204 110.401 37.0063H102.681L111.617 47.4095H128.583Z" fill="#6B3E91"/>
<path d="M110.729 54.3965H40.725L48.8313 47.4096L60.6435 37.1029L72.224 27.0664C74.4205 25.1646 77.2791 24.2072 80.1781 24.4024C83.0769 24.5975 85.7816 25.9296 87.7034 28.1087L95.5588 37.1029L104.553 47.4096L110.729 54.3965Z" fill="#F59F42"/>
<path d="M131.651 81.8228C131.182 81.7934 130.712 81.7934 130.242 81.8228H118.257C114.642 81.8228 111.177 83.2584 108.621 85.8138C106.066 88.3693 104.63 91.8353 104.63 95.4492C104.63 99.0631 106.066 102.529 108.621 105.085C111.177 107.64 114.642 109.076 118.257 109.076H130.242C130.712 109.105 131.182 109.105 131.651 109.076C135.014 108.74 138.132 107.166 140.399 104.66C142.667 102.155 143.923 98.8962 143.923 95.5168C143.923 92.1374 142.667 88.8786 140.399 86.3732C138.132 83.8675 135.014 82.2939 131.651 81.9579V81.8228ZM114.937 99.5217C114.12 99.5217 113.321 99.2795 112.642 98.8257C111.963 98.3718 111.433 97.7267 111.121 96.9721C110.808 96.2172 110.726 95.3867 110.886 94.5855C111.045 93.7843 111.439 93.0484 112.016 92.4707C112.594 91.893 113.33 91.4997 114.131 91.3402C114.932 91.181 115.763 91.2627 116.517 91.5753C117.272 91.888 117.917 92.4174 118.371 93.0966C118.825 93.7758 119.067 94.5745 119.067 95.3913C119.067 96.4868 118.632 97.5374 117.857 98.3119C117.083 99.0865 116.032 99.5217 114.937 99.5217Z" fill="#6B3E91"/>
</svg>
