<svg width="144" height="165" viewBox="0 0 144 165" fill="none" xmlns="http://www.w3.org/2000/svg">
<path d="M134.767 14.3459C120.886 15.3113 94.1073 19.5394 76.6925 37.5141C65.1085 49.5613 59.6833 65.6439 57.2507 79.1009C55.1738 71.341 51.2375 64.2039 45.7825 58.3075C33.9089 46.0476 15.6832 43.1517 6.22293 42.5144C5.40577 42.4535 4.58497 42.5667 3.81476 42.8464C3.04457 43.1261 2.34247 43.566 1.7549 44.1372C1.16732 44.7083 0.70762 45.3978 0.406168 46.1597C0.104719 46.9217 -0.0316201 47.7388 0.00615953 48.5575C0.334374 58.0371 2.63187 76.3591 14.4862 88.6191C24.9119 99.3922 40.2608 102.925 50.2617 104.064V142.543C50.2617 144.591 51.0753 146.555 52.5236 148.004C53.9719 149.452 55.9362 150.265 57.9843 150.265C60.0325 150.265 61.9969 149.452 63.4452 148.004C64.8933 146.555 65.7071 144.591 65.7071 142.543V105.088C79.8588 104.006 105.691 99.5466 122.681 81.9195C140.057 63.9064 143.455 37.0314 143.919 23.1112C143.954 21.9173 143.739 20.7292 143.286 19.6238C142.834 18.5184 142.154 17.5203 141.292 16.6941C140.429 15.8678 139.403 15.2319 138.279 14.8274C137.155 14.423 135.959 14.2589 134.767 14.3459ZM13.8491 52.9594C18.2796 54.0813 22.4894 55.9415 26.302 58.4618C30.1326 60.9621 33.6241 63.9472 36.6891 67.343C39.7747 70.7087 42.4213 74.4518 44.5662 78.483C46.7472 82.4906 48.2601 86.8272 49.0454 91.322L13.8491 52.9594ZM64.7416 91.322C66.8448 83.8956 70.0395 76.8229 74.2214 70.3354C82.5314 57.2593 93.7678 46.2941 107.043 38.3057C113.646 34.2965 120.801 31.2783 128.28 29.3473L64.7416 91.322Z" fill="#6B3E91"/>
</svg>
