<svg width="198" height="76" viewBox="0 0 198 76" fill="none" xmlns="http://www.w3.org/2000/svg">
<g clip-path="url(#clip0_49_1584)">
<path d="M188.379 30.2869C186.792 30.1922 185.233 30.7333 184.042 31.7918C182.851 32.8503 182.127 34.3399 182.026 35.9345C181.992 36.481 182.034 37.0296 182.152 37.5642L182.211 37.8636L182.489 37.7239C184.299 36.7667 186.351 36.3708 188.385 36.5864C190.153 36.7826 191.842 37.4257 193.295 38.4556L193.547 38.6352L193.652 38.3425C193.844 37.812 193.958 37.2563 193.99 36.6928C194.09 35.0956 193.555 33.5239 192.503 32.3228C191.451 31.1217 189.967 30.3895 188.379 30.2869Z" fill="#F59F42"/>
<path d="M32.1331 30.1539L32.861 61.6781C32.603 62.4098 31.081 63.0085 29.9362 63.0085C28.3613 63.0085 26.4225 62.6958 25.9659 59.8022C25.7608 57.5338 26.0718 35.9079 26.2835 31.012C23.3984 31.2781 20.0501 31.4311 16.9136 31.4909L17.2709 61.698C17.0128 62.4297 15.5967 63.0284 14.4453 63.0284C12.8771 63.0284 11.2559 62.7158 10.839 59.8221C10.6802 57.6136 10.9912 36.8192 11.2029 31.3446C9.10526 31.0319 7.69579 30.4 7.27891 29.615C7.27891 29.615 6.80247 29.4022 6.80247 28.1915C6.76638 27.717 6.90015 27.2452 7.17965 26.8611C7.32422 26.7036 7.50049 26.5788 7.69673 26.4951C7.89297 26.4114 8.10469 26.3706 8.31781 26.3755C13.9596 26.3759 19.5905 25.8773 25.1454 24.8854C25.8799 24.7524 26.5747 24.6127 27.243 24.4796C30.4004 23.8762 33.515 23.0652 36.5667 22.0516L36.7189 21.9918C36.8539 22.2033 36.9712 22.4258 37.0696 22.657C37.4215 23.5017 37.621 24.4027 37.6585 25.3178C37.5791 27.5729 36.5865 29.156 32.1331 30.1539Z" fill="#6B3E91"/>
<path d="M57.5233 56.3032C57.5233 58.4651 55.9021 59.25 54.2809 59.25C51.2436 59.25 49.6489 56.7289 49.1526 53.1501C47.7894 57.6735 44.3882 61.9375 40.5105 61.9375C39.101 61.9375 37.5261 61.0927 36.7916 58.1458C40.4144 57.18 43.5952 54.988 45.7976 51.9394C44.6225 52.692 43.2664 53.1104 41.8736 53.1501C38.3665 53.1501 36.7916 50.15 36.7916 47.0435C36.7916 42.0411 40.8281 37.0654 45.6918 37.0654C46.7045 37.0701 47.7009 37.3219 48.5953 37.7993C49.4898 38.2767 50.2555 38.9654 50.8267 39.806C51.0537 39.5477 51.3377 39.3464 51.656 39.2181C51.9743 39.0899 52.318 39.0384 52.6597 39.0676C53.7305 39.1206 54.7489 39.5489 55.5382 40.2783C54.7019 43.5403 54.2445 46.8886 54.175 50.2564C54.175 53.9417 54.8037 55.0992 57.3711 55.2056C57.4736 55.5623 57.5249 55.9319 57.5233 56.3032ZM44.0176 48.3606C46.3204 48.3606 48.0475 45.5667 49.4636 42.3072C49.0996 41.1497 48.471 40.3581 47.3725 40.3581C45.1161 40.3581 42.7405 43.3582 42.7405 46.671C42.693 47.0643 42.7998 47.4607 43.0382 47.7761C43.2767 48.0915 43.628 48.3012 44.0176 48.3606Z" fill="#6B3E91"/>
<path d="M94.6988 59.1503C94.4341 59.9884 92.8129 60.6736 91.5027 60.6736C88.3661 60.6736 86.7913 58.4119 86.7913 52.4117C86.7913 49.8307 87.2611 48.2542 87.2611 45.6199C87.2611 45.2541 87.1089 45.0412 86.9501 45.0412C85.8516 45.0412 84.8524 48.1477 83.5488 51.4139C82.1327 55.0925 80.4056 58.9374 77.997 58.9374C77.303 58.9138 76.6264 58.7127 76.0312 58.353C75.4361 57.9934 74.942 57.487 74.5957 56.8819C75.1923 53.83 75.5244 50.7318 75.5883 47.6222C75.5883 46.7774 75.6413 44.1498 75.0656 44.1498C73.2326 44.1498 69.7718 59.9352 63.7038 59.9352C62.9796 59.9279 62.2642 59.7753 61.5994 59.4863C60.9347 59.1973 60.3341 58.7777 59.8328 58.2522C60.4085 51.6002 61.1562 45.6133 59.31 40.1453C60.2277 39.2622 61.4412 38.7567 62.7112 38.7284C65.7485 38.7284 66.6352 42.1476 66.6352 46.2519C66.6352 48.201 66.5823 50.2431 66.4764 51.9926C69.1233 45.886 71.1416 39.3071 76.4022 39.3071C79.3866 39.3071 80.9549 41.8881 80.9549 45.5667C80.9549 46.1455 80.9549 46.7774 80.9019 47.4094C82.8408 42.9392 84.9848 39.7794 89.0146 39.7794C91.6615 39.7794 93.2563 41.622 93.2563 44.5157C93.2563 46.9903 92.8394 50.0968 92.8394 52.4982C92.8129 56.4096 93.4945 57.5671 94.6988 59.1503Z" fill="#6B3E91"/>
<path d="M118.051 57.9396C117.945 58.6992 117.556 59.3899 116.963 59.8717C116.369 60.3535 115.616 60.5903 114.855 60.5339C112.976 60.5339 109.779 59.4829 109.779 52.4317V51.4605C108.052 51.5137 105.75 51.5669 103.546 51.7798V52.884C103.546 54.8797 103.599 58.4119 104.439 60.2013C103.198 60.5862 101.913 60.8098 100.615 60.8665C97.531 60.8665 97.0016 58.5516 97.0016 54.128C97.0016 52.2853 97.3721 48.5469 97.3721 44.7086C97.4204 42.8918 97.2807 41.0749 96.9553 39.2872C98.0932 39.0518 99.2485 38.9116 100.409 38.8681C103.235 38.8681 103.917 40.3382 103.917 43.0257C103.917 44.7618 103.811 46.4448 103.705 48.2874C105.644 48.1278 107.788 48.0214 109.938 47.9681C110.037 46.4448 110.143 44.9148 110.143 43.5512C110.181 42.1356 110.041 40.7209 109.726 39.3404C110.506 39.2191 111.293 39.148 112.082 39.1275C115.067 39.1275 116.714 40.3382 116.714 45.0745C116.714 46.498 116.191 49.6046 116.191 52.2321C116.218 55.3586 116.589 56.8819 118.051 57.9396Z" fill="#6B3E91"/>
<path d="M142.812 58.0926C142.744 58.8776 142.383 59.6076 141.801 60.1357C141.219 60.6638 140.46 60.9511 139.676 60.9397C137.995 60.9397 134.647 59.9884 133.806 55.1457C131.768 58.0926 128.89 60.9397 125.436 60.9397C122.293 60.9397 120.46 59.0438 120.46 54.3541C120.46 52.5713 120.618 48.9393 120.618 45.2541C120.667 43.4902 120.528 41.7261 120.201 39.9923C121.479 39.7479 122.773 39.6055 124.073 39.5665C126.792 39.5665 127.421 40.9369 127.421 43.5578C127.421 45.3472 127.11 49.6112 127.11 52.558C127.11 54.3408 127.368 55.6113 128.731 55.6113C129.393 55.6113 130.882 54.9461 133.707 50.5558C133.866 48.3473 134.124 46.0257 134.124 44.0833C134.162 42.7204 134.022 41.3584 133.707 40.0322C134.452 39.9131 135.203 39.842 135.957 39.8193C138.888 39.8193 140.589 40.9236 140.589 45.5534C140.589 46.9237 140.172 50.1367 140.172 52.6113C140.146 55.7244 140.946 56.9883 142.812 58.0926Z" fill="#6B3E91"/>
<path d="M173.371 54.547C173.371 62.3898 173.265 75.9667 162.221 75.9667C161.536 75.9912 160.853 75.8753 160.214 75.6263C159.575 75.3772 158.993 75.0001 158.503 74.5179C158.014 74.0357 157.627 73.4585 157.366 72.8213C157.105 72.1841 156.976 71.5003 156.987 70.8114C156.934 67.1793 162.062 63.5473 167.925 59.443C167.925 58.9707 167.978 58.4984 167.978 57.9729C167.554 58.5093 167.023 58.9501 166.419 59.2664C165.814 59.5828 165.151 59.7676 164.471 59.8088C160.593 59.8088 159.131 57.4407 158.714 54.2876C156.563 57.128 153.42 59.862 149.913 59.862C146.723 59.862 144.784 57.9729 144.784 53.496C144.784 51.813 145.155 48.2874 145.155 44.7086C145.204 43.0127 145.062 41.3167 144.731 39.653C146.044 39.4203 147.37 39.2803 148.702 39.2339C151.534 39.2339 152.216 40.6575 152.216 43.1254C152.216 44.815 151.686 48.9194 151.686 51.813C151.686 53.496 151.951 54.7599 153.314 54.7599C153.976 54.7599 155.776 54.0947 158.707 49.8108C158.813 47.7087 159.071 45.4936 159.071 43.6576C159.11 42.3276 158.969 40.9985 158.654 39.7062C159.434 39.587 160.221 39.5182 161.01 39.5C163.994 39.5 165.774 40.6575 165.774 45.0745C165.774 46.4049 165.146 49.9172 165.146 52.3918C165.146 55.6579 165.88 56.1834 166.608 56.1834C167.336 56.1834 168.183 55.0725 167.931 52.1922C170.565 51.1478 173.371 51.8862 173.371 54.547ZM167.508 63.8134C167.508 63.7069 167.561 63.5473 167.561 63.3411C163.425 66.3877 160.282 68.6627 160.282 70.8646C160.282 71.7094 160.752 72.9201 161.698 72.9201C163.286 72.8336 166.687 70.7249 167.528 63.7801L167.508 63.8134Z" fill="#6B3E91"/>
<path d="M198 58.4119C197.249 58.9419 196.35 59.2191 195.433 59.2035C192.124 59.2035 190.986 55.6313 190.721 53.4694C189.252 57.5205 185.123 60.4142 181.768 60.4142C177.897 60.4142 175.065 57.2611 175.065 52.9439C175.065 45.6798 180.617 38.6286 187.843 38.6286C191.813 38.6286 195.122 41.7351 195.697 43.9968C195.36 46.1658 195.218 48.3611 195.274 50.5558C195.274 52.884 196.69 57.0416 198 58.4119ZM189.914 43.3582C189.813 42.9594 189.587 42.6035 189.271 42.3425C188.954 42.0816 188.562 41.9294 188.154 41.9081C185.328 41.9081 181.768 49.1655 181.768 52.6911C181.768 53.7488 182.139 55.006 182.919 55.006C185.904 54.9861 189.305 46.7242 189.914 43.3582Z" fill="#6B3E91"/>
<path d="M189.001 28.7835C189.234 27.3545 189.161 25.8918 188.787 24.4934C188.412 23.095 187.745 21.793 186.83 20.6747C185.842 19.5092 184.592 18.5971 183.184 18.0138C182.16 17.6082 181.084 17.3485 179.988 17.2422C179.432 17.189 178.334 17.1557 178.393 17.9939C178.41 18.1585 178.487 18.3111 178.609 18.4218C178.731 18.5325 178.89 18.5934 179.055 18.5926C179.624 18.6591 180.193 18.6391 180.762 18.7389C182.307 19.0021 183.769 19.6264 185.03 20.5616C186.308 21.5194 187.333 22.778 188.015 24.2269C188.54 25.3511 188.861 26.561 188.961 27.799C189.014 28.1244 189.027 28.455 189.001 28.7835Z" fill="#F59F42"/>
<path d="M10.5412 75.0022C10.506 75.0034 10.4709 74.9976 10.4379 74.985C10.405 74.9725 10.3748 74.9534 10.3493 74.929C10.3227 74.9034 10.3018 74.8723 10.2881 74.8379C10.2744 74.8034 10.2682 74.7665 10.2699 74.7294V73.1728C10.2677 73.1358 10.2737 73.0987 10.2875 73.0642C10.3012 73.0297 10.3223 72.9986 10.3493 72.9733C10.3735 72.9467 10.4033 72.9257 10.4364 72.9119C10.4696 72.8981 10.5054 72.8918 10.5412 72.8935H10.5875C10.713 72.8822 10.8338 72.8407 10.9398 72.7724C11.0458 72.704 11.1338 72.6109 11.1963 72.501C11.4115 72.1154 11.5466 71.69 11.5933 71.2504C11.7044 70.4907 11.753 69.7231 11.7389 68.9554V67.4521C11.7359 67.4155 11.7409 67.3787 11.7534 67.3442C11.766 67.3098 11.7859 67.2785 11.8117 67.2525C11.8375 67.2265 11.8687 67.2066 11.9029 67.1939C11.9372 67.1813 11.9738 67.1763 12.0102 67.1793H15.5703C15.6057 67.1764 15.6413 67.1814 15.6745 67.1941C15.7077 67.2067 15.7376 67.2267 15.7622 67.2525C15.7892 67.2779 15.8103 67.3089 15.824 67.3434C15.8378 67.3779 15.8438 67.415 15.8416 67.4521V72.8935H16.4438C16.4801 72.8904 16.5167 72.8954 16.551 72.9081C16.5853 72.9207 16.6164 72.9407 16.6423 72.9666C16.6681 72.9926 16.688 73.0239 16.7005 73.0584C16.7131 73.0928 16.7181 73.1296 16.7151 73.1662V74.7294C16.7176 74.766 16.7125 74.8027 16.6999 74.8371C16.6874 74.8715 16.6677 74.9028 16.6423 74.929C16.6157 74.9539 16.5845 74.9733 16.5504 74.9858C16.5163 74.9984 16.48 75.004 16.4438 75.0022H16.232C16.1968 75.0034 16.1617 74.9976 16.1287 74.985C16.0958 74.9725 16.0656 74.9534 16.0401 74.929C16.0135 74.9034 15.9926 74.8723 15.9789 74.8379C15.9652 74.8034 15.959 74.7665 15.9607 74.7294V73.6385H11.0243V74.7294C11.0268 74.766 11.0217 74.8027 11.0091 74.8371C10.9966 74.8715 10.9769 74.9028 10.9515 74.929C10.9249 74.9539 10.8937 74.9733 10.8596 74.9858C10.8255 74.9984 10.7892 75.004 10.753 75.0022H10.5412ZM11.6661 72.9134H15.0806V67.9177H12.4867V69.0885C12.5021 69.9009 12.4311 70.7126 12.2749 71.5098C12.1788 72.0175 11.9708 72.4971 11.6661 72.9134Z" fill="#F59F42"/>
<path d="M20.5927 73.7582C20.0712 73.7795 19.5546 73.6502 19.1038 73.3857C18.7055 73.1453 18.3876 72.7909 18.1907 72.3679C17.9753 71.9191 17.858 71.4292 17.8466 70.9311C17.8466 70.8047 17.8466 70.6317 17.8466 70.4056C17.8466 70.1794 17.8466 70.0064 17.8466 69.8867C17.8563 69.3841 17.9737 68.8895 18.1907 68.4366C18.3897 68.0167 18.7073 67.665 19.1038 67.4254C19.5558 67.164 20.0715 67.0349 20.5927 67.0529C21.1137 67.0367 21.629 67.1656 22.0816 67.4254C22.475 67.6689 22.7916 68.0195 22.9947 68.4366C23.2125 68.8889 23.3277 69.3842 23.3322 69.8867C23.3322 70.0064 23.3322 70.1861 23.3322 70.4056C23.3322 70.6251 23.3322 70.8047 23.3322 70.9311C23.3262 71.4292 23.211 71.9198 22.9947 72.3679C22.7939 72.7883 22.4769 73.1416 22.0816 73.3857C21.6302 73.6485 21.114 73.7777 20.5927 73.7582ZM20.5927 73.0398C20.8533 73.0497 21.1131 73.0051 21.3557 72.909C21.5983 72.8128 21.8184 72.6671 22.0022 72.481C22.3907 72.0349 22.5965 71.4572 22.5779 70.8646C22.5855 70.7117 22.5855 70.5585 22.5779 70.4056C22.5779 70.226 22.5779 70.073 22.5779 69.9466C22.5975 69.3518 22.3917 68.7716 22.0022 68.3235C21.6176 67.9687 21.1147 67.7718 20.5927 67.7718C20.0707 67.7718 19.5678 67.9687 19.1832 68.3235C18.7913 68.7706 18.5831 69.3509 18.6009 69.9466C18.6009 70.073 18.6009 70.226 18.6009 70.4056C18.6009 70.5852 18.6009 70.7448 18.6009 70.8646C18.5791 71.4681 18.7901 72.0568 19.1899 72.5076C19.3751 72.688 19.5951 72.8284 19.8364 72.9199C20.0777 73.0114 20.3351 73.0522 20.5927 73.0398Z" fill="#F59F42"/>
<path d="M25.3108 73.6385C25.2744 73.6415 25.2378 73.6366 25.2035 73.6239C25.1692 73.6113 25.1381 73.5913 25.1123 73.5653C25.0865 73.5394 25.0666 73.5081 25.054 73.4736C25.0414 73.4392 25.0365 73.4024 25.0395 73.3658V67.3789C25.0395 67.347 25.0466 67.3155 25.0603 67.2867C25.0741 67.2579 25.0941 67.2326 25.1189 67.2126C25.1641 67.1709 25.223 67.1472 25.2843 67.1461H25.5689C25.6293 67.1452 25.6887 67.1625 25.7394 67.1956C25.79 67.2288 25.8297 67.2764 25.8534 67.3323L28.143 71.6762L30.4391 67.3656C30.4628 67.3097 30.5025 67.2621 30.5532 67.2289C30.6038 67.1957 30.6632 67.1785 30.7237 67.1793H31.0082C31.0399 67.178 31.0715 67.1832 31.1011 67.1947C31.1307 67.2061 31.1576 67.2235 31.1803 67.2459C31.2042 67.2662 31.2232 67.2917 31.2359 67.3205C31.2485 67.3494 31.2543 67.3807 31.253 67.4122V73.399C31.2552 73.4355 31.2499 73.4721 31.2373 73.5064C31.2248 73.5408 31.2054 73.5722 31.1803 73.5986C31.1537 73.6235 31.1225 73.6429 31.0884 73.6554C31.0543 73.668 31.018 73.6736 30.9817 73.6718H30.7766C30.7403 73.6736 30.7041 73.668 30.67 73.6554C30.6359 73.6429 30.6046 73.6235 30.5781 73.5986C30.553 73.5722 30.5335 73.5408 30.521 73.5064C30.5085 73.4721 30.5031 73.4355 30.5053 73.399V68.0774H30.8626L28.6988 72.2881C28.6567 72.3711 28.6056 72.4492 28.5466 72.521C28.5138 72.5604 28.472 72.5912 28.4247 72.6109C28.3775 72.6306 28.3262 72.6386 28.2753 72.6341H28.0305C27.9796 72.638 27.9285 72.6298 27.8813 72.6102C27.8342 72.5905 27.7923 72.5599 27.7592 72.521C27.7024 72.4475 27.6515 72.3697 27.607 72.2881L25.5093 68.2969H25.8071V73.4057C25.8101 73.4423 25.8051 73.4791 25.7926 73.5135C25.78 73.548 25.7601 73.5793 25.7343 73.6053C25.7085 73.6312 25.6773 73.6512 25.6431 73.6638C25.6088 73.6765 25.5722 73.6815 25.5358 73.6784L25.3108 73.6385Z" fill="#F59F42"/>
<path d="M34.9719 73.7582C34.5938 73.763 34.2199 73.6787 33.8801 73.5121C33.562 73.3583 33.2852 73.1303 33.0728 72.8469C32.8696 72.577 32.7603 72.2474 32.7618 71.909C32.7564 71.6499 32.8138 71.3933 32.9291 71.1615C33.0444 70.9297 33.2141 70.7297 33.4235 70.5785C33.9462 70.2086 34.5545 69.9796 35.1903 69.9133L37.1424 69.6406V69.1816C37.1537 68.9896 37.1235 68.7974 37.0538 68.6182C36.9841 68.4391 36.8766 68.2772 36.7387 68.1439C36.3759 67.8598 35.9197 67.7244 35.4616 67.7647C35.0975 67.7477 34.7365 67.8379 34.4227 68.0241C34.1704 68.1757 33.9785 68.4109 33.8801 68.6893C33.8679 68.7433 33.8375 68.7913 33.794 68.8252C33.7506 68.8592 33.6968 68.877 33.6419 68.8756H33.45C33.4103 68.8802 33.3701 68.8747 33.3331 68.8596C33.2961 68.8445 33.2635 68.8202 33.2382 68.7891C33.1948 68.7343 33.1715 68.6662 33.172 68.5962C33.1842 68.4441 33.2294 68.2965 33.3044 68.1638C33.4055 67.969 33.5424 67.7951 33.708 67.6516C33.9135 67.4655 34.1513 67.3189 34.4094 67.2192C34.7466 67.0971 35.1033 67.0385 35.4616 67.0463C35.8721 67.0334 36.2812 67.1012 36.6659 67.2458C36.9487 67.3573 37.2022 67.5326 37.407 67.7581C37.5819 67.963 37.7106 68.2035 37.7842 68.4632C37.8566 68.7095 37.8945 68.9647 37.8967 69.2215V73.3591C37.8997 73.3957 37.8948 73.4325 37.8822 73.467C37.8696 73.5014 37.8497 73.5327 37.8239 73.5587C37.7981 73.5846 37.767 73.6046 37.7327 73.6172C37.6984 73.6299 37.6618 73.6349 37.6254 73.6318H37.4137C37.3774 73.6336 37.3411 73.6281 37.307 73.6155C37.2729 73.6029 37.2417 73.5836 37.2151 73.5587C37.1669 73.5037 37.1409 73.4324 37.1424 73.3591V72.7737C37.025 72.9434 36.8821 73.0938 36.7189 73.2194C36.5125 73.3877 36.2769 73.5163 36.024 73.5986C35.685 73.712 35.3291 73.766 34.9719 73.7582ZM35.0712 73.0398C35.4324 73.0451 35.7893 72.9606 36.1101 72.7937C36.4302 72.6202 36.6909 72.3535 36.8578 72.0287C37.0612 71.6161 37.1569 71.1583 37.1357 70.6983V70.2725L35.541 70.4987C35.002 70.5462 34.4789 70.7071 34.0058 70.971C33.8757 71.0437 33.7635 71.1449 33.6776 71.2671C33.5917 71.3893 33.5342 71.5294 33.5094 71.677C33.4846 71.8245 33.4932 71.9758 33.5344 72.1196C33.5757 72.2634 33.6486 72.396 33.7477 72.5076C33.9133 72.6847 34.1203 72.8174 34.3499 72.8935C34.5797 72.9851 34.824 73.0347 35.0712 73.0398Z" fill="#F59F42"/>
<path d="M40.14 73.6385C40.1036 73.6415 40.067 73.6365 40.0327 73.6239C39.9984 73.6113 39.9673 73.5913 39.9414 73.5653C39.9156 73.5394 39.8957 73.5081 39.8832 73.4736C39.8706 73.4391 39.8656 73.4023 39.8687 73.3658V67.4521C39.8669 67.4156 39.8724 67.3791 39.8849 67.3449C39.8974 67.3106 39.9166 67.2792 39.9414 67.2525C39.9678 67.2272 39.999 67.2077 40.0331 67.1951C40.0673 67.1825 40.1036 67.1772 40.14 67.1793H40.3649C40.4013 67.1772 40.4376 67.1825 40.4718 67.1951C40.5059 67.2077 40.5371 67.2272 40.5635 67.2525C40.5883 67.2792 40.6075 67.3106 40.62 67.3449C40.6325 67.3791 40.638 67.4156 40.6362 67.4521V72.9134H43.2831V67.4521C43.2801 67.4155 43.2851 67.3787 43.2976 67.3442C43.3102 67.3098 43.3301 67.2785 43.3559 67.2525C43.3817 67.2265 43.4129 67.2066 43.4472 67.1939C43.4814 67.1813 43.518 67.1763 43.5544 67.1793H43.7662C43.8016 67.1764 43.8372 67.1814 43.8704 67.1941C43.9036 67.2067 43.9335 67.2267 43.9581 67.2525C43.9851 67.2779 44.0062 67.3089 44.0199 67.3434C44.0337 67.3779 44.0397 67.415 44.0375 67.4521V72.9134H46.6844V67.4521C46.6814 67.4155 46.6863 67.3787 46.6989 67.3442C46.7115 67.3098 46.7314 67.2785 46.7572 67.2525C46.783 67.2265 46.8141 67.2066 46.8484 67.1939C46.8827 67.1813 46.9193 67.1763 46.9557 67.1793H47.1608C47.1972 67.1763 47.2338 67.1813 47.2681 67.1939C47.3024 67.2066 47.3335 67.2265 47.3593 67.2525C47.3851 67.2785 47.405 67.3098 47.4176 67.3442C47.4302 67.3787 47.4351 67.4155 47.4321 67.4521V73.3658C47.4343 73.4023 47.4289 73.4388 47.4164 73.4732C47.4039 73.5075 47.3845 73.5389 47.3593 73.5653C47.3328 73.5903 47.3016 73.6096 47.2675 73.6222C47.2334 73.6347 47.1971 73.6403 47.1608 73.6385H40.14Z" fill="#F59F42"/>
<path d="M49.629 73.6385C49.5926 73.6415 49.556 73.6365 49.5218 73.6239C49.4875 73.6113 49.4563 73.5913 49.4305 73.5653C49.4047 73.5394 49.3848 73.5081 49.3722 73.4736C49.3597 73.4391 49.3547 73.4023 49.3577 73.3658V67.4521C49.356 67.4156 49.3615 67.3791 49.374 67.3449C49.3865 67.3106 49.4057 67.2792 49.4305 67.2525C49.4574 67.2284 49.4888 67.2101 49.523 67.1987C49.5571 67.1872 49.5932 67.1829 49.629 67.186H49.8408C49.8771 67.1838 49.9135 67.1892 49.9476 67.2018C49.9818 67.2144 50.013 67.2339 50.0393 67.2591C50.0641 67.2858 50.0833 67.3172 50.0958 67.3515C50.1083 67.3858 50.1139 67.4222 50.1121 67.4587V69.9798H53.9633V67.4521C53.9611 67.415 53.9671 67.3779 53.9809 67.3434C53.9946 67.3089 54.0157 67.2778 54.0427 67.2525C54.071 67.2244 54.1057 67.2037 54.1437 67.1921C54.1818 67.1805 54.222 67.1784 54.2611 67.186H54.4662C54.5026 67.1829 54.5392 67.1879 54.5735 67.2006C54.6078 67.2132 54.6389 67.2332 54.6647 67.2591C54.6905 67.2851 54.7104 67.3164 54.723 67.3509C54.7356 67.3853 54.7405 67.4221 54.7375 67.4587V73.3724C54.7397 73.4089 54.7343 73.4455 54.7218 73.4798C54.7093 73.5141 54.6899 73.5455 54.6647 73.572C54.6382 73.5969 54.6069 73.6162 54.5728 73.6288C54.5387 73.6414 54.5025 73.6469 54.4662 73.6451H54.2611C54.2244 73.648 54.1876 73.643 54.153 73.6304C54.1184 73.6178 54.0869 73.598 54.0606 73.5721C54.0343 73.5463 54.0137 73.5151 54.0004 73.4807C53.987 73.4462 53.9812 73.4093 53.9832 73.3724V70.7116H50.1253V73.3724C50.1283 73.409 50.1234 73.4458 50.1108 73.4802C50.0982 73.5147 50.0783 73.546 50.0525 73.572C50.0267 73.5979 49.9956 73.6179 49.9613 73.6305C49.927 73.6432 49.8904 73.6482 49.854 73.6451L49.629 73.6385Z" fill="#F59F42"/>
<path d="M56.7822 73.6385C56.7176 73.6372 56.656 73.611 56.6102 73.5653C56.5643 73.5168 56.5383 73.4527 56.5374 73.3857C56.5317 73.3505 56.5317 73.3145 56.5374 73.2793C56.5551 73.2282 56.582 73.1808 56.6168 73.1396L58.1387 70.9511H59.0651L57.3182 73.4522C57.2776 73.4984 57.2309 73.5387 57.1792 73.572C57.1247 73.6156 57.057 73.639 56.9873 73.6385H56.7822ZM60.6665 73.6385C60.6302 73.6403 60.594 73.6347 60.5599 73.6222C60.5258 73.6096 60.4945 73.5903 60.468 73.5653C60.4429 73.5389 60.4234 73.5075 60.4109 73.4732C60.3984 73.4388 60.393 73.4023 60.3952 73.3658V71.2238H58.8137V71.1772C58.52 71.2034 58.2241 71.1653 57.9465 71.0654C57.6689 70.9654 57.4161 70.8062 57.2057 70.5985C56.8627 70.2033 56.6808 69.6925 56.6962 69.1683C56.6704 68.8895 56.7096 68.6084 56.8107 68.3475C56.9118 68.0865 57.0719 67.8528 57.2785 67.6649C57.8146 67.3053 58.456 67.1389 59.0982 67.1926H60.8783C60.9147 67.1891 60.9514 67.1939 60.9858 67.2066C61.0201 67.2192 61.0512 67.2395 61.0768 67.2658C61.1038 67.2912 61.1249 67.3222 61.1386 67.3567C61.1524 67.3912 61.1583 67.4283 61.1562 67.4654V73.3791C61.1582 73.416 61.1523 73.4529 61.139 73.4874C61.1256 73.5218 61.1051 73.553 61.0788 73.5788C61.0524 73.6046 61.0209 73.6245 60.9864 73.6371C60.9518 73.6497 60.9149 73.6547 60.8783 73.6518L60.6665 73.6385ZM58.8931 70.512H60.4283V67.9044H58.9857C58.5789 67.8728 58.1722 67.9681 57.8211 68.1771C57.6859 68.2998 57.5817 68.4531 57.5173 68.6243C57.4528 68.7955 57.43 68.9797 57.4505 69.1616C57.4368 69.5158 57.5602 69.8615 57.7946 70.1262C57.9364 70.2704 58.1091 70.3801 58.2994 70.447C58.4898 70.5138 58.6929 70.5361 58.8931 70.512Z" fill="#F59F42"/>
<path d="M63.2009 73.6385C63.1342 73.6385 63.0703 73.6119 63.0231 73.5645C62.9759 73.5171 62.9495 73.4528 62.9495 73.3857C62.9438 73.3505 62.9438 73.3145 62.9495 73.2793C62.9671 73.2282 62.9941 73.1809 63.0289 73.1396L64.5508 70.9511H65.5103L63.77 73.4522C63.727 73.4986 63.6781 73.5388 63.6244 73.572C63.5699 73.6156 63.5022 73.6391 63.4325 73.6385H63.2009ZM67.0786 73.6385C67.0423 73.6403 67.006 73.6347 66.9719 73.6222C66.9378 73.6096 66.9066 73.5903 66.8801 73.5653C66.8318 73.5103 66.8058 73.4391 66.8073 73.3658V71.2238H65.2258V71.1772C64.9321 71.2034 64.6362 71.1653 64.3586 71.0654C64.081 70.9654 63.8282 70.8062 63.6178 70.5985C63.2748 70.2033 63.0929 69.6925 63.1083 69.1683C63.084 68.8896 63.124 68.609 63.225 68.3483C63.3259 68.0876 63.4853 67.8538 63.6906 67.6649C64.2258 67.303 64.8673 67.1342 65.5103 67.186H67.2903C67.3267 67.1838 67.363 67.1892 67.3972 67.2018C67.4313 67.2144 67.4625 67.2339 67.4889 67.2592C67.5137 67.2858 67.5329 67.3172 67.5454 67.3515C67.5579 67.3858 67.5634 67.4223 67.5616 67.4587V73.3724C67.5647 73.409 67.5597 73.4458 67.5471 73.4803C67.5346 73.5147 67.5147 73.546 67.4889 73.572C67.463 73.5979 67.4319 73.6179 67.3976 73.6306C67.3633 73.6432 67.3267 73.6482 67.2903 73.6452L67.0786 73.6385ZM65.2721 70.512H66.8338V67.9044H65.3978C64.991 67.8728 64.5843 67.9681 64.2332 68.1771C64.098 68.2998 63.9938 68.4531 63.9294 68.6243C63.8649 68.7955 63.842 68.9798 63.8626 69.1617C63.8489 69.5158 63.9723 69.8615 64.2067 70.1262C64.3448 70.2657 64.5121 70.3727 64.6963 70.4395C64.8805 70.5062 65.0772 70.531 65.2721 70.512Z" fill="#F59F42"/>
<path d="M73.0208 73.6385C72.9844 73.6415 72.9478 73.6365 72.9135 73.6239C72.8793 73.6113 72.8481 73.5913 72.8223 73.5653C72.7965 73.5394 72.7766 73.5081 72.764 73.4736C72.7515 73.4391 72.7465 73.4023 72.7495 73.3658V67.4521C72.7477 67.4156 72.7533 67.3791 72.7658 67.3449C72.7783 67.3106 72.7975 67.2792 72.8223 67.2525C72.8486 67.2272 72.8798 67.2077 72.914 67.1951C72.9481 67.1825 72.9845 67.1772 73.0208 67.1793H73.2326C73.2689 67.1772 73.3053 67.1825 73.3394 67.1951C73.3736 67.2077 73.4048 67.2272 73.4311 67.2525C73.4559 67.2792 73.4751 67.3106 73.4876 67.3449C73.5001 67.3791 73.5056 67.4156 73.5039 67.4521V69.9732H74.8273L76.6404 67.3656C76.6762 67.3077 76.7235 67.2578 76.7794 67.2192C76.8369 67.1906 76.9006 67.1769 76.9647 67.1793H77.2095C77.2716 67.1751 77.3337 67.189 77.3882 67.2192C77.4051 67.2275 77.4202 67.2393 77.4322 67.2538C77.4443 67.2684 77.4531 67.2854 77.4581 67.3036C77.4631 67.3219 77.4642 67.341 77.4613 67.3597C77.4583 67.3785 77.4515 67.3963 77.4411 67.4122L77.3948 67.4986L75.4824 70.2592L77.633 73.2992C77.6711 73.3462 77.6921 73.4049 77.6926 73.4655C77.6939 73.4899 77.6892 73.5143 77.6788 73.5364C77.6684 73.5584 77.6526 73.5775 77.633 73.5919C77.5827 73.627 77.5219 73.6434 77.461 73.6385H77.1367C77.0718 73.6412 77.0074 73.6251 76.9514 73.5919C76.8988 73.5574 76.8519 73.5148 76.8125 73.4655L74.8273 70.7182H73.5039V73.3791C73.5069 73.4156 73.5019 73.4525 73.4894 73.4869C73.4768 73.5214 73.4569 73.5527 73.4311 73.5786C73.4053 73.6046 73.3741 73.6246 73.3398 73.6372C73.3056 73.6498 73.269 73.6548 73.2326 73.6518L73.0208 73.6385Z" fill="#F59F42"/>
<path d="M81.1402 73.7582C80.6187 73.7788 80.1023 73.6496 79.6513 73.3857C79.256 73.1416 78.939 72.7883 78.7381 72.3679C78.5219 71.9198 78.4066 71.4292 78.4006 70.9311C78.4006 70.8047 78.4006 70.6317 78.4006 70.4056C78.4006 70.1794 78.4006 70.0064 78.4006 69.8867C78.4051 69.3842 78.5204 68.8889 78.7381 68.4366C78.9412 68.0195 79.2579 67.6689 79.6513 67.4254C80.1098 67.1808 80.621 67.0529 81.1402 67.0529C81.6593 67.0529 82.1705 67.1808 82.629 67.4254C83.0241 67.6668 83.3412 68.018 83.5422 68.4366C83.7592 68.8895 83.8766 69.3841 83.8863 69.8867C83.8863 70.0064 83.8863 70.1861 83.8863 70.4056C83.8863 70.6251 83.8863 70.8047 83.8863 70.9311C83.8749 71.4292 83.7576 71.9191 83.5422 72.3679C83.3433 72.7896 83.0258 73.1434 82.629 73.3857C82.1783 73.6502 81.6617 73.7795 81.1402 73.7582ZM81.1402 73.0398C81.4008 73.0497 81.6606 73.0051 81.9032 72.909C82.1458 72.8128 82.3659 72.6671 82.5496 72.481C82.9406 72.0359 83.1487 71.4581 83.1319 70.8646C83.1319 70.7448 83.1319 70.5918 83.1319 70.4056C83.1319 70.2193 83.1319 70.073 83.1319 69.9466C83.1498 69.3509 82.9416 68.7706 82.5496 68.3235C82.1651 67.9687 81.6621 67.7718 81.1402 67.7718C80.6182 67.7718 80.1152 67.9687 79.7307 68.3235C79.3387 68.7706 79.1305 69.3509 79.1484 69.9466C79.1484 70.073 79.1484 70.226 79.1484 70.4056C79.1484 70.5852 79.1484 70.7448 79.1484 70.8646C79.1316 71.4581 79.3397 72.0359 79.7307 72.481C79.9144 72.6671 80.1345 72.8128 80.3771 72.909C80.6197 73.0051 80.8796 73.0497 81.1402 73.0398Z" fill="#F59F42"/>
<path d="M85.8582 73.6385C85.823 73.6398 85.7879 73.6339 85.7549 73.6214C85.7219 73.6088 85.6918 73.5897 85.6663 73.5653C85.6403 73.5392 85.6199 73.508 85.6062 73.4737C85.5926 73.4394 85.586 73.4027 85.5869 73.3658V67.4521C85.5847 67.415 85.5907 67.3779 85.6044 67.3434C85.6182 67.3089 85.6393 67.2779 85.6663 67.2525C85.6908 67.2267 85.7208 67.2067 85.754 67.1941C85.7872 67.1814 85.8228 67.1764 85.8582 67.1793H86.07C86.1063 67.1763 86.1429 67.1813 86.1772 67.1939C86.2115 67.2066 86.2426 67.2265 86.2685 67.2525C86.2943 67.2785 86.3142 67.3098 86.3267 67.3442C86.3393 67.3787 86.3443 67.4155 86.3412 67.4521V69.9732H90.1991V67.4521C90.1973 67.4156 90.2028 67.3791 90.2153 67.3449C90.2279 67.3106 90.2471 67.2792 90.2719 67.2525C90.2982 67.2272 90.3294 67.2077 90.3635 67.1951C90.3977 67.1825 90.4341 67.1772 90.4704 67.1793H90.6557C90.692 67.1772 90.7284 67.1825 90.7625 67.1951C90.7967 67.2077 90.8279 67.2272 90.8542 67.2525C90.879 67.2792 90.8982 67.3106 90.9107 67.3449C90.9232 67.3791 90.9287 67.4156 90.927 67.4521V73.3658C90.93 73.4023 90.925 73.4391 90.9125 73.4736C90.8999 73.5081 90.88 73.5394 90.8542 73.5653C90.8284 73.5913 90.7972 73.6113 90.763 73.6239C90.7287 73.6365 90.6921 73.6415 90.6557 73.6385H90.4439C90.4075 73.6415 90.3709 73.6365 90.3366 73.6239C90.3024 73.6113 90.2712 73.5913 90.2454 73.5653C90.2196 73.5394 90.1997 73.5081 90.1871 73.4736C90.1746 73.4391 90.1696 73.4023 90.1726 73.3658V70.7049H86.3148V73.3658C86.3169 73.4023 86.3116 73.4388 86.2991 73.4732C86.2865 73.5075 86.2671 73.5389 86.242 73.5653C86.2155 73.5903 86.1842 73.6096 86.1501 73.6222C86.116 73.6347 86.0798 73.6403 86.0435 73.6385H85.8582Z" fill="#F59F42"/>
<path d="M92.4754 75.0022C92.4391 75.004 92.4029 74.9984 92.3688 74.9858C92.3347 74.9733 92.3034 74.954 92.2769 74.929C92.2502 74.9034 92.2294 74.8723 92.2157 74.8379C92.202 74.8035 92.1958 74.7665 92.1975 74.7295V73.1729C92.1966 73.1359 92.2031 73.0992 92.2168 73.0649C92.2304 73.0306 92.2509 72.9994 92.2769 72.9733C92.3029 72.9472 92.3339 72.9266 92.368 72.9129C92.4021 72.8992 92.4387 72.8926 92.4754 72.8935H92.5085C92.6341 72.8828 92.7552 72.8415 92.8613 72.7731C92.9674 72.7047 93.0552 72.6113 93.1173 72.501C93.3324 72.1155 93.4675 71.69 93.5143 71.2504C93.6253 70.4907 93.674 69.7232 93.6599 68.9555V67.4521C93.6569 67.4128 93.6631 67.3734 93.678 67.3369C93.6929 67.3005 93.716 67.2681 93.7456 67.2422C93.7752 67.2164 93.8104 67.1978 93.8483 67.1881C93.8863 67.1783 93.926 67.1776 93.9643 67.186H97.5243C97.5607 67.1838 97.597 67.1892 97.6312 67.2018C97.6653 67.2144 97.6965 67.2339 97.7228 67.2592C97.7476 67.2858 97.7669 67.3172 97.7794 67.3515C97.7919 67.3858 97.7974 67.4223 97.7956 67.4587V72.9001H98.3978C98.4342 72.8971 98.4708 72.9021 98.5051 72.9147C98.5394 72.9274 98.5705 72.9474 98.5963 72.9733C98.6221 72.9993 98.642 73.0306 98.6546 73.065C98.6672 73.0995 98.6721 73.1363 98.6691 73.1729V74.7361C98.6717 74.7727 98.6665 74.8093 98.654 74.8437C98.6414 74.8781 98.6218 74.9095 98.5963 74.9357C98.5698 74.9606 98.5385 74.9799 98.5044 74.9925C98.4703 75.0051 98.4341 75.0106 98.3978 75.0088H98.1927C98.1564 75.0106 98.1201 75.0051 98.086 74.9925C98.0519 74.9799 98.0207 74.9606 97.9942 74.9357C97.9675 74.91 97.9466 74.879 97.9329 74.8445C97.9192 74.8101 97.913 74.7731 97.9147 74.7361V73.6385H92.9849V74.7295C92.9875 74.766 92.9823 74.8027 92.9698 74.8371C92.9573 74.8715 92.9376 74.9028 92.9121 74.929C92.8856 74.954 92.8544 74.9733 92.8203 74.9858C92.7862 74.9984 92.7499 75.004 92.7136 75.0022H92.4754ZM93.5937 72.9134H97.0082V67.9177H94.4142V69.0885C94.4297 69.9009 94.3587 70.7126 94.2025 71.5099C94.1064 72.0176 93.8984 72.4972 93.5937 72.9134Z" fill="#F59F42"/>
<path d="M100.317 73.6385C100.252 73.6372 100.191 73.611 100.145 73.5653C100.099 73.5168 100.073 73.4527 100.072 73.3857V67.4521C100.07 67.4156 100.076 67.3791 100.088 67.3449C100.101 67.3106 100.12 67.2792 100.145 67.2525C100.171 67.2272 100.202 67.2077 100.236 67.1951C100.271 67.1825 100.307 67.1772 100.343 67.1793H100.581C100.618 67.1772 100.654 67.1825 100.688 67.1951C100.722 67.2077 100.754 67.2272 100.78 67.2525C100.805 67.2792 100.824 67.3106 100.837 67.3449C100.849 67.3791 100.855 67.4156 100.853 67.4521V73.0265L100.628 72.6673L104.658 67.3456C104.697 67.2964 104.741 67.2518 104.79 67.2126C104.845 67.1716 104.914 67.1527 104.982 67.1594H105.214C105.245 67.158 105.277 67.1632 105.306 67.1747C105.336 67.1861 105.363 67.2036 105.386 67.2259C105.41 67.2462 105.429 67.2717 105.441 67.3005C105.454 67.3294 105.46 67.3607 105.458 67.3922V73.3791C105.461 73.4156 105.455 73.4521 105.443 73.4865C105.43 73.5208 105.411 73.5522 105.386 73.5786C105.359 73.6036 105.328 73.6229 105.294 73.6355C105.26 73.648 105.223 73.6536 105.187 73.6518H104.982C104.946 73.6536 104.909 73.648 104.875 73.6355C104.841 73.6229 104.81 73.6036 104.783 73.5786C104.758 73.5522 104.739 73.5208 104.726 73.4865C104.714 73.4521 104.708 73.4156 104.711 73.3791V68.1705L104.969 68.1106L100.899 73.4323C100.863 73.4754 100.823 73.5155 100.78 73.552C100.724 73.5982 100.654 73.6219 100.581 73.6185L100.317 73.6385Z" fill="#F59F42"/>
<path d="M109.402 73.6385C109.366 73.6403 109.33 73.6347 109.296 73.6221C109.261 73.6096 109.23 73.5902 109.204 73.5653C109.155 73.5103 109.129 73.4391 109.131 73.3658V67.8977H106.868C106.831 67.9008 106.795 67.8958 106.761 67.8831C106.726 67.8705 106.695 67.8505 106.669 67.8246C106.644 67.7986 106.624 67.7673 106.611 67.7329C106.598 67.6984 106.594 67.6616 106.597 67.625V67.4521C106.595 67.4156 106.6 67.3791 106.613 67.3449C106.625 67.3106 106.645 67.2792 106.669 67.2525C106.696 67.2272 106.727 67.2077 106.761 67.1951C106.795 67.1825 106.832 67.1771 106.868 67.1793H112.162C112.197 67.1764 112.233 67.1814 112.266 67.1941C112.299 67.2067 112.329 67.2267 112.353 67.2525C112.381 67.2778 112.402 67.3089 112.415 67.3434C112.429 67.3779 112.435 67.415 112.433 67.4521V67.625C112.434 67.6619 112.427 67.6987 112.414 67.733C112.4 67.7673 112.379 67.7984 112.353 67.8246C112.328 67.849 112.298 67.868 112.265 67.8806C112.232 67.8932 112.197 67.899 112.162 67.8977H109.899V73.3658C109.902 73.4023 109.897 73.4391 109.884 73.4736C109.871 73.5081 109.852 73.5394 109.826 73.5653C109.8 73.5913 109.769 73.6113 109.734 73.6239C109.7 73.6365 109.664 73.6415 109.627 73.6385H109.402Z" fill="#F59F42"/>
<path d="M115.967 73.7582C115.611 73.7753 115.256 73.7139 114.927 73.5783C114.598 73.4426 114.302 73.2361 114.061 72.9733C113.571 72.3935 113.289 71.6648 113.26 70.9045C113.26 70.7781 113.26 70.6118 113.26 70.4056C113.26 70.1994 113.26 70.0331 113.26 69.9133C113.289 69.3931 113.422 68.8841 113.65 68.4166C113.86 68.0039 114.178 67.6566 114.57 67.4121C115.009 67.1681 115.502 67.0401 116.003 67.0401C116.504 67.0401 116.997 67.1681 117.436 67.4121C117.848 67.6802 118.172 68.0643 118.369 68.5164C118.598 69.0584 118.709 69.6438 118.693 70.2326V70.4189C118.694 70.4558 118.687 70.4925 118.673 70.5269C118.66 70.5612 118.639 70.5923 118.613 70.6184C118.557 70.668 118.483 70.6941 118.408 70.6916H114.008V70.818C114.025 71.1848 114.115 71.5443 114.273 71.8757C114.416 72.2031 114.645 72.4857 114.934 72.6939C115.232 72.9106 115.592 73.0228 115.96 73.0132C116.261 73.023 116.561 72.9685 116.84 72.8535C117.045 72.7665 117.235 72.6475 117.402 72.501C117.503 72.4136 117.594 72.3155 117.674 72.2083C117.718 72.1333 117.776 72.0677 117.846 72.0154C117.911 72.0018 117.979 72.0018 118.044 72.0154H118.243C118.312 72.0159 118.38 72.0392 118.435 72.0819C118.46 72.1039 118.479 72.1318 118.491 72.1632C118.502 72.1946 118.506 72.2284 118.501 72.2615C118.476 72.4201 118.41 72.5693 118.309 72.6939C118.167 72.8866 117.998 73.057 117.806 73.1994C117.562 73.3753 117.291 73.5121 117.005 73.6052C116.67 73.7126 116.319 73.7643 115.967 73.7582ZM113.981 70.0198H117.912V69.9732C117.92 69.5879 117.841 69.2058 117.68 68.8556C117.537 68.5351 117.308 68.2609 117.019 68.064C116.702 67.8642 116.334 67.7624 115.96 67.7714C115.586 67.7608 115.217 67.8627 114.901 68.064C114.611 68.2598 114.381 68.5343 114.239 68.8556C114.083 69.2069 114.004 69.5882 114.008 69.9732L113.981 70.0198Z" fill="#F59F42"/>
<path d="M120.612 76C120.575 76.0022 120.538 75.9961 120.504 75.9823C120.469 75.9686 120.438 75.9473 120.413 75.9202C120.387 75.8945 120.367 75.8632 120.354 75.8287C120.342 75.7942 120.337 75.7572 120.34 75.7206V67.4521C120.337 67.4155 120.342 67.3787 120.355 67.3442C120.368 67.3098 120.387 67.2785 120.413 67.2525C120.439 67.2266 120.47 67.2066 120.504 67.1939C120.539 67.1813 120.575 67.1763 120.612 67.1793H120.817C120.853 67.1763 120.89 67.1813 120.924 67.1939C120.958 67.2066 120.99 67.2266 121.015 67.2525C121.041 67.2785 121.061 67.3098 121.074 67.3442C121.086 67.3787 121.091 67.4155 121.088 67.4521V68.0375C121.305 67.7453 121.583 67.5046 121.902 67.3323C122.293 67.1325 122.728 67.0364 123.166 67.053C123.588 67.04 124.007 67.1266 124.39 67.3057C124.704 67.4627 124.978 67.6903 125.191 67.9709C125.402 68.2541 125.559 68.5744 125.654 68.9155C125.754 69.264 125.807 69.6241 125.813 69.9865C125.813 70.1063 125.813 70.2459 125.813 70.3923C125.813 70.5386 125.813 70.6783 125.813 70.8047C125.807 71.165 125.754 71.5229 125.654 71.8691C125.561 72.2106 125.404 72.5312 125.191 72.8136C124.982 73.0976 124.707 73.326 124.39 73.4789C124.008 73.6601 123.588 73.7468 123.166 73.7316C122.727 73.7495 122.291 73.6509 121.902 73.4456C121.589 73.2816 121.312 73.0553 121.088 72.7804V75.7206C121.092 75.7572 121.087 75.7942 121.074 75.8287C121.062 75.8632 121.042 75.8945 121.015 75.9202C120.99 75.9473 120.959 75.9686 120.925 75.9823C120.891 75.9961 120.854 76.0022 120.817 76H120.612ZM123.08 73.0398C123.488 73.0616 123.892 72.9495 124.231 72.7205C124.51 72.5042 124.719 72.2105 124.834 71.8757C124.958 71.5157 125.03 71.1391 125.045 70.7582C125.045 70.5231 125.045 70.2903 125.045 70.0597C125.031 69.6786 124.96 69.3018 124.834 68.9421C124.721 68.6065 124.511 68.3123 124.231 68.0973C123.893 67.866 123.489 67.7515 123.08 67.7714C122.673 67.7523 122.272 67.8719 121.942 68.1106C121.649 68.3243 121.421 68.6141 121.28 68.9488C121.146 69.2701 121.068 69.6121 121.048 69.9599C121.048 70.0863 121.048 70.2459 121.048 70.4455C121.048 70.6451 121.048 70.8047 121.048 70.9311C121.062 71.2691 121.14 71.6013 121.28 71.909C121.427 72.2326 121.655 72.5123 121.942 72.7205C122.277 72.9481 122.676 73.0601 123.08 73.0398Z" fill="#F59F42"/>
<path d="M129.942 73.7582C129.429 73.7745 128.921 73.6577 128.466 73.419C128.067 73.1933 127.746 72.8497 127.547 72.4345C127.324 71.9553 127.209 71.4331 127.209 70.9045C127.209 70.7781 127.209 70.6118 127.209 70.4056C127.209 70.1994 127.209 70.0331 127.209 69.9133C127.207 69.3823 127.322 68.8575 127.547 68.3767C127.747 67.9627 128.068 67.6195 128.466 67.3922C128.921 67.1535 129.429 67.0367 129.942 67.0529C130.325 67.0443 130.706 67.1052 131.067 67.2326C131.358 67.3365 131.625 67.4969 131.854 67.7048C132.054 67.8926 132.214 68.1188 132.324 68.3701C132.424 68.5783 132.483 68.8043 132.496 69.0353C132.501 69.072 132.497 69.1094 132.485 69.1442C132.472 69.179 132.451 69.2101 132.423 69.2348C132.368 69.2813 132.297 69.3071 132.225 69.308H132.053C131.989 69.3139 131.925 69.2949 131.874 69.2548C131.822 69.1945 131.781 69.1244 131.755 69.0486C131.63 68.6418 131.371 68.2899 131.021 68.0508C130.685 67.8559 130.303 67.7592 129.916 67.7714C129.401 67.7557 128.9 67.9418 128.519 68.2902C128.111 68.7514 127.901 69.3568 127.937 69.9732C127.917 70.2633 127.917 70.5545 127.937 70.8446C127.903 71.4608 128.112 72.0657 128.519 72.5276C128.901 72.8737 129.402 73.0573 129.916 73.0398C130.303 73.052 130.685 72.9553 131.021 72.7604C131.36 72.5214 131.609 72.1747 131.729 71.7759C131.753 71.6994 131.794 71.629 131.848 71.5697C131.871 71.5473 131.9 71.5304 131.931 71.5201C131.961 71.5097 131.994 71.5062 132.026 71.5098H132.198C132.272 71.5102 132.343 71.5387 132.397 71.5897C132.425 71.6136 132.447 71.6446 132.46 71.6797C132.473 71.7147 132.476 71.7525 132.47 71.7892C132.46 71.9758 132.422 72.1598 132.357 72.3347C132.285 72.5261 132.185 72.7055 132.06 72.8669C131.916 73.0448 131.747 73.1996 131.557 73.3259C131.338 73.4676 131.099 73.5752 130.849 73.6452C130.553 73.7237 130.248 73.7617 129.942 73.7582Z" fill="#F59F42"/>
<path d="M134.402 73.6385C134.366 73.6403 134.329 73.6347 134.295 73.6222C134.261 73.6096 134.23 73.5903 134.203 73.5653C134.178 73.5389 134.159 73.5075 134.146 73.4732C134.134 73.4388 134.129 73.4023 134.131 73.3658V67.4521C134.128 67.4155 134.133 67.3787 134.145 67.3442C134.158 67.3098 134.178 67.2785 134.204 67.2525C134.229 67.2265 134.26 67.2066 134.295 67.1939C134.329 67.1813 134.366 67.1763 134.402 67.1793H134.614C134.649 67.1764 134.685 67.1814 134.718 67.1941C134.751 67.2067 134.781 67.2267 134.806 67.2525C134.833 67.2779 134.854 67.3089 134.868 67.3434C134.881 67.3779 134.887 67.415 134.885 67.4521V69.9732H136.209L138.028 67.3656C138.062 67.3081 138.107 67.2582 138.161 67.2192C138.218 67.1913 138.282 67.1777 138.346 67.1793H138.597C138.659 67.1768 138.721 67.1906 138.776 67.2192C138.798 67.2334 138.816 67.2533 138.827 67.2767C138.839 67.3001 138.844 67.3262 138.842 67.3523C138.846 67.372 138.846 67.3924 138.842 67.4121C138.83 67.4416 138.817 67.4705 138.802 67.4986L136.883 70.2592L139.034 73.2992C139.077 73.344 139.1 73.4036 139.1 73.4655C139.102 73.4906 139.096 73.5156 139.084 73.5379C139.073 73.5601 139.055 73.5788 139.034 73.5919C138.984 73.627 138.923 73.6434 138.862 73.6385H138.544C138.479 73.6429 138.414 73.6266 138.359 73.5919C138.304 73.5609 138.256 73.5177 138.22 73.4655L136.235 70.7182H134.912V73.3791C134.912 73.416 134.906 73.4527 134.892 73.487C134.879 73.5213 134.858 73.5525 134.832 73.5786C134.807 73.6031 134.776 73.6221 134.744 73.6347C134.711 73.6472 134.675 73.6531 134.64 73.6518L134.402 73.6385Z" fill="#F59F42"/>
<path d="M142.111 73.7582C141.733 73.7637 141.359 73.6794 141.019 73.5121C140.699 73.3586 140.42 73.1305 140.205 72.8469C140.004 72.5764 139.897 72.2467 139.901 71.909C139.897 71.65 139.955 71.3939 140.07 71.1623C140.185 70.9307 140.354 70.7304 140.563 70.5785C141.087 70.211 141.694 69.9822 142.329 69.9133L144.315 69.6406V69.1816C144.323 68.9899 144.292 68.7984 144.222 68.6196C144.153 68.4409 144.047 68.2788 143.911 68.1439C143.548 67.861 143.092 67.7257 142.634 67.7647C142.27 67.7477 141.909 67.8379 141.595 68.0241C141.341 68.1735 141.148 68.4095 141.052 68.6893C141.038 68.7421 141.007 68.7888 140.964 68.8224C140.921 68.856 140.869 68.8747 140.814 68.8756H140.616C140.576 68.8796 140.536 68.8738 140.499 68.8587C140.462 68.8437 140.429 68.8198 140.404 68.7891C140.363 68.7335 140.342 68.6654 140.344 68.5962C140.356 68.4441 140.402 68.2965 140.477 68.1638C140.577 67.9706 140.712 67.7971 140.874 67.6516C141.082 67.4655 141.322 67.319 141.582 67.2192C141.919 67.0961 142.275 67.0374 142.634 67.0463C143.044 67.0334 143.453 67.1012 143.838 67.2458C144.121 67.3573 144.374 67.5326 144.579 67.7581C144.749 67.9663 144.877 68.2058 144.956 68.4632C145.027 68.7097 145.062 68.965 145.062 69.2215V73.3591C145.064 73.3956 145.059 73.4322 145.047 73.4665C145.034 73.5008 145.015 73.5322 144.99 73.5587C144.963 73.5836 144.932 73.6029 144.898 73.6155C144.864 73.6281 144.827 73.6336 144.791 73.6318H144.586C144.55 73.6336 144.513 73.6281 144.479 73.6155C144.445 73.6029 144.414 73.5836 144.387 73.5587C144.362 73.5322 144.343 73.5008 144.33 73.4665C144.318 73.4322 144.312 73.3956 144.315 73.3591V72.7737C144.195 72.9416 144.052 73.0916 143.891 73.2194C143.684 73.3864 143.448 73.5148 143.196 73.5986C142.847 73.7159 142.479 73.7699 142.111 73.7582ZM142.237 73.0398C142.598 73.0446 142.955 72.9601 143.276 72.7937C143.595 72.6218 143.854 72.3546 144.017 72.0287C144.225 71.6175 144.323 71.159 144.301 70.6983V70.2725L142.707 70.4987C142.167 70.5442 141.644 70.7052 141.171 70.971C141.018 71.0528 140.89 71.1742 140.799 71.3228C140.708 71.4713 140.659 71.6415 140.655 71.8158C140.645 72.0592 140.728 72.2973 140.887 72.481C141.052 72.6581 141.259 72.7908 141.489 72.8669C141.735 72.9756 142.001 73.0344 142.27 73.0398H142.237Z" fill="#F59F42"/>
<path d="M147.054 73.6385C146.989 73.6368 146.926 73.6094 146.881 73.5622C146.835 73.5149 146.809 73.4516 146.809 73.3857C146.806 73.3503 146.806 73.3147 146.809 73.2793C146.833 73.2381 146.864 73.202 146.902 73.1729L148.417 70.9843H149.344L147.603 73.4855C147.563 73.5317 147.516 73.572 147.464 73.6053C147.409 73.6479 147.342 73.6713 147.272 73.6718L147.054 73.6385ZM150.932 73.6385C150.895 73.6415 150.859 73.6366 150.825 73.6239C150.79 73.6113 150.759 73.5913 150.733 73.5653C150.707 73.5394 150.688 73.5081 150.675 73.4736C150.662 73.4392 150.657 73.4024 150.66 73.3658V71.2238H149.079V71.1772C148.785 71.203 148.49 71.1646 148.212 71.0647C147.934 70.9648 147.682 70.8058 147.471 70.5985C147.13 70.2026 146.95 69.6918 146.968 69.1683C146.942 68.8895 146.982 68.6084 147.083 68.3475C147.184 68.0865 147.344 67.8529 147.55 67.6649C148.084 67.3054 148.723 67.1388 149.364 67.1927H151.144C151.18 67.1892 151.217 67.1939 151.251 67.2066C151.285 67.2192 151.317 67.2395 151.342 67.2658C151.367 67.2925 151.386 67.3239 151.399 67.3582C151.411 67.3925 151.417 67.4289 151.415 67.4654V73.3791C151.416 73.4524 151.39 73.5236 151.342 73.5786C151.316 73.6036 151.284 73.6229 151.25 73.6355C151.216 73.648 151.18 73.6536 151.144 73.6518L150.932 73.6385ZM149.132 70.512H150.66V67.9044H149.251C148.846 67.8742 148.442 67.9694 148.093 68.1772C147.956 68.2988 147.851 68.4519 147.787 68.6234C147.722 68.7949 147.7 68.9797 147.722 69.1617C147.71 69.5145 147.83 69.8591 148.06 70.1262C148.199 70.2667 148.367 70.3742 148.553 70.4409C148.738 70.5077 148.936 70.532 149.132 70.512Z" fill="#F59F42"/>
<path d="M29.1157 10.5768C29.16 10.7207 29.2396 10.8511 29.3473 10.956C29.3921 10.996 29.4445 11.0267 29.5013 11.0461C29.5582 11.0655 29.6183 11.0733 29.6781 11.069C29.7728 11.0429 29.8606 10.9959 29.9349 10.9315C30.0093 10.8671 30.0685 10.7868 30.1082 10.6965C30.249 10.3991 30.3292 10.0764 30.3439 9.74737C30.3587 9.41835 30.3078 9.08968 30.1943 8.78073C30.1943 8.69425 30.1479 8.60778 30.1215 8.5213L29.9891 8.62773C29.5325 9.00025 28.8377 9.75194 29.1157 10.5768Z" fill="#F59F42"/>
<path d="M13.2741 11.069C13.3319 11.0735 13.3901 11.0657 13.4448 11.0462C13.4994 11.0267 13.5495 10.996 13.5917 10.956C13.703 10.8515 13.7832 10.7179 13.8233 10.5701C14.0747 9.75194 13.3866 9.00025 12.9498 8.62773L12.8241 8.5213L12.7447 8.78073C12.6336 9.09041 12.5846 9.41913 12.6005 9.74794C12.6164 10.0767 12.6969 10.3991 12.8373 10.6965C12.8777 10.7875 12.9379 10.8683 13.0135 10.9328C13.0891 10.9972 13.1782 11.0438 13.2741 11.069Z" fill="#F59F42"/>
<path d="M42.8993 12.3995C42.7471 10.1378 41.2252 8.09556 38.8364 6.93145C37.6571 6.33456 36.3564 6.02034 35.0361 6.01342C33.7159 6.00649 32.4119 6.30705 31.2266 6.89154C31.3126 7.13766 31.3854 7.39044 31.4516 7.62326C31.6545 8.21361 31.7391 8.83852 31.7005 9.46191C31.6618 10.0853 31.5008 10.6948 31.2266 11.2553C31.0833 11.5462 30.8728 11.7983 30.6125 11.9904C30.3523 12.1826 30.05 12.3092 29.7311 12.3595C29.2481 12.3883 28.7731 12.2259 28.4076 11.9072C28.097 11.6312 27.8681 11.2744 27.7459 10.8761C27.3357 9.54572 27.9113 8.12882 29.3605 6.88488C29.5326 6.73854 29.7046 6.6055 29.8767 6.48576C28.6591 3.50563 25.86 0.179589 21.7441 -1.70845e-05C17.3569 -0.179623 14.3461 3.28611 13.0226 6.47245C13.1903 6.59219 13.3623 6.72523 13.5388 6.87158C15.0012 8.12882 15.5703 9.53241 15.16 10.8628C15.042 11.2668 14.8126 11.6289 14.4983 11.9072C14.1329 12.2254 13.6572 12.3856 13.1748 12.3529C12.8538 12.3062 12.549 12.1812 12.2871 11.9887C12.0252 11.7962 11.8143 11.5421 11.6727 11.2486C11.1246 10.1151 11.0437 8.8098 11.4477 7.61661C11.5139 7.38379 11.5999 7.13101 11.6727 6.88488C10.4885 6.30048 9.18567 5.99994 7.86648 6.00687C6.54728 6.01379 5.24764 6.32799 4.06956 6.9248C1.7006 8.09556 0.18526 10.1378 -2.16222e-05 12.3995C-0.185303 15.0603 1.66751 17.914 4.49306 19.3908C4.60535 19.4393 4.72022 19.4815 4.83715 19.5172C5.57166 19.7899 6.33926 20.076 6.37896 20.6813V21.8255C6.40782 22.6626 6.17653 23.488 5.71724 24.1869C5.29374 24.7657 3.34828 26.9409 2.99757 29.5951C2.92478 30.1339 2.58069 32.7083 3.93721 33.6595C4.40445 33.9837 4.97786 34.1147 5.53858 34.0254C5.92517 33.9665 6.27392 33.759 6.51131 33.4466C6.63953 33.2175 6.71554 32.9625 6.73385 32.7003C6.75215 32.438 6.71231 32.1749 6.61718 31.93C6.51699 31.6438 6.38608 31.3694 6.22677 31.1118C5.89591 30.4931 5.63784 29.921 5.56505 29.6816C5.26278 28.9479 5.16443 28.1455 5.28051 27.36C5.43162 26.5106 5.84898 25.7321 6.4716 25.1382C6.99631 24.8083 7.59982 24.6267 8.21855 24.6127H8.25825H9.48905C14.6219 24.5774 19.7424 24.1012 24.7946 23.1891L26.8592 22.79C29.9722 22.2133 33.0396 21.4107 36.0373 20.3886L37.3607 19.8631L37.46 19.8232C37.6519 19.73 37.857 19.6569 38.0621 19.5771C38.2673 19.4972 38.3401 19.4706 38.393 19.4507C41.2516 17.914 43.0912 15.0337 42.8993 12.3995Z" fill="#F59F42"/>
</g>
<defs>
<clipPath id="clip0_49_1584">
<rect width="198" height="76" fill="white"/>
</clipPath>
</defs>
</svg>
