<svg width="152" height="24" viewBox="0 0 152 24" fill="none" xmlns="http://www.w3.org/2000/svg">
<path d="M21.947 9.17901C21.8842 8.99388 21.7685 8.83121 21.6142 8.71107C21.46 8.59094 21.2739 8.51861 21.079 8.50301L15.378 8.05001L12.911 2.58901C12.8325 2.41313 12.7047 2.26374 12.5431 2.15887C12.3815 2.05401 12.193 1.99815 12.0004 1.99805C11.8077 1.99794 11.6192 2.05359 11.4575 2.15828C11.2957 2.26296 11.1678 2.41221 11.089 2.58801L8.62203 8.05001L2.92103 8.50301C2.72948 8.51819 2.54636 8.58823 2.39358 8.70475C2.2408 8.82127 2.12482 8.97934 2.05952 9.16004C1.99422 9.34075 1.98236 9.53645 2.02537 9.72372C2.06838 9.91099 2.16443 10.0819 2.30203 10.216L6.51503 14.323L5.02503 20.775C4.97978 20.9703 4.99428 21.1747 5.06665 21.3617C5.13901 21.5486 5.26589 21.7095 5.43083 21.8235C5.59577 21.9374 5.79115 21.9991 5.99161 22.0007C6.19208 22.0022 6.38837 21.9434 6.55503 21.832L12 18.202L17.445 21.832C17.6154 21.9451 17.8162 22.0033 18.0207 21.9988C18.2251 21.9944 18.4232 21.9274 18.5884 21.8069C18.7536 21.6865 18.878 21.5183 18.9448 21.3251C19.0116 21.1318 19.0176 20.9228 18.962 20.726L17.133 14.326L21.669 10.244C21.966 9.97601 22.075 9.55801 21.947 9.17901V9.17901Z" fill="#6B3E91"/>
<path d="M53.947 9.17901C53.8842 8.99388 53.7685 8.83121 53.6142 8.71107C53.46 8.59094 53.2739 8.51861 53.079 8.50301L47.378 8.05001L44.911 2.58901C44.8325 2.41313 44.7047 2.26374 44.5431 2.15887C44.3815 2.05401 44.193 1.99815 44.0004 1.99805C43.8077 1.99794 43.6192 2.05359 43.4575 2.15828C43.2957 2.26296 43.1678 2.41221 43.089 2.58801L40.622 8.05001L34.921 8.50301C34.7295 8.51819 34.5464 8.58823 34.3936 8.70475C34.2408 8.82127 34.1248 8.97934 34.0595 9.16004C33.9942 9.34075 33.9824 9.53645 34.0254 9.72372C34.0684 9.91099 34.1644 10.0819 34.302 10.216L38.515 14.323L37.025 20.775C36.9798 20.9703 36.9943 21.1747 37.0666 21.3617C37.139 21.5486 37.2659 21.7095 37.4308 21.8235C37.5958 21.9374 37.7911 21.9991 37.9916 22.0007C38.1921 22.0022 38.3884 21.9434 38.555 21.832L44 18.202L49.445 21.832C49.6154 21.9451 49.8162 22.0033 50.0207 21.9988C50.2251 21.9944 50.4232 21.9274 50.5884 21.8069C50.7536 21.6865 50.878 21.5183 50.9448 21.3251C51.0116 21.1318 51.0176 20.9228 50.962 20.726L49.133 14.326L53.669 10.244C53.966 9.97601 54.075 9.55801 53.947 9.17901V9.17901Z" fill="#6B3E91"/>
<path d="M85.947 9.17901C85.8842 8.99388 85.7685 8.83121 85.6142 8.71107C85.46 8.59094 85.2739 8.51861 85.079 8.50301L79.378 8.05001L76.911 2.58901C76.8325 2.41313 76.7047 2.26374 76.5431 2.15887C76.3815 2.05401 76.193 1.99815 76.0004 1.99805C75.8077 1.99794 75.6192 2.05359 75.4575 2.15828C75.2957 2.26296 75.1678 2.41221 75.089 2.58801L72.622 8.05001L66.921 8.50301C66.7295 8.51819 66.5464 8.58823 66.3936 8.70475C66.2408 8.82127 66.1248 8.97934 66.0595 9.16004C65.9942 9.34075 65.9824 9.53645 66.0254 9.72372C66.0684 9.91099 66.1644 10.0819 66.302 10.216L70.515 14.323L69.025 20.775C68.9798 20.9703 68.9943 21.1747 69.0666 21.3617C69.139 21.5486 69.2659 21.7095 69.4308 21.8235C69.5958 21.9374 69.7911 21.9991 69.9916 22.0007C70.1921 22.0022 70.3884 21.9434 70.555 21.832L76 18.202L81.445 21.832C81.6154 21.9451 81.8162 22.0033 82.0207 21.9988C82.2251 21.9944 82.4232 21.9274 82.5884 21.8069C82.7536 21.6865 82.878 21.5183 82.9448 21.3251C83.0116 21.1318 83.0176 20.9228 82.962 20.726L81.133 14.326L85.669 10.244C85.966 9.97601 86.075 9.55801 85.947 9.17901V9.17901Z" fill="#6B3E91"/>
<g clip-path="url(#clip0_243_1400)">
<path d="M134.516 14.323L133.026 20.775C132.98 20.9704 132.994 21.1751 133.066 21.3625C133.138 21.5499 133.265 21.7112 133.43 21.8253C133.595 21.9395 133.791 22.0012 133.991 22.0024C134.192 22.0036 134.389 21.9442 134.555 21.832L140 18.202L145.445 21.832C145.615 21.9451 145.816 22.0033 146.021 21.9988C146.225 21.9944 146.423 21.9274 146.588 21.8069C146.754 21.6865 146.878 21.5183 146.945 21.3251C147.012 21.1318 147.018 20.9228 146.962 20.726L145.133 14.326L149.669 10.244C149.814 10.1132 149.918 9.94266 149.967 9.75351C150.017 9.56436 150.01 9.36488 149.947 9.17974C149.884 8.9946 149.768 8.83193 149.614 8.71183C149.46 8.59173 149.274 8.51947 149.079 8.504L143.378 8.05L140.911 2.589C140.832 2.41316 140.704 2.26384 140.543 2.15906C140.381 2.05429 140.193 1.99854 140 1.99854C139.807 1.99854 139.619 2.05429 139.457 2.15906C139.296 2.26384 139.168 2.41316 139.089 2.589L136.622 8.05L130.921 8.503C130.729 8.51818 130.546 8.58821 130.394 8.70473C130.241 8.82125 130.125 8.97932 130.06 9.16003C129.994 9.34074 129.982 9.53644 130.025 9.72371C130.068 9.91098 130.164 10.0819 130.302 10.216L134.516 14.323V14.323ZM137.369 9.997C137.548 9.98294 137.719 9.92112 137.865 9.81802C138.012 9.71491 138.128 9.57433 138.201 9.411L140 5.43L141.799 9.411C141.872 9.57433 141.988 9.71491 142.135 9.81802C142.281 9.92112 142.453 9.98294 142.631 9.997L146.603 10.312L143.332 13.256C143.048 13.512 142.935 13.906 143.039 14.274L144.292 18.659L140.556 16.168C140.392 16.0579 140.199 15.9992 140.002 15.9992C139.804 15.9992 139.611 16.0579 139.447 16.168L135.543 18.771L136.593 14.225C136.632 14.0578 136.626 13.8835 136.578 13.7189C136.53 13.5543 136.44 13.4048 136.317 13.285L133.279 10.323L137.369 9.997V9.997Z" fill="#6B3E91"/>
<path d="M149.947 9.17901C149.884 8.99388 149.768 8.83121 149.614 8.71107C149.46 8.59094 149.274 8.51861 149.079 8.50301L143.378 8.05001L140.911 2.58901C140.832 2.41313 140.705 2.26374 140.543 2.15887C140.381 2.05401 140.193 1.99815 140 1.99805C139.808 1.99794 139.619 2.05359 139.457 2.15828C139.296 2.26296 139.168 2.41221 139.089 2.58801L136.622 8.05001L130.921 8.50301C130.729 8.51819 130.546 8.58823 130.394 8.70475C130.241 8.82127 130.125 8.97934 130.06 9.16004C129.994 9.34075 129.982 9.53645 130.025 9.72372C130.068 9.91099 130.164 10.0819 130.302 10.216L134.515 14.323L133.025 20.775C132.98 20.9703 132.994 21.1747 133.067 21.3617C133.139 21.5486 133.266 21.7095 133.431 21.8235C133.596 21.9374 133.791 21.9991 133.992 22.0007C134.192 22.0022 134.388 21.9434 134.555 21.832L140 18.202L145.445 21.832C145.615 21.9451 145.816 22.0033 146.021 21.9988C146.225 21.9944 146.423 21.9274 146.588 21.8069C146.754 21.6865 146.878 21.5183 146.945 21.3251C147.012 21.1318 147.018 20.9228 146.962 20.726L145.133 14.326L149.669 10.244C149.966 9.97601 150.075 9.55801 149.947 9.17901V9.17901Z" fill="#6B3E91"/>
</g>
<path d="M116.947 9.17901C116.884 8.99388 116.768 8.83121 116.614 8.71107C116.46 8.59094 116.274 8.51861 116.079 8.50301L110.378 8.05001L107.911 2.58901C107.832 2.41313 107.705 2.26374 107.543 2.15887C107.381 2.05401 107.193 1.99815 107 1.99805C106.808 1.99794 106.619 2.05359 106.457 2.15828C106.296 2.26296 106.168 2.41221 106.089 2.58801L103.622 8.05001L97.921 8.50301C97.7295 8.51819 97.5464 8.58823 97.3936 8.70475C97.2408 8.82127 97.1248 8.97934 97.0595 9.16004C96.9942 9.34075 96.9824 9.53645 97.0254 9.72372C97.0684 9.91099 97.1644 10.0819 97.302 10.216L101.515 14.323L100.025 20.775C99.9798 20.9703 99.9943 21.1747 100.067 21.3617C100.139 21.5486 100.266 21.7095 100.431 21.8235C100.596 21.9374 100.791 21.9991 100.992 22.0007C101.192 22.0022 101.388 21.9434 101.555 21.832L107 18.202L112.445 21.832C112.615 21.9451 112.816 22.0033 113.021 21.9988C113.225 21.9944 113.423 21.9274 113.588 21.8069C113.754 21.6865 113.878 21.5183 113.945 21.3251C114.012 21.1318 114.018 20.9228 113.962 20.726L112.133 14.326L116.669 10.244C116.966 9.97601 117.075 9.55801 116.947 9.17901V9.17901Z" fill="#6B3E91"/>
<defs>
<clipPath id="clip0_243_1400">
<rect x="128" width="24" height="24" fill="white"/>
</clipPath>
</defs>
</svg>
