<svg width="42" height="27" viewBox="0 0 42 27" fill="none" xmlns="http://www.w3.org/2000/svg">
<path d="M18.574 0.0514191H22.4912C22.8761 0.0499067 23.2459 0.203093 23.5197 0.477435C23.7934 0.751776 23.9488 1.12491 23.9517 1.51514C23.9517 4.28374 23.9517 7.05233 23.9517 9.82092C23.9516 9.92764 23.9752 10.033 24.0208 10.1292C24.0664 10.2254 24.1328 10.3099 24.2151 10.3764C24.2974 10.4429 24.3935 10.4898 24.4961 10.5134C24.5988 10.5371 24.7054 10.537 24.8079 10.5131C25.2534 10.4153 25.6896 10.2786 26.1118 10.1046C27.0732 9.69102 27.9587 9.11557 28.7307 8.40259C29.7018 7.55456 30.5764 6.59931 31.3385 5.55457C32.3934 4.21146 33.2026 2.68779 33.728 1.0556C33.8187 0.745383 34.0076 0.474027 34.2654 0.283342C34.5233 0.0926565 34.8358 -0.0067776 35.1549 0.000359009L39.1729 0.0343991C39.3929 0.0340903 39.61 0.084967 39.8076 0.183113C40.0052 0.28126 40.178 0.424059 40.3125 0.600519C40.4471 0.77698 40.54 0.982397 40.584 1.20096C40.628 1.41952 40.6219 1.6454 40.5663 1.86122C40.529 2.02007 40.4842 2.1846 40.432 2.3548C40.1576 3.25802 39.8056 4.13508 39.3799 4.97589C39.0237 5.7017 38.6237 6.40463 38.1824 7.0807C37.5185 8.09006 36.7696 9.03917 35.944 9.91737C35.3791 10.5474 34.7754 11.1405 34.1365 11.6931C33.6744 12.0982 33.1905 12.477 32.6871 12.8278C32.5866 12.8959 32.505 12.9891 32.4502 13.0984C32.3955 13.2078 32.3694 13.3295 32.3744 13.452C32.3795 13.5745 32.4155 13.6936 32.4791 13.7979C32.5427 13.9022 32.6317 13.9882 32.7375 14.0476L33.1684 14.3029C33.898 14.7371 34.5956 15.2244 35.2557 15.7609C36.2014 16.4942 37.0781 17.3147 37.8746 18.2118C38.4342 18.8586 38.8539 19.4202 39.1505 19.823C39.5528 20.37 39.9264 20.9382 40.2697 21.525C40.6278 22.1264 40.8517 22.6257 41.0587 23.0228C41.2658 23.4199 41.5791 24.1064 41.9093 24.9858C41.9906 25.2072 42.0178 25.4454 41.9886 25.6798C41.9594 25.9143 41.8746 26.1381 41.7416 26.3321C41.6085 26.5261 41.4311 26.6845 41.2244 26.7939C41.0178 26.9033 40.7882 26.9603 40.5551 26.9601H36.0055C35.7081 26.9594 35.4181 26.8667 35.1741 26.6943C34.9301 26.522 34.7438 26.2782 34.6401 25.9956C34.2827 25.0352 33.821 24.118 33.2635 23.2611C32.3413 21.8066 31.1543 20.5436 29.766 19.5394C28.2695 18.5006 26.5682 17.8037 24.78 17.497C24.68 17.4795 24.5774 17.4846 24.4796 17.5117C24.3817 17.5388 24.2909 17.5873 24.2135 17.6538C24.1362 17.7204 24.0742 17.8033 24.0318 17.8967C23.9895 17.9902 23.9679 18.0919 23.9685 18.1948V25.5304C23.9678 25.7256 23.9289 25.9187 23.8541 26.0985C23.7792 26.2783 23.6699 26.4412 23.5325 26.5779C23.3951 26.7146 23.2323 26.8222 23.0536 26.8947C22.8748 26.9671 22.6837 27.0028 22.4912 26.9998C21.1078 26.9808 19.7284 26.8461 18.3669 26.597C15.8711 26.207 13.4642 25.3673 11.26 24.1178C8.24175 22.3176 5.7353 19.7551 3.98523 16.68C2.02663 13.4348 1.38868 10.5414 0.840275 8.06786C0.36522 5.92926 0.0842483 3.75106 0.000875374 1.56053C-0.00588843 1.36331 0.0266003 1.16673 0.0964032 0.982523C0.166206 0.798312 0.271893 0.630242 0.407158 0.488342C0.542424 0.346441 0.704496 0.233617 0.883707 0.156601C1.06292 0.0795841 1.25559 0.0399533 1.45024 0.0400724H5.83191C6.20294 0.0381987 6.56034 0.181782 6.8294 0.440814C7.09845 0.699847 7.25835 1.05428 7.27567 1.43004C7.29806 1.90282 7.33723 2.41342 7.39319 2.96185C7.53471 4.45117 7.79104 5.92697 8.15984 7.37571C8.61812 9.55283 9.45571 11.6296 10.6333 13.5086C11.6664 15.2639 13.1245 16.7226 14.8694 17.7466C15.2903 17.9814 15.7258 18.188 16.1733 18.365C16.2798 18.4063 16.3945 18.4208 16.5077 18.4072C16.6209 18.3937 16.7292 18.3525 16.8233 18.2873C16.9174 18.222 16.9944 18.1346 17.0479 18.0325C17.1014 17.9305 17.1296 17.8168 17.1302 17.7012C17.1302 12.3077 17.1302 6.91428 17.1302 1.52082C17.1302 1.13209 17.2822 0.759199 17.5528 0.483796C17.8234 0.208393 18.1906 0.05292 18.574 0.0514191Z" fill="#6B3E91"/>
</svg>
